<?xml version="1.0" encoding="UTF-8"?>
<svg width="1075px" height="862px" viewBox="0 0 1075 862" version="1.1" xmlns="http://www.w3.org/2000/svg" xmlns:xlink="http://www.w3.org/1999/xlink">
    <!-- Generator: Sketch 52.6 (67491) - http://www.bohemiancoding.com/sketch -->
    <title>Artboard</title>
    <desc>Created with Sketch.</desc>
    <defs>
        <linearGradient x1="94.8805259%" y1="50%" x2="39.8765203%" y2="51.4115258%" id="linearGradient-1">
            <stop stop-color="#FFFFFF" stop-opacity="0" offset="0%"></stop>
            <stop stop-color="#FFFFFF" offset="100%"></stop>
        </linearGradient>
        <linearGradient x1="20.8814821%" y1="53.3702227%" x2="-6.98172655%" y2="53.3702227%" id="linearGradient-2">
            <stop stop-color="#5F6391" stop-opacity="0" offset="0%"></stop>
            <stop stop-color="#455289" offset="100%"></stop>
        </linearGradient>
        <path d="M208.324631,558.049672 C208.362285,557.984354 208.399478,557.918671 208.436117,557.852622 C212.064585,551.310018 211.000668,540.335523 211.417725,532.84051 C211.947654,523.317616 212.448603,513.793354 212.945492,504.268818 C214.217708,479.88544 215.445809,455.499782 216.665512,431.113759 C217.636309,411.704889 218.59797,392.295471 219.556861,372.885962 C220.924597,345.202637 218.873639,316.816592 216.839109,289.21008 C216.476871,284.295235 215.97786,279.106527 213.056424,275.113347 C209.869101,270.756719 204.445687,268.691161 199.307818,266.926743 C181.956492,260.968264 164.314269,255.879906 146.680905,250.794467 C130.831412,246.223364 114.858066,241.628726 98.4121037,240.188802 C91.2645303,239.562986 82.7120282,240.228212 78.9849941,246.28923 C76.9667993,249.57148 76.9475107,253.640743 76.9884874,257.481484 C77.8188193,335.392014 75.2711575,413.317232 76.2116836,491.259691 C76.5919178,522.768157 77.4037918,554.273521 78.8650173,585.751881 C78.9933925,588.516784 79.169297,591.42099 80.6617164,593.762782 C83.2302358,597.792909 88.688074,598.766117 93.5032979,598.948114 C109.075552,599.536618 122.772476,595.036491 137.084143,589.635042 C152.300896,583.890672 168.013339,579.41034 183.117776,573.405426 C191.036154,570.257371 203.823192,565.856863 208.324631,558.049672 Z" id="path-3"></path>
        <radialGradient cx="50%" cy="0%" fx="50%" fy="0%" r="257.606997%" gradientTransform="translate(0.500000,0.000000),scale(1.000000,0.377451),rotate(90.000000),translate(-0.500000,-0.000000)" id="radialGradient-4">
            <stop stop-color="#749FDA" offset="0%"></stop>
            <stop stop-color="#9EA2D5" offset="100%"></stop>
        </radialGradient>
        <linearGradient x1="50%" y1="0%" x2="50%" y2="100%" id="linearGradient-5">
            <stop stop-color="#FFFFFF" stop-opacity="0.5" offset="0%"></stop>
            <stop stop-color="#FFFFFF" stop-opacity="0" offset="100%"></stop>
        </linearGradient>
        <path d="M159.998792,561 C140.862666,561 136.297329,532.151241 130.833283,522.909075 C127.347087,517.012346 120.277564,503.739677 117.666521,492.247641 C115.055478,480.755605 120.83049,455.435955 122.702357,444.142995 C124.574224,432.850035 124.574224,417.457291 127.629609,410.175667 C131.095938,401.914678 140.832698,359.494991 162.028865,357.07822 C173.602268,355.758629 179.391806,371.472218 181.152451,378.77637 C182.467797,384.233357 187.77991,398.344442 186.641003,417.372347 C185.520676,436.089816 192.084684,453.790013 193.87189,474.321691 C195.192069,489.488101 185.903774,511.114312 184.602696,528.014271 C184.126684,534.197277 179.554606,561 159.998792,561 Z" id="path-6"></path>
        <linearGradient x1="100%" y1="50%" x2="23.8830913%" y2="66.0480964%" id="linearGradient-7">
            <stop stop-color="#47596F" stop-opacity="0" offset="0%"></stop>
            <stop stop-color="#0C2565" stop-opacity="0.322039176" offset="100%"></stop>
        </linearGradient>
        <filter x="-1.2%" y="-12.2%" width="102.5%" height="124.5%" filterUnits="objectBoundingBox" id="filter-8">
            <feGaussianBlur stdDeviation="2" in="SourceGraphic"></feGaussianBlur>
        </filter>
        <linearGradient x1="118.345463%" y1="100%" x2="32.9183911%" y2="100%" id="linearGradient-9">
            <stop stop-color="#529491" offset="0%"></stop>
            <stop stop-color="#529390" stop-opacity="0" offset="100%"></stop>
        </linearGradient>
        <path d="M289.849981,581.307525 C290.081293,582.042871 290.057744,582.906344 289.69068,583.593295 C289.291309,584.340441 288.485366,584.41234 287.722337,584.585193 C285.900449,584.998038 284.019687,585.010831 282.162281,584.996649 C278.57699,584.969179 274.992284,584.844622 271.413416,584.623373 C264.536816,584.197934 257.702937,583.39793 250.811449,583.128187 C248.79046,583.049149 246.804016,582.248847 244.78147,582.248847 C244.767457,582.248847 244.940187,582.222468 244.927536,582.216121 C244.496831,582.002409 244.066222,581.788599 243.635516,581.574689 C243.368587,581.442198 243.097766,581.307029 242.877353,581.104326 C242.651296,580.896466 242.488978,580.627417 242.343204,580.354997 C241.123779,578.076269 240.881957,575.377258 241.045637,572.787037 C241.100229,571.922473 241.248145,570.962507 241.919991,570.43165 C242.350697,570.091497 243.022154,569.89167 243.540734,570.061845 C244.05941,570.231922 244.48817,570.603314 244.888319,570.98016 C247.862097,573.781415 250.063212,577.353121 253.065308,580.12294 C253.502923,580.526661 253.9926,580.929192 254.578617,581.002379 C255.849618,581.16115 256.896507,581.466991 258.164783,581.647381 C260.888273,582.034739 263.619255,582.422593 266.368435,582.482095 C269.117615,582.541398 271.899493,582.264615 274.499882,581.35354 C276.791108,580.550759 279.027742,579.022847 280.320541,576.934624 C280.617248,576.455435 280.857902,575.934395 281.228858,575.512427 C281.599813,575.090558 282.146224,574.772321 282.694776,574.86445 C284.829134,575.223346 286.437129,577.154781 288.001722,578.677239 C288.775357,579.42984 289.523497,580.269513 289.849981,581.307525 Z" id="path-10"></path>
        <radialGradient cx="30.3666117%" cy="39.4012681%" fx="30.3666117%" fy="39.4012681%" r="18.1408762%" gradientTransform="translate(0.303666,0.394013),scale(1.000000,0.804196),rotate(-44.715596),scale(1.000000,2.314410),translate(-0.303666,-0.394013)" id="radialGradient-11">
            <stop stop-color="#4A5564" offset="0%"></stop>
            <stop stop-color="#5D6A7A" offset="100%"></stop>
        </radialGradient>
        <radialGradient cx="45.4860674%" cy="73.5107591%" fx="45.4860674%" fy="73.5107591%" r="53.5769675%" gradientTransform="translate(0.454861,0.735108),scale(1.000000,0.804196),rotate(73.226167),scale(1.000000,0.526791),translate(-0.454861,-0.735108)" id="radialGradient-12">
            <stop stop-color="#98EEFF" stop-opacity="0.534873188" offset="0%"></stop>
            <stop stop-color="#98EDFF" stop-opacity="0" offset="100%"></stop>
        </radialGradient>
        <path d="M267.001033,563.732446 C272.550185,542.516518 278.712006,521.439649 286.268981,500.845494 C288.258795,495.422951 291.285244,490.291421 291.922504,484.554286 C292.498187,479.371753 289.777877,474.40671 286.703793,470.181712 C281.835468,463.49089 275.883066,457.663872 269.934052,451.900465 C264.498274,446.634111 259.029674,441.382577 253.107964,436.662163 C250.978441,434.96458 248.783081,433.331475 246.393794,432.019121 C242.430528,429.842386 237.59212,427.898924 233.06905,427.686437 C228.333366,423.817028 221.844009,422.481577 215.753544,423.175526 C209.662982,423.869572 203.92271,426.429129 198.705451,429.628648 C190.591092,434.604758 179.422012,439.935879 177.165753,449.143626 C176.556184,451.631392 177.725461,454.194607 179.083437,456.370284 C182.25405,461.450327 179.840062,471.545645 184.323727,475.530248 C198.067405,487.744082 220.940596,492.224394 239.056791,495.622638 C237.063201,500.947791 234.825822,506.325682 234.608271,512.00344 C234.449682,516.14173 235.215613,520.255672 236.052512,524.312451 C237.285787,530.290269 238.684039,536.248455 240.695541,542.013787 C241.641167,544.724337 242.722436,547.39264 243.478879,550.161316 C244.661808,554.490728 245.032526,559.038111 244.566442,563.500424 C245.368099,564.369328 246.613088,564.620116 247.714205,565.058466 C248.99492,565.56851 250.384653,565.738557 251.760057,565.846725 C254.817101,566.087216 257.896704,566.044584 260.945906,565.719695 C262.988777,565.502108 265.327912,564.917578 267.001033,563.732446 Z" id="path-13"></path>
        <linearGradient x1="10.101113%" y1="87.8833033%" x2="46.7572597%" y2="68.7760667%" id="linearGradient-14">
            <stop stop-color="#96A3B2" stop-opacity="0" offset="0%"></stop>
            <stop stop-color="#5D6A7A" offset="100%"></stop>
        </linearGradient>
        <radialGradient cx="40.4598458%" cy="9.29761089%" fx="40.4598458%" fy="9.29761089%" r="95.6155283%" gradientTransform="translate(0.404598,0.092976),scale(1.000000,0.779412),rotate(-47.758055),scale(1.000000,0.571863),translate(-0.404598,-0.092976)" id="radialGradient-15">
            <stop stop-color="#7B88C7" stop-opacity="0.731487772" offset="0%"></stop>
            <stop stop-color="#8EABDF" stop-opacity="0" offset="100%"></stop>
        </radialGradient>
        <path d="M142.011058,534 C141.587941,533.65499 141.203472,533.285895 140.85615,532.890458 C133.811108,524.869459 129.104054,518.721483 125.335222,512.200554 C124.152716,510.154596 123.041401,508.044344 122,505.872124 C128.87673,486.808426 137.590558,468.402197 147.987758,450.992251 C148.789993,449.649026 148.777664,448.555438 148.307914,447.06419 C146.401637,441.012475 148.668454,434.397093 151.9966,428.98958 C155.249416,423.704275 159.877796,419.028463 164.886518,415.348106 C164.521222,413.341728 164.94389,411.242727 165.830678,409.404772 C166.717465,407.566914 168.047889,405.970958 169.524412,404.558411 C170.753488,403.382738 172.133615,402.298335 173.759149,401.788812 C177.885647,400.495573 182.321137,399.634412 186.580726,398.882697 C194.57715,397.47189 203.454537,397.27891 210.105103,401.920495 C213.007572,403.94621 215.2674,406.759316 217.211439,409.710872 C225.971171,423.010184 232.200427,442.277096 224.541147,456.234145 C216.036628,471.731365 203.522393,484.705916 190.015461,496.148999 C176.50853,507.592081 161.902117,517.67531 148.059303,528.712998 C145.979292,530.371527 143.87822,532.093949 142.011058,534 Z" id="path-16"></path>
        <linearGradient x1="0%" y1="10.4926282%" x2="259.30798%" y2="66.1036942%" id="linearGradient-17">
            <stop stop-color="#1A222B" offset="0%"></stop>
            <stop stop-color="#2E3B4B" offset="100%"></stop>
        </linearGradient>
        <linearGradient x1="50%" y1="0%" x2="50%" y2="96.6537211%" id="linearGradient-18">
            <stop stop-color="#FFFFFF" stop-opacity="0.5" offset="0%"></stop>
            <stop stop-color="#FFFFFF" stop-opacity="0" offset="100%"></stop>
        </linearGradient>
        <path d="M255.648503,292.991412 C256.205085,292.941063 256.764021,292.682724 256.940474,292.079284 C257.042722,291.729322 257.00475,291.346297 256.891141,291.000332 C256.682653,290.365775 256.15872,289.957035 255.509818,290.003603 C254.961629,290.042932 254.562052,290.239253 254.251418,290.754526 C254.058897,291.07402 253.966884,291.462879 254.010792,291.838773 C254.115702,292.737827 254.908611,293.058509 255.648503,292.991412 Z" id="path-19"></path>
        <linearGradient x1="50%" y1="0%" x2="50%" y2="100%" id="linearGradient-20">
            <stop stop-color="#FFFFFF" stop-opacity="0.5" offset="0%"></stop>
            <stop stop-color="#FFFFFF" stop-opacity="0" offset="96.6537211%"></stop>
        </linearGradient>
        <path d="M254.149527,295.031264 C254.607986,294.962564 255.08352,295.007618 255.520265,295.161172 C255.757835,295.244761 256.020276,295.419042 255.99876,295.666792 C255.739082,298.658276 254.667798,301.480248 253.549731,304.273026 C253.473634,304.462877 253.283539,304.591617 253.117822,304.714032 C252.838996,304.920426 252.482,305.046052 252.13902,304.984163 C251.919907,304.944656 251.721521,304.83275 251.53567,304.711697 C251.308267,304.563495 251.074349,304.369947 251.039607,304.103416 C251.005556,303.843211 250.963411,303.553716 251.056978,303.308009 L251.940535,300.987668 C252.489896,299.544764 252.833173,298.018272 253.256791,296.534791 C253.373158,296.12726 253.49367,295.710873 253.74101,295.364841 C253.815134,295.261012 254.055664,295.118161 254.149527,295.031264 Z" id="path-21"></path>
        <linearGradient x1="50%" y1="100%" x2="50%" y2="3.061617e-15%" id="linearGradient-22">
            <stop stop-color="#5354BF" stop-opacity="0.5" offset="0%"></stop>
            <stop stop-color="#5354BF" stop-opacity="0" offset="100%"></stop>
        </linearGradient>
        <path d="M240.455162,428.810808 C242.836749,432.969917 247.234406,435.45988 251.424467,437.751204 C253.663899,438.975841 255.926354,440.210097 258.378063,440.910288 C259.645283,441.272183 263.18455,440.555398 265.925533,438.46442 C268.487778,436.509794 270.028403,429.110125 269.813048,427.324278 C269.356629,423.539385 274.566913,408.295091 274.530514,405.649295 C274.50214,403.590662 273.960725,386.233649 271.305928,378.096943 C274.368296,376.520816 276.304213,373.035445 276.841023,369.614908 C277.075657,368.119295 277.002477,366.594054 276.924329,365.081896 C276.880383,364.231355 276.834527,363.376004 276.64747,362.545471 C276.377488,361.346134 275.821858,360.234043 275.255528,359.144558 C272.143673,353.158643 268.557105,347.437836 264.975028,341.724725 C262.73808,338.157109 260.501229,334.589492 258.264281,331.021876 C256.623949,330.969932 255.202009,330.999078 253.577631,331.234848 C252.539741,331.385487 251.378037,331.686956 250.876766,332.614356 C250.618345,333.092629 250.586818,333.657476 250.557107,334.20116 C249.211977,358.796916 240.108084,382.592824 240.001467,407.22571 C239.9708,414.328814 240.424017,421.060131 241.077475,428.132838 C241.1069,428.450565 240.726863,428.975107 240.455162,428.810808 Z" id="path-23"></path>
        <radialGradient cx="53.9827926%" cy="60.0964674%" fx="53.9827926%" fy="60.0964674%" r="63.7148982%" gradientTransform="translate(0.539828,0.600965),scale(1.000000,0.624113),rotate(-92.376994),scale(1.000000,0.487784),translate(-0.539828,-0.600965)" id="radialGradient-24">
            <stop stop-color="#232E3B" offset="0%"></stop>
            <stop stop-color="#2E3B4B" offset="100%"></stop>
        </radialGradient>
        <radialGradient cx="89.9941687%" cy="14.5991198%" fx="89.9941687%" fy="14.5991198%" r="50.3368916%" gradientTransform="translate(0.899942,0.145991),scale(1.000000,0.624113),rotate(88.541888),scale(1.000000,0.553404),translate(-0.899942,-0.145991)" id="radialGradient-25">
            <stop stop-color="#171E26" stop-opacity="0.503962862" offset="0%"></stop>
            <stop stop-color="#303D4D" stop-opacity="0" offset="100%"></stop>
        </radialGradient>
        <radialGradient cx="0%" cy="25.7642935%" fx="0%" fy="25.7642935%" r="49.6312062%" gradientTransform="translate(0.000000,0.257643),scale(1.000000,0.624113),rotate(26.317572),scale(1.000000,1.968817),translate(-0.000000,-0.257643)" id="radialGradient-26">
            <stop stop-color="#9AD7F5" offset="0%"></stop>
            <stop stop-color="#A79AF5" stop-opacity="0" offset="100%"></stop>
        </radialGradient>
        <path d="M227.636875,312.711086 C228.229169,311.475402 228.824848,310.230648 229.174133,308.906005 C229.398383,308.055296 229.523997,307.164449 229.934203,306.385815 C230.227014,305.830254 230.660429,305.349276 231.183002,305 C231.262296,305.101213 231.296239,305.236485 231.274094,305.362977 C237.285615,308.18063 243.122204,311.751832 247.600336,316.64594 C248.187118,317.287276 248.769839,317.964119 249.065744,318.780769 C249.913233,321.120049 248.181606,323.775221 248.912086,326.153482 C249.178111,327.019725 249.747294,327.754169 250.266869,328.4972 C253.052247,332.480972 254.641723,337.197741 255.508455,341.977515 C256.375187,346.757288 256.550507,351.63152 256.723795,356.48578 C257.181191,369.296681 257.260003,382.273536 255.444923,394.963927 C253.629843,407.654415 249.88693,420.188596 243.307483,431.199086 C240.614357,435.706096 237.210285,439.955009 234.931813,444.686057 C234.573826,444.974644 234.275213,445.214602 234.275213,445.214602 C233.143616,446.123685 231.534607,446.076021 230.093567,445.891349 C223.660235,445.066594 217.605102,442.435929 211.814736,439.519861 C202.992404,435.076917 194.490056,429.862478 187.176358,423.231253 C179.862563,416.599931 173.753277,408.48737 170.31681,399.242461 C169.500265,397.045785 168.82858,394.724548 169.039001,392.39096 C169.48547,387.442145 173.331273,383.573287 175.892209,379.311734 C175.748704,378.313307 175.363544,377.280338 175.238993,376.279402 C174.953531,373.984022 174.735083,371.561958 175.655388,369.439093 C176.061339,368.502802 176.671523,367.67139 177.276582,366.849048 C182.085238,360.312378 186.893991,353.775805 191.702647,347.239327 C196.689039,340.461155 199.502074,332.354866 203.180295,324.790051 C203.653937,323.815938 204.238398,322.739647 205.282383,322.444306 C212.33818,320.448127 219.038213,317.742493 225.150883,313.69919 C225.358114,313.562181 225.374728,313.256415 225.514576,313.112754 C225.972423,312.642421 226.679857,312.508532 227.636875,312.711086 Z" id="path-27"></path>
        <linearGradient x1="50%" y1="100%" x2="50%" y2="2.93081647%" id="linearGradient-28">
            <stop stop-color="#5E8A99" offset="0%"></stop>
            <stop stop-color="#5E8493" stop-opacity="0" offset="100%"></stop>
        </linearGradient>
        <path d="M248.521143,325.620784 C248.262882,325.432303 248.074321,325.183451 248.198481,325.043095 C247.336361,323.715377 246.339158,322.477394 245.227524,321.355193 C245.118966,321.245635 244.916532,320.873962 244.858653,321.017709 C242.970343,325.708486 243.659869,331.362969 240.853265,335.557767 C240.738359,335.729382 240.60735,335.906264 240.415905,335.980388 C240.224554,336.054416 239.975703,335.907605 239.87226,335.728712 C239.014213,334.245085 238.410322,332.628821 237.741068,331.049044 C235.233425,325.130243 231.784754,319.675722 228.352376,314.251942 C228.00027,313.695569 227.537067,313.070577 227,312.562948 C227.23616,312.563485 227.494079,312.593743 227.773758,312.653721 C228.353968,311.427229 228.937493,310.191736 229.279651,308.876947 C229.499325,308.032567 229.622377,307.148347 230.024214,306.375505 C230.31105,305.824077 230.735622,305.346678 231.247532,305 C231.325209,305.10046 231.358459,305.234726 231.336766,305.360276 C237.225633,308.156968 242.943137,311.701602 247.3299,316.559302 C247.904711,317.195867 248.475542,317.867674 248.76541,318.678248 C249.551865,320.877789 248.071049,323.358702 248.521143,325.620784 Z" id="path-29"></path>
        <path d="M249.945099,328 C250.101552,328.231439 250.263618,328.459541 250.421025,328.688462 C253.142632,332.64705 254.695717,337.334001 255.542605,342.083558 C256.389493,346.833116 256.560798,351.676535 256.730119,356.500108 C256.945861,362.645168 257.075403,368.828655 256.952196,375 C252.884406,365.286652 248.450042,355.731449 243.661946,346.362302 C243.219557,345.496549 242.773767,344.631852 242.278182,343.796396 C241.671763,342.77408 240.535367,341.812548 241.204336,340.831266 C242.102152,339.514326 243.673001,338.891329 245.121016,338.254335 C246.124091,337.813022 247.110347,337.33192 248.076478,336.812661 C249.170828,336.224563 250.32102,335.490831 250.725425,334.30313 C250.96202,333.608131 250.906367,332.850334 250.847691,332.117369 C250.745834,330.844147 250.610434,329.483392 249.808522,328.498658 C249.790419,328.317224 249.844199,328.1483 249.945099,328 Z" id="path-30"></path>
        <radialGradient cx="53.9827926%" cy="60.0964674%" fx="53.9827926%" fy="60.0964674%" r="49.7341419%" gradientTransform="translate(0.539828,0.600965),scale(1.000000,0.800000),rotate(-93.045751),scale(1.000000,0.487784),translate(-0.539828,-0.600965)" id="radialGradient-31">
            <stop stop-color="#232E3B" offset="0%"></stop>
            <stop stop-color="#2E3B4B" offset="100%"></stop>
        </radialGradient>
        <radialGradient cx="89.9941687%" cy="14.5991198%" fx="89.9941687%" fy="14.5991198%" r="39.2780903%" gradientTransform="translate(0.899942,0.145991),scale(1.000000,0.800000),rotate(88.131225),scale(1.000000,0.553404),translate(-0.899942,-0.145991)" id="radialGradient-32">
            <stop stop-color="#171E26" stop-opacity="0.503962862" offset="0%"></stop>
            <stop stop-color="#303D4D" stop-opacity="0" offset="100%"></stop>
        </radialGradient>
        <radialGradient cx="0%" cy="25.7642935%" fx="0%" fy="25.7642935%" r="47.684%" gradientTransform="translate(0.000000,0.257643),scale(1.000000,0.800000),rotate(21.099999),scale(1.000000,1.968817),translate(-0.000000,-0.257643)" id="radialGradient-33">
            <stop stop-color="#9AD7F5" offset="0%"></stop>
            <stop stop-color="#A79AF5" stop-opacity="0" offset="100%"></stop>
        </radialGradient>
        <path d="M172.375952,403.943698 C172.083575,403.378973 171.801489,402.809209 171.530107,402.234502 C171.755101,402.589073 172.047186,402.816796 172.434458,402.938933 C173.103782,403.150026 173.639816,402.847274 174.575369,401.871327 C174.880884,401.54903 175.037371,401.385908 175.193902,401.234214 C177.800999,398.707586 179.485606,396.614111 180.592594,394.277259 C180.855599,393.722059 180.976553,393.34991 180.987528,392.98397 C181.015177,392.068513 180.400929,391.27463 179.009009,390.147003 C178.85858,390.02517 178.79327,389.98725 178.763978,389.985087 C178.729113,389.982517 178.635119,390.035214 178.481997,390.178222 C177.894387,390.727248 177.487615,391.266174 176.675753,392.486532 L176.638841,392.542021 C176.436087,392.846812 176.334612,392.998078 176.213287,393.174783 C174.899059,395.08879 173.327476,396.835855 171.550858,398.357823 C171.507247,398.395164 171.507247,398.395164 171.46455,398.431842 C171.123483,398.725486 170.973932,398.896062 170.905485,399.088804 C170.843468,399.263307 170.84404,399.452619 170.895078,399.87961 C170.979971,400.590667 171.088496,401.164102 171.243671,401.617331 C170.811252,400.669117 170.408014,399.707701 170.035784,398.733506 C170.023824,398.702207 170.011896,398.670882 170,398.639531 C170.146875,398.304408 170.379913,398.051285 170.794492,397.69435 C170.839188,397.655955 170.839188,397.655955 170.882657,397.618736 C172.593436,396.153171 174.106964,394.470641 175.372413,392.627676 C175.490165,392.456176 175.589726,392.307762 175.789888,392.006868 L175.826816,391.951355 C176.680597,390.667985 177.119297,390.086758 177.781709,389.467842 C178.126566,389.145764 178.434016,388.973395 178.840407,389.003347 C179.15115,389.026293 179.347096,389.140062 179.655933,389.39019 C181.277195,390.703612 182.038527,391.687594 181.998502,393.012802 C181.982585,393.543547 181.82665,394.023325 181.511052,394.689547 C180.344064,397.153061 178.592281,399.330015 175.907478,401.931951 C175.766175,402.068887 175.624319,402.216759 175.314828,402.543039 C174.215114,403.690237 173.424711,404.175111 172.375952,403.943698 Z" id="path-34"></path>
        <linearGradient x1="0%" y1="19.9628293%" x2="41.3313118%" y2="26.6265783%" id="linearGradient-35">
            <stop stop-color="#9993D9" stop-opacity="0.144333107" offset="0%"></stop>
            <stop stop-color="#324052" stop-opacity="0" offset="100%"></stop>
        </linearGradient>
        <path d="M203.638317,324.410845 C205.765691,323.146339 208.367685,323.037518 210.845599,323.006828 C213.127416,322.978461 215.477357,322.99976 217.588479,323.861901 C218.882809,324.39061 220.035348,325.217607 221.07996,326.143743 C226.337085,330.80492 228.860835,337.875736 229.663612,344.835698 C230.466292,351.795756 229.753924,358.827555 229.615537,365.831858 C229.477248,372.836161 229.965201,380.053942 232.972233,386.388864 C234.080881,388.724245 235.490048,391.297017 237.317,393.131959 C245.802458,401.654425 256.442831,408.036883 267.979796,411.524464 C268.613921,412.796521 269.30303,414.134026 269.624277,415.517614 C269.961095,416.968587 270.118264,418.477455 269.898033,419.950404 C269.677802,421.423353 269.060027,422.862417 268.005098,423.918867 C267.57904,424.345532 267.01294,424.726404 266.41531,424.636269 C265.688538,425.057997 265.470643,425.046669 264.637308,424.930878 C261.132202,424.443509 257.701544,423.537511 254.281007,422.633643 C247.954356,420.961834 241.627511,419.289833 235.300861,417.618024 C231.306537,416.562446 227.309195,415.505997 223.387665,414.208283 C219.201624,412.822952 215.107159,411.163729 211.139499,409.245042 C207.511091,407.49036 205.180517,403.727339 203.14287,400.263381 C194.346481,385.309663 191.800542,366.899054 195.925857,350.066052 C197.530243,343.519686 198.20203,336.433767 200.504966,330.097006 C201.240593,328.072887 201.781098,325.514831 203.638317,324.410845 Z" id="path-36"></path>
        <linearGradient x1="15.2836597%" y1="49.1874203%" x2="100%" y2="50%" id="linearGradient-37">
            <stop stop-color="#95C2F0" offset="0%"></stop>
            <stop stop-color="#A6F7EE" stop-opacity="0" offset="100%"></stop>
        </linearGradient>
        <linearGradient x1="97.827854%" y1="50%" x2="-2.22044605e-14%" y2="50%" id="linearGradient-38">
            <stop stop-color="#88CB99" offset="0%"></stop>
            <stop stop-color="#72BCA2" offset="100%"></stop>
        </linearGradient>
        <linearGradient x1="87.9240247%" y1="19.0683358%" x2="1.10291189%" y2="49.3991314%" id="linearGradient-39">
            <stop stop-color="#91D0DB" offset="0%"></stop>
            <stop stop-color="#85AFE6" offset="100%"></stop>
        </linearGradient>
        <linearGradient x1="1.51988775%" y1="49.5309732%" x2="103.432811%" y2="18.0813563%" id="linearGradient-40">
            <stop stop-color="#9AA7AD" offset="0%"></stop>
            <stop stop-color="#667EB3" offset="100%"></stop>
        </linearGradient>
        <linearGradient x1="-1.11022302e-14%" y1="50%" x2="97.827854%" y2="50%" id="linearGradient-41">
            <stop stop-color="#88CB99" offset="0%"></stop>
            <stop stop-color="#72BCA2" offset="100%"></stop>
        </linearGradient>
        <linearGradient x1="100%" y1="50%" x2="0%" y2="50%" id="linearGradient-42">
            <stop stop-color="#B3A9CF" offset="0%"></stop>
            <stop stop-color="#A98CC0" offset="100%"></stop>
        </linearGradient>
        <linearGradient x1="1.51988775%" y1="49.5309732%" x2="100.537976%" y2="18.9746823%" id="linearGradient-43">
            <stop stop-color="#8DA1AC" offset="0%"></stop>
            <stop stop-color="#97A4C0" offset="100%"></stop>
        </linearGradient>
        <linearGradient x1="100%" y1="50%" x2="0.776734104%" y2="50%" id="linearGradient-44">
            <stop stop-color="#AC76D6" stop-opacity="0.49" offset="0%"></stop>
            <stop stop-color="#CD6BC4" stop-opacity="0.49" offset="100%"></stop>
        </linearGradient>
        <linearGradient x1="-1.11022302e-14%" y1="50%" x2="122.728045%" y2="-16.8624783%" id="linearGradient-45">
            <stop stop-color="#8EC8D1" stop-opacity="0.84" offset="0%"></stop>
            <stop stop-color="#7EA6DA" offset="100%"></stop>
        </linearGradient>
        <linearGradient x1="100%" y1="50%" x2="0%" y2="50%" id="linearGradient-46">
            <stop stop-color="#AF9FB3" offset="0%"></stop>
            <stop stop-color="#9A89D4" stop-opacity="0.549054574" offset="100%"></stop>
        </linearGradient>
    </defs>
    <g id="Artboard" stroke="none" stroke-width="1" fill="none" fill-rule="evenodd">
        <path d="M46.0181483,254.561729 C54.9184989,242.48613 64.4136069,230.421265 76.0153681,219.915298 C105.006864,193.662069 147.779804,174.160488 190.796906,169.023556 C216.856799,165.911586 243.167107,168.303672 268.585133,173.358531 C291.790648,177.97339 314.832156,183.067121 337.527399,189.170011 C365.669532,196.737605 355.934196,194.828748 388.239895,204.080457 C403.002278,208.30811 419.016273,211.752969 434.213629,214.439013 C455.929696,218.2772 478.984184,221.630526 501.306026,221.00655 C515.631426,220.606104 527.263306,218.496849 540.552592,214.872844 C554.480239,211.074757 568.373445,204.838624 581.009315,198.927877 C584.727866,197.188431 592.972938,192.940233 597.28735,190.284624 C615.125677,179.304768 627.188951,171.390053 636.700975,154.603673 C639.639939,149.417125 642.622997,144.240255 645.208744,138.929016 C650.66371,127.724277 655.56128,116.342722 660.81447,105.073493 C663.430804,99.4608893 666.111977,93.8685583 668.816988,88.2842238 C679.711697,65.7927419 697.542964,38.9337226 727.739807,31.0118251 C729.096153,30.6559987 1055.89965,38.3132201 1057.55197,56.3263479 C1067.66929,166.622002 1099.08832,551.45643 1017.5591,718.598855 C997.066542,760.6105 758.815828,814.083975 757.468325,816.516533 C756.76411,817.787806 750.596015,827.633696 748.096796,830.222308 C738.687593,839.968064 738.109772,840.707819 727.84896,846.908552 C723.030836,849.820203 714.962665,853.67839 709.422097,854.507468 C698.191781,856.187947 691.671163,857.074253 680.686551,853.704894 C652.453899,845.044969 635.782488,815.683682 625.596438,791.096825 C623.067379,784.992237 620.560606,778.878908 618.114454,772.743417 C613.202964,760.424312 608.623962,747.982417 603.523821,735.73381 C601.106267,729.92776 598.317246,724.268597 595.569451,718.598855 C586.676147,700.248605 575.397544,691.596531 558.719533,679.593758 C554.685756,676.690744 546.976996,672.046771 543.500323,670.145273 C531.686368,663.683863 518.696862,656.866753 505.675156,652.714825 C493.250288,648.753197 482.375018,646.447437 468.98143,646.009684 C448.11154,645.327577 426.55666,648.993308 406.253141,653.189073 C392.044315,656.125357 377.07197,659.891149 363.269824,664.512663 C333.065488,674.626289 342.167578,672.539598 315.855983,680.812211 C294.636981,687.483666 273.094236,693.051944 251.398151,698.096737 C227.633472,703.622522 203.03455,706.237462 178.669755,702.835572 C138.450752,697.220067 98.4600302,675.90166 71.3543214,647.202601 C60.5072108,635.717866 51.6297237,622.529001 43.3083072,609.328403 C40.0307065,604.129013 24.2730482,579.18306 17.1062681,547.040271 C7.15814945,502.423263 5.77993773,445.24701 6.02538357,419.444607 C6.1621684,405.065151 8.31706633,361.267356 17.1062681,325.476858 C26.1023947,288.843742 41.7835733,260.307011 46.0181483,254.561729 Z" id="bubble2" fill="url(#linearGradient-1)" opacity="0.160435268"></path>
        <path d="M46.0181483,230.561729 C54.9184989,218.48613 64.4136069,206.421265 76.0153681,195.915298 C105.006864,169.662069 147.779804,150.160488 190.796906,145.023556 C216.856799,141.911586 243.167107,144.303672 268.585133,149.358531 C291.790648,153.97339 314.832156,159.067121 337.527399,165.170011 C365.669532,172.737605 355.934196,170.828748 388.239895,180.080457 C403.002278,184.30811 419.016273,187.752969 434.213629,190.439013 C455.929696,194.2772 478.984184,197.630526 501.306026,197.00655 C515.631426,196.606104 527.263306,194.496849 540.552592,190.872844 C554.480239,187.074757 568.373445,180.838624 581.009315,174.927877 C584.727866,173.188431 592.972938,168.940233 597.28735,166.284624 C615.125677,155.304768 627.188951,147.390053 636.700975,130.603673 C639.639939,125.417125 642.622997,120.240255 645.208744,114.929016 C650.66371,103.724277 655.56128,92.3427217 660.81447,81.073493 C663.430804,75.4608893 666.111977,69.8685583 668.816988,64.2842238 C679.711697,41.7927419 697.542964,14.9337226 727.739807,7.01182506 C729.096153,6.65599871 1055.89965,14.3132201 1057.55197,32.3263479 C1067.66929,142.622002 1099.08832,527.45643 1017.5591,694.598855 C997.066542,736.6105 758.815828,790.083975 757.468325,792.516533 C756.76411,793.787806 750.596015,803.633696 748.096796,806.222308 C738.687593,815.968064 738.109772,816.707819 727.84896,822.908552 C723.030836,825.820203 714.962665,829.67839 709.422097,830.507468 C698.191781,832.187947 691.671163,833.074253 680.686551,829.704894 C652.453899,821.044969 635.782488,791.683682 625.596438,767.096825 C623.067379,760.992237 620.560606,754.878908 618.114454,748.743417 C613.202964,736.424312 608.623962,723.982417 603.523821,711.73381 C601.106267,705.92776 598.317246,700.268597 595.569451,694.598855 C586.676147,676.248605 575.397544,667.596531 558.719533,655.593758 C554.685756,652.690744 546.976996,648.046771 543.500323,646.145273 C531.686368,639.683863 518.696862,632.866753 505.675156,628.714825 C493.250288,624.753197 482.375018,622.447437 468.98143,622.009684 C448.11154,621.327577 426.55666,624.993308 406.253141,629.189073 C392.044315,632.125357 377.07197,635.891149 363.269824,640.512663 C333.065488,650.626289 342.167578,648.539598 315.855983,656.812211 C294.636981,663.483666 273.094236,669.051944 251.398151,674.096737 C227.633472,679.622522 203.03455,682.237462 178.669755,678.835572 C138.450752,673.220067 98.4600302,651.90166 71.3543214,623.202601 C60.5072108,611.717866 51.6297237,598.529001 43.3083072,585.328403 C40.0307065,580.129013 24.2730482,555.18306 17.1062681,523.040271 C7.15814945,478.423263 5.77993773,421.24701 6.02538357,395.444607 C6.1621684,381.065151 8.31706633,337.267356 17.1062681,301.476858 C26.1023947,264.843742 41.7835733,236.307011 46.0181483,230.561729 Z" id="bubble1" fill="url(#linearGradient-1)" opacity="0.256696429"></path>
        <g id="phone5">
            <use fill="#676C9F" xlink:href="#path-3"></use>
            <use fill="url(#linearGradient-2)" xlink:href="#path-3"></use>
        </g>
        <path d="M119,595.639814 C110.774183,597.913377 102.404561,599.290142 93.4050623,598.948114 C88.6168634,598.766117 83.1896567,597.792909 80.635553,593.762782 C79.1515096,591.42099 78.9765923,588.516784 78.8489376,585.751881 C77.3959131,554.273521 76.5885957,522.768157 76.2104955,491.259691 C75.2752481,413.317232 77.8086114,335.392014 76.9829396,257.481484 C76.9421929,253.640743 76.9613732,249.57148 78.9682411,246.28923 C82.6743575,240.228212 91.1788595,239.562986 98.2863179,240.188802 C105.052785,240.784583 111.738795,241.920438 118.368916,243.371241 C117.017155,243.635921 115.667812,243.912792 114.321108,244.201815 C111.630264,244.77928 108.907484,245.421335 106.511595,246.768937 C102.702694,248.911217 100.031489,252.700414 98.5211989,256.783452 C97.010817,260.866491 96.5587486,265.256599 96.3465719,269.601824 C92.544921,347.450229 91.2873706,425.432098 92.4842597,503.351934 L93.549915,572.733942 C93.596994,575.801079 93.6546268,578.929977 94.6691651,581.826884 C96.4467869,586.902653 101.000141,590.632735 105.989596,592.703037 C110.05246,594.388887 114.669343,594.765611 119,595.639814 Z" id="phone4" fill-opacity="0.1" fill="#7CA0D8"></path>
        <path d="M128.995679,401.365882 C131.058356,392.73225 131.058356,367.177776 159.417323,361.608714 C183.564727,356.866709 177.595429,381.17239 185.530529,388.071545 C194.053677,395.481978 193.130484,511.022206 188.638384,526.760008 C186.723382,533.469102 183.835917,553.545284 163.635414,556.73826 C149.522903,558.968943 133.462029,546.541247 127.971762,534.690649 C120.777337,519.16167 120.91337,460.670793 117.515229,444.30448 C114.117088,427.938167 128.626388,402.911603 128.995679,401.365882 Z" id="phone3" fill-opacity="0.427366395" fill="#B4C4FF" fill-rule="nonzero"></path>
        <g id="phone2" fill-rule="nonzero">
            <use fill="url(#radialGradient-4)" xlink:href="#path-6"></use>
            <use fill-opacity="0.77" fill="url(#linearGradient-5)" xlink:href="#path-6"></use>
        </g>
        <path d="M164,291.282856 L167.289836,291.972332 C174.696741,293.524654 180,300.041568 180,307.591228 L180,312.499853 C180,321.060348 173.042917,328 164.460919,328 C164.307254,328 164.153597,327.997726 164,327.99318 L163.525409,327.979132 C154.877462,327.723147 148,320.656319 148,312.026243 L148,304.237986 C148,296.926848 153.941735,291 161.271238,291 C162.188179,291 163.102651,291.094792 164,291.282856 Z M168.918012,302.630288 L162.908854,313.950345 L159.688552,309.61624 C159.14978,308.891123 158.172766,308.778519 157.50633,309.364732 C156.839895,309.950945 156.736403,311.013988 157.275176,311.739106 L161.915858,317.984857 C162.60046,318.906243 163.921585,318.793827 164.466219,317.767845 L171.605357,304.319129 C172.033976,303.511696 171.779858,302.479082 171.037768,302.012721 C170.295678,301.54636 169.346631,301.822855 168.918012,302.630288 Z" id="phone1" fill="#DCE6FF" opacity="0.710146949"></path>
        <path d="M360.617982,594.240236 C403.825716,594.240236 857.666473,631.539638 706.172438,587.549801 C554.678403,543.559963 465.583489,564.456448 413.348599,568.450951 C361.113708,572.445455 254,569.775123 254,580.287565 C254,593.568941 317.410247,594.240236 360.617982,594.240236 Z" id="lady27" fill="url(#linearGradient-7)" opacity="0.309430804" filter="url(#filter-8)"></path>
        <path d="M246.439188,578.728678 C244.786368,578.496086 244.245023,576.379472 244.142262,574.695147 C243.866792,570.183722 243.991621,565.647456 244.51464,561.15864 C244.741944,559.208634 245.094269,557.15325 246.367418,555.670853 C247.580695,554.258128 249.422823,553.606833 251.177445,553.013078 C253.085873,552.367314 254.994398,551.721452 256.902826,551.07559 C258.417767,550.56286 259.960342,550.045084 261.55732,550.002486 C263.154297,549.959888 264.843098,550.462429 265.881556,551.690207 C266.797774,552.773306 266.942849,554.634719 266.901207,556.059477 C266.859469,557.484234 266.513285,558.879105 266.211429,560.271356 C265.59793,563.100397 265.16069,565.96864 264.903258,568.853282 C264.853365,569.411619 264.827458,570.031378 265.173931,570.469004 C269.338603,571.773632 273.316943,573.032655 277.481616,574.337187 C278.770309,574.740851 280.073106,575.150821 281.231404,575.850343 C282.389702,576.549865 283.407531,577.578334 283.830091,578.874035 C284.167832,579.909587 284.029089,581.205774 283.168905,581.863377 C280.447404,583.9437 276.439608,584.263429 273.054618,583.834342 C271.585349,583.648133 270.115983,583.461827 268.646714,583.275617 C267.179172,583.089602 265.71163,582.903587 264.244088,582.717572 C260.686101,582.266556 257.128211,581.815539 253.570225,581.36462 C250.8848,581.024223 248.056891,580.922919 246.439188,578.728678 Z" id="lady26" fill="#AA816E"></path>
        <g id="lady25">
            <use fill="#6DAD84" xlink:href="#path-10"></use>
            <use fill="url(#linearGradient-9)" xlink:href="#path-10"></use>
        </g>
        <g id="lady24">
            <use fill="url(#radialGradient-11)" xlink:href="#path-13"></use>
            <use fill="url(#radialGradient-12)" xlink:href="#path-13"></use>
        </g>
        <g id="lady23">
            <use fill="url(#linearGradient-14)" xlink:href="#path-16"></use>
            <use fill="url(#radialGradient-15)" xlink:href="#path-16"></use>
        </g>
        <path d="M251.150335,318.349481 C251.179562,318.349481 251.088442,318.358126 251.117669,318.358126 C250.617266,321.930668 251.777862,325.536628 253.368978,328.801323 C254.960095,332.066018 256.992453,335.128655 258.410229,338.466207 C258.71403,339.181376 259.194005,340.044009 259.996693,339.998254 C260.881501,339.436086 261.085081,338.292709 261.197135,337.279408 C261.72353,332.518803 261.991632,327.731969 261.999925,322.94465 C262.000835,322.443974 261.996486,321.930474 261.810807,321.462632 C261.458158,320.574354 260.541494,320.035597 259.703207,319.530257 C257.669332,318.304018 255.754996,316.894857 253.993572,315.327255 C253.78615,315.142683 253.524014,314.941208 253.25217,315.016008 C253.120395,315.05234 253.017139,315.148609 252.92258,315.243809 C252.481743,315.687851 251.76077,316.03407 251.390727,316.534164 C250.960509,317.115858 251.165909,317.63606 251.150335,318.349481 Z" id="lady22" fill="#2E3B4B"></path>
        <path d="M262,323.716038 C261.966522,328.224808 261.703877,332.731923 261.213333,337.215648 C261.147843,337.81419 261.05059,338.458355 260.800048,339 C258.412056,336.889772 256.539013,333.842027 256.049442,330.718288 C255.624113,328.005225 258.028073,325.144893 259.993765,323.432559 C260.229174,323.227504 260.49554,323.020613 260.811077,323.00148 C261.213513,322.976935 261.560007,323.261905 261.837621,323.545716 C261.89254,323.601862 261.946662,323.658644 262,323.716038 Z" id="lady21" fill="url(#linearGradient-17)" opacity="0.630278088"></path>
        <path d="M257.41845,330.993172 C256.778071,329.315315 255.780604,327.805816 254.874112,326.258054 C253.96762,324.710194 253.133198,323.072635 252.873419,321.293842 C252.258087,317.079681 256.507256,312.842176 259.149767,310.062539 C263.477915,310.127925 267.859707,310.372421 271.929228,308.88307 C273.491453,308.311353 275.149548,307.300629 275.439844,305.648927 C275.657686,304.409399 274.400728,301.498021 275.686956,300.524301 C276.070818,300.233696 276.454681,299.555617 276.454681,298.586934 C276.454681,296.832551 276.579437,296.028738 275.649433,294.299347 C276.017653,293.940741 276.525216,293.712519 276.99017,293.497084 C278.334745,292.873833 278.753731,291.388647 278.973588,289.951024 C279.018692,289.656448 279.026753,289.31954 278.826089,289.100714 C278.26872,288.493156 277.483241,288.394253 276.809466,287.993025 C276.075137,287.555664 275.161928,286.848719 274.631333,286.187786 C274.005925,285.408771 273.333302,284.523782 273.227739,283.493006 C273.187818,283.103305 273.2025,282.675243 273.33311,282.302688 C273.453834,281.958708 273.771961,281.876176 273.982701,281.619863 C274.353897,281.16865 274.128665,280.285308 274.084713,279.753307 C274.012547,278.880039 273.914854,278.008902 273.789618,277.141736 C273.544138,275.441116 273.193096,273.75551 272.724111,272.103129 C272.210503,270.293919 271.596611,268.476766 270.4979,266.956321 C268.975308,264.849144 266.62271,263.473032 264.16071,262.681618 C261.698711,261.890203 259.104759,261.631662 256.533166,261.377673 C252.29062,260.958717 247.86737,260.562235 243.886714,262.101764 C241.850802,262.889304 240.02208,264.157213 238.40026,265.628062 C234.202625,269.435085 231.322599,274.694842 230.362271,280.307975 C229.402038,285.921108 230.367645,291.851194 233.057371,296.858706 C234.496088,299.537212 236.450333,302.071772 236.836691,305.093484 C237.273431,308.50848 235.619079,311.802875 235.00557,315.190071 C234.151092,319.907656 235.336268,324.748361 236.804447,329.309406 C237.091096,330.199723 237.814198,331.007315 238.22234,331.847841 C238.858112,333.157501 239.814602,334.278171 240.797195,335.347404 C244.124229,338.967567 248.18636,342.330158 253.0404,342.944497 C253.850446,343.046984 254.738608,343.050955 255.402403,342.571263 C256.113029,342.057764 256.379717,341.131897 256.572992,340.271609 C257.246575,337.272275 258.513802,333.862896 257.41845,330.993172 Z" id="lady20" fill="#AA816E"></path>
        <path d="M255.616585,284.70327 C255.104828,284.114929 254.583473,283.542262 253.981131,283.17037 C253.831263,283.079208 253.675655,282.99737 253.522558,282.933189 C253.36704,282.870397 253.206947,282.824072 253.045779,282.79461 C252.884879,282.764256 252.722814,282.749475 252.563708,282.756419 C252.404781,282.761181 252.248725,282.783599 252.100561,282.826353 C251.952128,282.867223 251.812843,282.930908 251.686114,283.012448 C251.559475,283.093195 251.441984,283.190111 251.339113,283.309842 C251.130948,283.544841 250.969779,283.851361 250.856055,284.191708 C250.741075,284.53265 250.667083,284.901367 250.640805,285.284369 C250.618472,285.474927 250.620894,285.667271 250.615961,285.859814 C250.613001,285.956135 250.622867,286.052356 250.625468,286.148875 C250.63058,286.245196 250.631029,286.342211 250.644213,286.438135 L250.676859,286.726602 C250.687891,286.822923 250.708698,286.917656 250.724035,287.013382 C250.752197,287.205726 250.803498,287.392812 250.84601,287.582379 C250.948702,287.956155 251.064579,288.328543 251.218303,288.684265 C251.508353,289.404836 251.903158,290.076105 252.356888,290.694403 C252.58613,291.001023 252.829721,291.29931 253.089815,291.574186 C253.351614,291.846781 253.633592,292.096362 253.936915,292.308843 C254.23997,292.521126 254.568765,292.688274 254.914869,292.788959 C255.260615,292.889545 255.627527,292.90383 255.981614,292.81981 L256,292.896489 C255.641249,293.013046 255.253619,293.030009 254.882313,292.95323 C254.511544,292.873178 254.155215,292.720017 253.825344,292.520035 C253.495293,292.319556 253.186409,292.079399 252.897435,291.814046 C252.609986,291.546113 252.342986,291.257647 252.086121,290.954698 C251.583242,290.340169 251.134984,289.662154 250.789327,288.915197 C250.611118,288.544992 250.470488,288.152765 250.344028,287.754784 C250.289498,287.552322 250.226627,287.35224 250.187164,287.144422 C250.166178,287.040959 250.139989,286.938686 250.123397,286.834033 L250.074965,286.519477 C250.055503,286.415022 250.048956,286.308385 250.037924,286.202343 C250.029404,286.096102 250.013888,285.990159 250.011287,285.883224 C250.005188,285.669255 249.992542,285.45479 250.005906,285.240028 C250.011825,284.811197 250.066624,284.371355 250.183039,283.94054 C250.302144,283.511908 250.497663,283.083573 250.803408,282.7341 C250.955967,282.561496 251.134087,282.409525 251.329516,282.295052 C251.524766,282.181371 251.732572,282.099732 251.942979,282.052117 C252.788913,281.873065 253.637269,282.171154 254.259163,282.704539 C254.574953,282.965131 254.839801,283.279289 255.072809,283.608625 C255.302948,283.94173 255.502144,284.291997 255.674703,284.656746 L255.616585,284.70327 Z" id="lady19" fill="#7D5F51"></path>
        <g id="lady18">
            <use fill="#DDB059" xlink:href="#path-19"></use>
            <use fill-opacity="0.56" fill="url(#linearGradient-18)" xlink:href="#path-19"></use>
        </g>
        <g id="lady17">
            <use fill="#DDB059" xlink:href="#path-21"></use>
            <use fill-opacity="0.56" fill="url(#linearGradient-20)" xlink:href="#path-21"></use>
        </g>
        <path d="M270.077932,297 C270.127541,297.46818 270.367889,297.875573 270.660853,298.195194 C270.956734,298.517768 271.308945,298.766521 271.669556,298.988189 C272.029283,299.213115 272.407226,299.399756 272.797108,299.545057 C272.991915,299.61786 273.189995,299.679666 273.389932,299.731596 C273.5881,299.785052 273.792193,299.826291 273.990892,299.78322 L274,299.833113 C273.952514,299.869973 273.899811,299.895428 273.845427,299.919764 C273.790867,299.941147 273.734449,299.956624 273.677501,299.969351 C273.563517,299.9944 273.44971,299.995622 273.339528,300 C273.12279,299.995723 272.904283,299.978923 272.690374,299.933001 C272.262292,299.843397 271.846059,299.67376 271.461042,299.436921 C271.365185,299.376846 271.270921,299.313206 271.178248,299.246818 C271.086989,299.17768 270.996881,299.108645 270.907038,299.030139 C270.729562,298.873434 270.560929,298.69555 270.415287,298.489563 C270.267877,298.285816 270.150444,298.044904 270.07077,297.791569 C269.999585,297.533652 269.972968,297.255473 270.033895,297.004989 L270.077932,297 Z" id="lady16" fill="#2E3B4B"></path>
        <path d="M267.505499,282.795874 C267.50561,282.908521 267.392539,282.999911 267.25295,283 C267.113361,283.000089 267.000112,282.908843 267.000001,282.796197 C266.999339,282.119289 267.258592,281.549625 267.828767,281.25967 C268.009111,281.167992 268.163421,281.122078 268.498615,281.043243 C268.630393,281.012233 268.697157,281.000517 268.792394,281.000009 C268.963328,280.999234 269.120604,281.048202 269.283173,281.134111 C269.617365,281.31049 269.870804,281.582015 269.988675,281.889958 C270.029872,281.997587 269.955149,282.111788 269.821777,282.145033 C269.688405,282.178279 269.546889,282.117979 269.505692,282.01035 C269.422581,281.793216 269.242106,281.599861 269.006367,281.475445 C268.919242,281.429403 268.849489,281.407686 268.795485,281.40793 C268.762897,281.408104 268.727249,281.41436 268.640093,281.43487 C268.349852,281.503132 268.225399,281.540163 268.098233,281.604807 C267.705216,281.80467 267.50496,282.244698 267.505499,282.795874 Z" id="lady15" fill="#2E3B4B" fill-rule="nonzero"></path>
        <path d="M269.235297,283.911298 C269.342248,284.365364 269.637236,284.854662 270.19593,284.980132 C270.315303,285.006916 270.452294,285.012938 270.555292,284.957842 C270.630168,284.917667 270.675568,284.851426 270.712724,284.785815 C270.929561,284.402753 270.956101,283.971157 270.979253,283.551335 C271.019458,282.822332 271.047353,282.050007 270.599224,281.413399 C270.543546,281.334395 270.479851,281.25728 270.393116,281.198499 C270.273291,281.117429 270.118569,281.077253 269.965992,281.046335 C269.762143,281.004991 269.544629,280.977039 269.343377,281.025933 C268.740751,281.172614 269.111294,281.904404 269.127218,282.266434 C269.151273,282.815411 269.107341,283.368073 269.235297,283.911298 Z" id="lady14" fill="#2E3B4B"></path>
        <path d="M267.04006,277.673524 C267.373291,277.349407 267.894096,277.191551 268.313401,277.387875 C268.853783,277.640983 269.030293,278.33846 269.484921,278.727874 C269.717182,278.926676 270.030729,279.038091 270.330764,278.988094 C270.630906,278.938205 270.905512,278.711927 270.9785,278.412916 C271.047763,278.129098 270.937857,277.83429 270.816991,277.56879 C270.696445,277.304259 270.55994,277.041669 270.358746,276.833385 C270.111377,276.577151 269.783147,276.420157 269.461726,276.270382 C269.206484,276.151424 268.944538,276.032036 268.664825,276.005636 C268.347234,275.975574 268.028367,276.068887 267.742057,276.211227 C267.052189,276.554092 266.526064,277.174634 266.165383,277.861766 C266.051434,278.078563 265.797468,278.938098 266.303484,278.805132 C266.577346,278.733154 266.818226,277.889243 267.04006,277.673524 Z" id="lady13" fill="#2E3B4B"></path>
        <path d="M239.906536,303.533837 C239.88765,303.68738 239.815836,303.809598 239.663347,303.871463 C239.289678,304.023061 238.896608,303.593082 238.498844,303.580243 C238.401231,303.577092 238.266047,303.572884 238.143967,303.58881 C238.06723,303.871162 238.064806,304.216228 238.031078,304.512249 C238.394567,305.508718 239.074743,306.967499 238.001367,307.656402 C236.727751,308.47382 236.932913,307.094918 235.547481,307.091388 C234.016919,307.087489 235.020608,308.454337 233.573181,307.842256 C232.950509,307.578944 231.370758,306.037475 232.120374,305.105925 C232.359173,304.809169 232.894103,304.840008 233.033077,304.473461 C233.068309,304.380536 233.099911,304.294339 233.128146,304.214373 C232.457303,304.446526 231.713958,304.525581 230.96388,304.52266 C230.927869,304.522465 230.891281,304.522368 230.856908,304.532959 C230.808862,304.547729 230.769385,304.581931 230.731449,304.615162 C230.447892,304.863907 230.222972,305.10692 229.85661,305.208847 C229.646133,305.267341 229.391461,305.269868 229.242028,305.109252 C229.163171,305.024523 229.117821,304.89879 229.010367,304.856717 C228.867,304.918126 228.795942,304.968361 228.692437,305.085738 C228.560142,305.235665 228.588161,305.462645 228.586813,305.663293 C228.583732,306.128039 228.37855,306.572574 228.097881,306.940931 C228.001308,307.067636 227.881627,307.195118 227.724876,307.217466 C227.500822,307.24924 227.312586,307.058794 227.167004,306.884089 C227.041642,306.733773 226.956527,306.721141 226.833379,306.568882 C226.924849,306.383975 226.666326,306.184687 226.471061,306.246873 C226.275797,306.308963 226.162181,306.508736 226.069652,306.69306 C225.996476,306.83881 225.919641,306.991361 225.786865,307.084834 C225.686537,307.155571 225.563582,307.185304 225.442552,307.203183 C224.976248,307.272074 224.497522,307.185596 224.054422,307.02362 C223.610744,306.861449 223.192677,306.622421 222.841528,306.304493 C222.576843,306.064881 222.352019,305.782613 222.159643,305.480815 C221.996152,305.2242 221.85577,304.953495 221.720105,304.680846 C221.227611,303.690723 220.786917,302.55864 221.111107,301.500209 C221.305216,300.866686 221.887158,300.282426 222.537751,300.375997 C222.412389,299.998992 222.288375,299.579234 222.447148,299.21525 C222.60438,298.85486 223.003286,298.657516 223.390252,298.607087 C224.384099,298.477564 225.512166,299.234974 225.68673,300.23083 C225.884979,299.811364 226.250667,299.475461 226.683176,299.315719 C226.797273,299.273647 226.920228,299.243136 227.039717,299.265387 C227.159205,299.287638 227.273495,299.374019 227.297373,299.494214 C227.433231,299.426878 227.459998,299.24848 227.494179,299.099719 C227.586226,298.698423 227.861214,298.343961 228.225073,298.157402 C228.588931,297.97094 229.097794,297.886114 229.473206,298.047798 C229.407925,297.531943 229.494678,296.997529 229.719405,296.529674 C229.814438,296.331941 229.934601,296.144702 230.089811,295.990596 C230.408801,295.674029 230.842465,295.537705 231.286047,295.59513 C231.52695,295.285947 231.552081,294.822853 231.345936,294.48899 C231.273145,294.371225 231.130837,294.260358 231.009037,294.324877 C230.919589,294.372197 230.895229,294.486756 230.868943,294.585088 C230.756002,295.008149 230.42074,295.36368 230.00768,295.498547 C229.849293,295.550239 229.682336,295.571033 229.51586,295.576377 C228.973105,295.59377 228.292568,295.505348 227.83204,295.214822 C228.001501,295.405656 228.032215,295.692976 227.962024,295.939098 C227.891833,296.185317 227.734408,296.396556 227.562155,296.584767 C227.469626,296.68582 227.371127,296.782792 227.256453,296.857318 C226.979539,297.037173 226.627909,297.070792 226.304008,297.010938 C225.980108,296.950987 225.678449,296.80514 225.388922,296.646856 C223.852899,295.806952 222.535248,294.564488 221.600905,293.074834 C221.476024,292.875741 221.355669,292.666445 221.316674,292.434217 C221.252837,292.054006 221.437125,291.643479 221.762374,291.441179 C222.087718,291.238879 222.5339,291.257341 222.841721,291.485779 C222.953314,291.568564 223.138565,291.564483 223.272978,291.598491 C222.805422,291.599366 222.427506,291.199527 222.225694,290.774036 C221.983828,290.263817 221.910459,289.66265 222.081171,289.123961 C222.251883,288.585369 222.6816,288.123538 223.221659,287.972736 C223.962566,287.765772 224.823926,288.230032 225.065407,288.966649 C225.349157,288.638227 225.372458,288.163959 225.520639,287.754695 C225.682974,287.306662 226.021414,286.915277 226.461722,286.741349 C226.901837,286.567422 227.439682,286.634272 227.793815,286.950256 C228.00487,286.651568 228.014595,286.256684 227.991487,285.890562 C227.968379,285.524537 227.922355,285.145103 228.04608,284.800164 C228.169805,284.455224 228.616661,284.169944 228.965884,284.271774 C228.719974,283.665749 228.110109,283.281262 227.815383,282.697779 C227.475692,282.025389 227.609335,281.219396 227.752509,280.478601 C227.778313,280.344706 227.804214,280.206536 227.776869,280.072933 C227.746443,279.924657 227.653914,279.798632 227.576694,279.668818 C227.318749,279.235263 227.186454,278.864671 227.26377,278.36514 C227.082371,278.208314 226.975302,277.976767 226.933226,277.739584 C226.891246,277.502305 226.909733,277.258126 226.946417,277.019972 C227.01372,276.58321 227.262904,276.057347 227.648137,275.847079 C227.606927,275.18596 227.479736,274.532615 227.439489,273.871497 C227.399338,273.210281 227.452295,272.52351 227.749524,271.932934 C228.046658,271.342358 228.626771,270.86537 229.282563,270.838746 C229.467044,270.831167 229.76023,270.83826 229.792389,270.654811 C229.921891,269.916931 229.919965,269.160978 230.039647,268.421446 C230.159232,267.681818 230.421607,266.929946 230.972545,266.4275 C231.36837,266.06643 231.898704,265.859369 232.432312,265.857426 C232.777395,265.856163 233.124403,265.978398 233.416337,265.792713 C233.807829,264.985554 234.344903,264.250589 234.993089,263.634555 C235.480769,263.17117 236.17315,263.090814 236.7834,262.88453 C237.919266,262.500723 238.60481,261.375636 239.35005,260.429335 C239.563128,260.158922 239.79575,259.891326 240.100201,259.733431 C240.426413,259.564362 240.803943,259.536767 241.157884,259.440184 C242.451946,259.087082 243.303291,257.872213 244.410561,257.109653 C245.441573,256.399563 246.701165,256.087951 247.947469,256.018574 C249.193869,255.949101 250.517393,256.085619 251.755706,256.244 C254.248988,255.901489 256.821801,256.054137 259.222072,256.816114 C261.622247,257.578091 263.826965,258.938126 265.484018,260.848996 C265.720011,260.646113 266.068657,260.656218 266.372241,260.719959 C267.415963,260.93936 268.335382,261.691912 268.763462,262.677372 C268.949676,263.106069 269.046827,263.583252 268.977694,264.046151 C268.908562,264.509051 268.660341,264.954363 268.26779,265.203692 C268.135784,265.287546 267.990684,265.348275 267.84308,265.398801 C267.42434,265.542219 266.979025,265.606348 266.537272,265.586915 C266.207402,265.572437 265.839693,265.450494 265.580014,265.656292 C265.473716,265.740535 265.417486,265.871612 265.338918,265.982576 C265.159444,266.236179 264.862118,266.381832 264.561326,266.452568 C263.946262,266.597055 263.035701,266.674302 262.736546,266.11307 C262.641802,265.935256 262.507004,265.775709 262.333981,265.674268 C262.161054,265.572923 261.947881,265.534057 261.756083,265.591579 C261.494189,265.670089 261.31279,265.906009 261.081611,266.052924 C260.861024,266.19294 260.599804,266.248811 260.344651,266.302252 C260.090653,266.355499 259.851964,266.350836 259.607402,266.26358 C259.291782,266.151062 259.008706,265.947304 258.800636,265.682721 C258.602194,265.430478 258.473943,265.12936 258.289559,264.866428 C258.105174,264.603496 257.837022,264.36816 257.518321,264.351447 C257.300719,264.339982 257.0913,264.431901 256.900176,264.537326 C256.656095,264.672096 256.426168,264.832128 256.178621,264.960291 C255.931171,265.088453 255.659938,265.18523 255.381773,265.179789 C255.103703,265.174348 254.787698,265.093214 254.656848,264.84544 C254.471501,264.494379 254.286153,264.14322 254.100806,263.792159 C254.068551,263.731041 254.030037,263.664483 253.96466,263.643592 C253.862117,263.610847 253.766988,263.706264 253.701611,263.792256 C253.446458,264.12816 253.204399,264.475529 252.918627,264.785294 C252.632952,265.09506 252.298075,265.368971 251.906872,265.521328 L251.755513,265.539207 C251.142567,265.764729 250.437766,265.630057 249.878836,265.290558 C249.784766,265.233425 249.693392,265.170267 249.617713,265.090105 C249.562542,265.031513 249.516133,264.964372 249.455955,264.911124 C249.368432,264.83378 249.189344,264.808809 249.079868,264.769553 C248.918496,264.711545 248.732475,264.797343 248.627717,264.934056 C248.522864,265.070768 248.48435,265.247222 248.464708,265.418915 C248.387681,266.093248 248.551075,266.818205 248.255578,267.427922 C248.088429,267.772765 247.785615,268.040069 247.441302,268.203114 C247.096797,268.366062 246.712622,268.430191 246.332299,268.43437 C246.073102,268.437285 245.831621,268.431746 245.615752,268.286968 C245.477584,268.283568 245.358384,268.190482 245.260077,268.092345 C245.071938,267.904522 244.918942,267.682595 244.72464,267.501089 C244.530435,267.319582 244.248996,267.096003 244.027157,267.241752 C243.885715,267.334546 243.813887,267.508085 243.797422,267.677445 C243.780958,267.846903 243.811673,268.016749 243.832566,268.185624 C243.901891,268.74433 243.858756,269.336946 243.582997,269.826372 C243.531293,269.918194 243.470922,270.006615 243.39168,270.075506 C243.30955,270.146729 243.210473,270.194437 243.11236,270.240494 C242.64047,270.461547 242.112832,270.636738 241.593378,270.608657 C241.459254,270.744787 241.440286,270.953985 241.420356,271.14482 C241.40832,271.259573 241.393203,271.37384 241.373946,271.487525 C241.344195,271.662812 241.297304,271.849469 241.16241,271.964028 C241.06083,272.050311 240.925454,272.081307 240.795663,272.10968 C240.554374,272.162344 240.332921,272.22249 240.087299,272.246878 C239.85795,272.269712 239.665959,272.448692 239.567171,272.658863 C239.468384,272.869033 239.447971,273.107187 239.440943,273.339706 C239.420627,274.020938 239.503528,274.703142 239.46357,275.383499 C239.443639,275.723581 239.38115,276.086982 239.143906,276.329315 C238.850527,276.628975 238.387111,276.653364 237.969719,276.658999 C237.808057,276.661137 237.680288,276.596813 237.528833,276.654044 C237.354558,276.719923 237.161797,276.803291 237.092857,276.977802 C237.064839,277.048636 237.061276,277.126757 237.061854,277.20313 C237.063972,277.525916 237.130986,277.846953 237.115195,278.16935 C237.093628,278.613205 236.909339,279.047149 236.605659,279.368964 C236.46672,279.516365 236.304867,279.639766 236.155048,279.775993 C235.803996,280.095184 235.514372,280.493856 235.373027,280.948983 C235.231682,281.404012 235.248724,281.917924 235.470467,282.339042 C235.692402,282.30105 235.830474,282.084078 235.959784,281.898199 C236.186918,281.572109 236.49031,281.272935 236.874485,281.180821 C236.99147,281.15274 237.114232,281.144287 237.224093,281.095315 C237.33405,281.04644 237.401449,280.966278 237.434281,280.849679 C237.578612,280.338391 237.412714,279.797855 237.364475,279.268494 C237.328561,278.874777 237.359083,278.474841 237.454405,278.091229 C237.48252,277.977836 237.516893,277.86454 237.576686,277.764459 C237.660357,277.62454 237.789571,277.517851 237.927546,277.432248 C238.143897,277.298158 238.390385,277.209251 238.643901,277.195162 C239.049066,277.17262 239.433625,277.331098 239.837827,277.295049 C239.962996,277.136863 239.981772,276.920862 239.990437,276.718757 C240.022596,275.962124 239.983409,275.200924 240.07873,274.449732 C240.131879,274.030849 240.23317,273.603026 240.487457,273.267706 C240.816557,272.833665 241.356326,272.615138 241.887912,272.511267 C242.399567,272.411186 242.897646,272.382134 243.393895,272.542652 C243.51011,272.709195 243.626422,272.875641 243.742733,273.042086 C243.787024,273.10573 243.85423,273.177633 243.92731,273.152953 C243.964861,273.140418 243.989702,273.104953 244.009441,273.070264 C244.261031,272.628353 244.085216,272.039331 244.31755,271.586731 C244.418167,271.390844 244.587339,271.239168 244.768642,271.115864 C245.094083,270.894325 245.47845,270.748673 245.871001,270.751588 C246.10141,270.75324 246.328352,270.805321 246.55799,270.825046 C246.787628,270.844868 246.99955,270.789094 247.19597,270.667442 C247.280218,270.272365 247.365141,269.875441 247.50976,269.498631 C247.654476,269.121917 247.862835,268.762888 248.161798,268.493932 C248.551653,268.143065 249.085838,267.965446 249.607314,267.99751 C250.12879,268.029575 250.579978,268.324669 251.005843,268.629965 C251.159706,268.740346 251.384818,268.65241 251.504981,268.505398 C251.625048,268.358483 251.676752,268.168231 251.762253,267.998482 C251.956747,267.612149 252.331486,267.336392 252.741849,267.208716 C253.152117,267.081136 253.595121,267.091145 254.016269,267.175679 C254.274888,267.227566 254.532352,267.308991 254.74957,267.459793 C255.035149,267.657915 255.230799,267.93581 255.513393,268.138499 C255.724256,268.132086 255.889095,267.961656 256.035158,267.808036 C256.255745,267.576004 256.503581,267.34708 256.813231,267.271291 C256.957947,267.235825 257.108728,267.236019 257.257487,267.242335 C257.405187,267.248554 257.63367,267.262157 257.723214,267.380797 C257.684508,267.141865 257.810448,266.897007 257.998299,266.746399 C258.186149,266.595889 258.426667,266.527484 258.664682,266.497459 C259.249417,266.423904 259.848979,266.564698 260.374306,266.83414 C260.899634,267.103679 261.355058,267.49691 261.752616,267.935907 C261.936134,268.138596 262.109061,268.352653 262.246651,268.589641 C262.632944,269.255229 262.712763,270.09387 262.459054,270.821548 C262.352564,271.127038 262.18397,271.420091 261.927757,271.615104 C261.433241,271.99172 260.74529,271.926424 260.134559,271.821582 C259.715818,271.749679 259.281672,271.659897 258.945929,271.397355 C259.003796,271.84908 258.96249,272.324223 258.853207,272.766231 C258.743828,273.208143 258.518138,273.628192 258.174114,273.923092 C257.736887,274.297959 257.133473,274.444485 256.562988,274.382979 C255.992504,274.321473 255.454371,274.065732 254.99471,273.719237 C254.887545,273.638492 254.782306,273.551528 254.658389,273.500808 C254.534471,273.44999 254.38523,273.440565 254.272385,273.513051 C254.168109,273.580095 254.114286,273.701456 254.057767,273.812419 C253.846808,274.226347 253.51973,274.582947 253.115433,274.807012 C252.711135,275.031078 252.229521,275.117944 251.777273,275.026511 C251.515765,274.973652 251.239044,274.833636 251.160187,274.576631 C251.150848,274.546316 251.084797,274.557198 251.057933,274.573522 C250.851692,274.698381 250.782753,274.960632 250.716413,275.193831 C250.579689,275.674706 250.371715,276.149752 250.016137,276.498287 C249.680682,276.827097 249.22131,277.024927 248.75385,277.037947 C248.553097,277.043583 248.356581,277.016085 248.159102,277.070012 C247.999751,277.113543 247.848681,277.20381 247.755574,277.341397 C247.736413,277.36977 247.719564,277.400572 247.713402,277.434288 C247.708202,277.463341 247.711091,277.493074 247.712535,277.522612 C247.739302,278.072378 247.223026,278.534306 246.744685,278.69327 C246.4774,278.78208 246.189991,278.795683 245.909804,278.76974 C245.670537,278.747489 245.431463,278.695991 245.215498,278.589885 C245.057784,278.512347 244.91538,278.407213 244.769027,278.309755 C244.634229,278.220071 244.495484,278.136508 244.353272,278.059358 C244.285102,278.022435 244.212697,277.986095 244.13538,277.986678 C244.057968,277.987261 243.975452,278.037301 243.964091,278.114451 C243.921726,278.403132 244.001353,278.658873 244.091186,278.936186 C244.36704,279.787458 244.536405,280.673711 244.594175,281.567445 C244.622772,282.009843 244.624408,282.456419 244.712412,282.890654 C244.74072,283.030185 244.786262,283.180209 244.903922,283.258914 C244.967662,283.301667 245.077619,283.301375 245.097742,283.226752 C245.159749,282.996468 245.28877,282.819334 245.324588,282.583415 C245.391217,282.144126 245.566647,281.729713 245.754882,281.327931 C245.886118,281.047898 246.024864,280.770391 246.19779,280.514553 C246.336343,280.309629 246.498005,280.118018 246.694714,279.969159 C247.237564,279.558438 248.033547,279.534632 248.608364,279.898519 C248.7344,279.978293 248.841083,279.826228 248.887974,279.683782 C248.978481,279.409093 249.024409,279.120996 249.115975,278.846793 C249.419463,277.937998 250.256944,277.234417 251.197545,277.098093 C251.523372,277.050773 251.85536,277.066806 252.182245,277.106255 C252.945587,277.198466 253.687843,277.416798 254.423551,277.642029 C254.930681,277.797301 255.457356,277.968411 255.834983,278.343472 C256.232348,278.738355 256.412689,279.342826 256.29734,279.893467 C256.23514,280.190406 256.086477,280.475783 255.849425,280.662537 C255.489226,280.946165 254.995865,280.963072 254.538996,280.967736 C253.980066,280.973469 253.421039,280.979201 252.862012,280.984934 C252.680516,280.986877 252.49334,280.98989 252.326768,281.062861 C252.173772,281.492919 252.154708,281.970588 251.985921,282.394524 C251.882416,282.654637 251.706697,282.879674 251.510373,283.077893 C251.195716,283.395529 250.811253,283.658267 250.376337,283.754073 C249.861986,283.867271 249.328763,283.740081 248.802281,283.73532 C248.638597,283.987271 248.682214,284.339693 248.737193,284.635758 C248.813739,285.048034 248.886818,285.467501 248.84609,285.885024 C248.805362,286.302547 248.636094,286.724539 248.307765,286.981835 C247.997729,287.224556 247.587077,287.292864 247.194814,287.297237 C246.849057,287.301123 246.502915,287.261577 246.166787,287.179666 C245.766725,287.082305 245.366568,286.923924 244.957552,286.970078 C244.895641,286.977074 244.821599,287.000394 244.808889,287.0619 C244.761806,287.289949 244.779234,287.499731 244.82882,287.727197 C244.858187,287.861967 244.901226,287.994598 244.966988,288.11557 C245.059517,288.285902 245.195278,288.429417 245.346252,288.549903 C245.717813,288.846454 246.176704,289.006778 246.632995,289.13494 C247.08919,289.2632 247.556266,289.365904 247.985405,289.568204 C248.062143,289.60435 248.13946,289.64516 248.194823,289.709775 C248.266362,289.793338 248.292744,289.905857 248.31489,290.014003 C248.335687,290.115347 248.354174,290.223979 248.314793,290.319493 C248.258563,290.456303 248.103642,290.521113 247.9596,290.549388 C247.710802,290.598263 247.454397,290.579315 247.202228,290.554927 C246.730242,290.509161 246.253346,290.442797 245.817178,290.255072 C245.692683,290.201533 245.484612,290.2781 245.406815,290.389841 C245.328921,290.501582 245.318907,290.646652 245.319677,290.783267 C245.32064,290.949713 245.338549,291.128693 245.446002,291.254912 C245.507817,291.327592 245.593125,291.374912 245.676507,291.420677 C246.215218,291.716645 246.758069,292.014265 247.342322,292.202671 C247.613266,292.29012 247.895283,292.355027 248.141289,292.499027 C248.221109,292.545667 248.29958,292.604258 248.338287,292.688696 C248.376993,292.773133 248.362165,292.888664 248.284175,292.938413 C248.206088,293.20115 247.973562,293.423272 247.727844,293.540454 C247.482127,293.657734 247.206946,293.696212 246.935521,293.710689 C245.826711,293.769864 244.731284,293.452033 243.69488,293.049765 C242.794737,292.700401 241.891702,292.26008 241.16632,291.633926 C241.087658,291.755055 241.008489,291.875052 240.929374,291.993905 C241.907838,292.565067 242.734058,293.366585 243.634413,294.058253 C244.563653,294.772035 245.636549,295.390109 246.8039,295.421785 C247.063675,295.428781 247.327301,295.406822 247.580337,295.466093 C247.833372,295.525267 248.08323,295.687632 248.15785,295.938709 C248.240654,296.217188 248.060892,296.539585 247.788792,296.635099 C247.629056,296.691261 247.454686,296.678047 247.286188,296.664249 C246.982989,296.639278 246.679886,296.6145 246.376783,296.589528 C246.214447,296.576217 246.035936,296.567277 245.905182,296.665221 C245.905182,296.665221 245.812749,296.7345 245.723301,296.801642 C245.534777,297.107521 245.25613,297.281352 244.888709,297.370356 C244.469968,297.471797 244.032645,297.446145 243.602736,297.419813 C243.486424,297.75902 243.802622,298.078697 243.913926,298.419653 C244.060953,298.87031 243.781247,299.415606 243.331695,299.554457 C242.882144,299.693404 242.347862,299.399768 242.219612,298.943184 C242.17455,298.782569 242.173588,298.608447 242.101663,298.458131 C242.029643,298.307815 241.843044,298.189952 241.69958,298.273224 C241.620916,298.318892 241.580573,298.409839 241.553806,298.497192 C241.407804,298.974466 241.522041,299.485942 241.568365,299.983942 C241.646535,300.118851 241.691137,300.266993 241.691347,300.428986 C241.693193,301.852277 240.977734,301.404409 240.786519,301.993133 C240.554349,302.707954 241.303817,302.444741 240.854783,303.013188 C240.55406,303.393883 240.225721,303.524139 239.906536,303.533837 Z M239.603259,295.574084 C239.608362,295.776481 239.613465,295.978975 239.618664,296.181372 C239.619435,296.212563 239.620783,296.245696 239.638017,296.27164 C239.657948,296.301664 239.694536,296.315267 239.729391,296.324012 C239.939676,296.377162 240.200799,296.342085 240.411373,296.308466 C240.380369,296.165534 240.14197,296.048157 240.029124,295.954586 C239.961918,295.898813 239.605377,295.658813 239.603259,295.574084 Z M240.411094,293.400001 C240.292953,293.570041 240.2088,293.763985 240.164991,293.966868 C240.147756,294.047224 240.139091,294.139338 240.189351,294.204245 C240.215637,294.238156 240.254728,294.259532 240.294108,294.276439 C240.468287,294.35116 240.665477,294.35631 240.840426,294.42899 C241.049362,294.51576 241.207654,294.689881 241.374033,294.844181 C241.544456,295.002271 243.183312,296.061479 243.234631,295.641235 C243.259954,295.433494 242.525112,295.136166 242.37953,295.039582 C242.040321,294.81474 241.719212,294.562982 241.408599,294.299468 C241.321847,294.225913 240.389719,293.430705 240.411094,293.400001 Z" id="lady12" fill="#2C3745"></path>
        <g id="lady11">
            <use fill="#51B876" xlink:href="#path-23"></use>
            <use fill-opacity="0.78" fill="url(#linearGradient-22)" xlink:href="#path-23"></use>
        </g>
        <path d="M296.213807,404.44946 C295.064173,404.44946 293.003225,404.478704 291.853877,404.44946 C291.623625,404.443688 291.397578,404.533634 291.173061,404.533634 C291.098127,404.551238 291.024243,404.571632 290.951316,404.594527 C290.088517,404.865709 287.213022,407.335056 286.465683,407.933023 C286.134403,408.198048 285.772633,408.572451 285.884175,408.983217 C285.921642,409.121357 289.310618,406.518983 291.086683,406.005285 C293.113785,405.419097 296.47142,406.153306 298.57384,405.967897 C299.539292,405.967897 298.695488,407.849838 297.716942,408.155757 C296.167126,408.640268 294.047234,408.382162 292.475519,408.815342 C291.670927,409.037078 290.485897,410.029208 289.749645,410.426795 C289.385486,410.623423 287.823806,412.081814 287.825144,412.083834 C287.86242,412.138956 287.875706,412.157522 287.919864,412.207449 C287.965647,412.259203 288.01229,412.311824 288.070784,412.348475 C288.129279,412.385127 288.173246,412.375507 288.241968,412.370793 C288.425099,412.358287 288.594658,412.267188 288.769473,412.219185 C288.994564,412.15733 289.221662,412.103266 289.449811,412.054013 C289.884795,411.960124 290.323507,411.884704 290.762027,411.809285 C292.544114,411.502798 293.854782,411.638574 295.659712,411.744969 C296.115532,411.771905 296.576419,411.807787 297.009587,411.952853 C297.44285,412.097824 297.851645,412.364581 298.082662,412.760917 C298.328684,413.182938 297.618335,413.798413 297.168249,413.983306 C296.718164,414.168198 296.217898,414.169353 295.731875,414.17753 C294.56169,414.19725 293.946462,414.312455 292.783446,414.445016 C291.729773,414.564974 290.697128,414.893779 289.749645,415.369671 C289.303287,415.593813 288.838673,415.849988 288.440965,416.153878 C288.052433,416.450937 287.892337,417.05458 287.684929,417.49661 C287.261127,418.399718 286.170982,419.582122 285.114876,419.97251 C284.725075,420.1166 279.772827,421.833507 277.730189,422.579235 C275.770802,423.294467 273.50489,422.96191 271.455657,422.579235 L265.182941,421.407831 C265.032976,420.041722 264.956226,418.667437 264.953167,417.293055 C264.811805,417.176752 264.676272,417.111145 264.505567,417.046211 C264.262794,416.603123 264.0356,416.133291 264.003772,415.628444 C263.953497,414.830385 264.411612,414.067053 265.027815,413.562398 C265.644018,413.057647 266.403974,412.76963 267.155805,412.51105 C267.214286,412.490935 267.266872,412.455734 267.331376,412.451085 C268.754957,412.348475 270.059299,412.054013 271.511476,411.265093 C272.077048,410.957836 272.496522,410.309461 272.901494,409.74247 C273.858057,408.403104 274.75192,407.018333 275.579164,405.594506 C275.818018,405.183355 276.05821,404.760469 276.416635,404.44946 C276.775059,404.138548 277.283066,403.956638 277.730189,404.112767 C281.171447,402.502508 284.662119,400.740063 287.891094,398.732987 C288.552411,398.322029 289.250527,397.888368 290.06936,398.026027 C290.368047,398.038245 290.651632,398.19447 290.87959,398.3936 C291.130392,398.612643 291.329963,398.883922 291.556965,399.12788 C292.111137,399.723538 292.818332,400.147291 293.47315,400.628473 C293.872961,400.922262 294.284623,401.289835 294.34589,401.784197 C295.145893,401.920221 296.843984,402.190798 297.722345,402.432127 C299.103535,402.811607 298.082662,404.44946 296.213807,404.44946 Z" id="lady10" fill="#AA816E"></path>
        <path d="M284,404.960572 C284.348572,404.582607 284.719334,404.22988 285.100282,403.889114 C285.289395,403.716805 285.485467,403.553314 285.679824,403.387391 C285.875896,403.223698 286.0757,403.064869 286.274899,402.905027 C286.676624,402.589702 287.091865,402.29252 287.518503,402.012366 C287.733133,401.873302 287.944334,401.734543 288.167538,401.597608 C288.389934,401.461078 288.624636,401.33063 288.878702,401.232313 C289.392786,401.02909 289.933396,401.001824 290.443748,401 C290.956924,401.000608 291.468486,401.023515 291.977022,401.067707 C292.994095,401.161768 293.998661,401.319481 295,401.489053 L294.993545,401.539327 C293.982019,401.449929 292.971906,401.345834 291.962095,401.320697 C291.457795,401.302047 290.953797,401.304885 290.452522,401.329313 C289.953164,401.355159 289.460765,401.410906 289.033926,401.606426 C288.604766,401.802047 288.212521,402.119805 287.804442,402.423677 C287.399488,402.727955 286.98929,403.024123 286.573646,403.313298 L285.94781,403.744577 C285.73681,403.885364 285.529946,404.031826 285.317333,404.171093 C284.895637,404.454389 284.471117,404.73505 284.031771,405 L284,404.960572 Z" id="lady9" fill="#000000" opacity="0.539574033"></path>
        <g id="lady8">
            <use fill="#2E3B4B" xlink:href="#path-27"></use>
            <use fill-opacity="0.69" fill="url(#radialGradient-24)" xlink:href="#path-27"></use>
            <use fill-opacity="0.61" fill="url(#radialGradient-25)" xlink:href="#path-27"></use>
            <use fill-opacity="0.47" fill="url(#radialGradient-26)" xlink:href="#path-27"></use>
        </g>
        <g id="lady7">
            <use fill="#2E3B4B" xlink:href="#path-29"></use>
            <use fill-opacity="0.19" fill="url(#linearGradient-28)" xlink:href="#path-29"></use>
        </g>
        <g id="lady6">
            <use fill="#2E3B4B" xlink:href="#path-30"></use>
            <use fill-opacity="0.42" fill="url(#linearGradient-28)" xlink:href="#path-30"></use>
        </g>
        <path d="M235,430 L233.220421,429.428164 L232.331161,429.139694 L231.886435,428.995411 L231.446909,428.836487 L229.689287,428.198289 L228.810235,427.879093 L227.942258,427.531292 L226.208905,426.827983 L225.775639,426.652011 C225.631762,426.592006 225.490486,426.525932 225.347862,426.463133 L224.493752,426.081909 L222.785245,425.319269 C222.222451,425.050544 221.66351,424.773921 221.102354,424.501632 L220.261342,424.091609 L219.840787,423.88655 C219.700089,423.819224 219.564398,423.742074 219.426011,423.670317 L217.775093,422.78911 L216.949778,422.348074 C216.676086,422.198493 216.408749,422.037547 216.137946,421.882861 L214.517844,420.94579 C213.972963,420.641524 213.45052,420.299887 212.9197,419.972215 L211.331859,418.981303 C210.808357,418.641977 210.29439,418.288011 209.775221,417.942136 L208.99825,417.420289 C208.740255,417.244992 208.477349,417.076725 208.227058,416.890351 L206.7126,415.790215 L205.955564,415.240051 C205.828156,415.149994 205.70537,415.053773 205.582584,414.957552 L205.213455,414.669949 C204.233093,413.897966 203.231929,413.152181 202.286043,412.337626 L200.849302,411.138187 L200.66989,410.988125 L200.495486,410.832187 L200.146581,410.520408 L199.448867,409.896657 L198.75125,409.273099 L198.402441,408.961224 L198.228037,408.805382 L198.059122,408.643569 L196.711653,407.344827 C195.799859,406.492805 194.950757,405.577694 194.078543,404.68647 L193.75304,404.350516 C193.644314,404.238691 193.535203,404.127445 193.432159,404.010323 L192.804746,403.316453 L191.550402,401.928714 C190.723836,400.995207 189.925101,400.036272 189.157278,399.053643 C188.390034,398.070533 187.662852,397.055541 187,396 C188.381752,398.075734 189.978741,399.995144 191.656239,401.834612 L192.924065,403.206074 L193.557738,403.891949 C193.661745,404.007722 193.771915,404.11762 193.881604,404.228096 L194.209996,404.559909 C195.090204,405.440346 195.946817,406.344187 196.865738,407.184652 L198.223607,408.465864 L198.393389,408.625847 L198.567889,408.780725 L198.916987,409.090578 L199.61499,409.710187 L200.313088,410.3297 L200.66209,410.639456 L200.83659,410.794431 L201.016099,410.943433 L202.453225,412.134686 C203.399303,412.943654 204.400563,413.684045 205.380829,414.450249 L205.749862,414.735734 C205.872551,414.83128 205.995241,414.926827 206.12265,415.01621 L206.879589,415.562136 L208.392988,416.654181 C212.453209,419.534164 216.753995,422.067598 221.200583,424.303411 C221.757598,424.580997 222.312494,424.863014 222.871243,425.137133 L224.568098,425.916147 L225.416718,426.305751 C225.558476,426.369898 225.698789,426.43732 225.841799,426.498674 L226.272465,426.67898 L227.99484,427.400782 L228.85569,427.763031 L229.727905,428.096867 L231.472718,428.764827 L231.909162,428.931167 L232.350903,429.083059 L233.234289,429.387037 L235,430 Z" id="lady5" fill="#000000" opacity="0.708031064"></path>
        <path d="M184,414.976958 C184.829572,414.282504 185.601995,413.51362 186.309943,412.684479 C187.021237,411.858424 187.66851,410.971629 188.245249,410.036724 C188.823888,409.101916 189.310292,408.10955 189.769387,407.106 C190.227397,406.10033 190.619576,405.061397 190.973867,404 L191,404.007713 C190.789216,405.11423 190.446409,406.192788 190.015347,407.227865 C189.585459,408.265159 189.028794,409.237182 188.425017,410.166398 C187.819341,411.095228 187.144669,411.971708 186.408689,412.783591 C185.669362,413.592099 184.868998,414.335338 184.016367,415 L184,414.976958 Z" id="lady4" fill="#000000" opacity="0.708031064"></path>
        <g id="lady3">
            <use fill="#2E3B4B" xlink:href="#path-34"></use>
            <use fill-opacity="0.69" fill="url(#radialGradient-31)" xlink:href="#path-34"></use>
            <use fill-opacity="0.61" fill="url(#radialGradient-32)" xlink:href="#path-34"></use>
            <use fill-opacity="0.47" fill="url(#radialGradient-33)" xlink:href="#path-34"></use>
        </g>
        <g id="lady2">
            <use fill="#324052" xlink:href="#path-36"></use>
            <use fill="url(#linearGradient-35)" xlink:href="#path-36"></use>
        </g>
        <path d="M163.175398,560.978035 C162.183506,561.132637 161.147739,561.213904 160.066265,561.213904 C140.880657,561.213904 136.303516,532.464842 130.825341,523.254616 C129.997034,521.862018 128.966963,520.05661 127.842435,517.959838 C123.6179,511.164152 118.129861,501.127309 115.773143,492.170368 C112.744415,480.659384 119.443249,455.297985 121.614556,443.986405 C123.785864,432.674824 123.785864,417.2567 127.330016,409.96307 C128.358472,407.846575 129.862793,403.491582 131.943704,398.141186 C137.196688,382.781445 146.463083,360.147278 161.700405,358.047223 C162.495369,357.756719 163.306278,357.508814 164.133394,357.306764 L217,308 L214.407737,582 L164.305278,562.005569 C164.0477,561.670378 163.791575,561.335279 163.536903,561.000272 C163.415882,560.99374 163.295384,560.986325 163.175406,560.978035 L163.175398,560.978035 Z" id="lady1" fill="url(#linearGradient-37)" opacity="0.338192894"></path>
        <path d="M388.505319,434 L424.494681,434 C447.417436,434 466,452.580183 466,475.5 C466,498.419817 447.417436,517 424.494681,517 L388.505319,517 C365.582564,517 347,498.419817 347,475.5 C347,452.580183 365.582564,434 388.505319,434 Z" id="msg2" fill="url(#linearGradient-38)" opacity="0.800269717"></path>
        <path d="M424.917679,491.841488 L424.917679,500 L413.374642,491.841488 L385.848896,491.841488 C382.61864,491.841488 380,489.212195 380,485.968798 L380,461.87269 C380,458.629293 382.61864,456 385.848896,456 L427.151104,456 C430.38136,456 433,458.629293 433,461.87269 L433,485.968798 C433,489.212195 430.38136,491.841488 427.151104,491.841488 L424.917679,491.841488 Z" id="msg1" fill="#FFFFFF" opacity="0.5"></path>
        <path d="M571.47793,434 L607.52207,434 C630.429698,434 649,452.580183 649,475.5 C649,498.419817 630.429698,517 607.52207,517 L571.47793,517 C548.570302,517 530,498.419817 530,475.5 C530,452.580183 548.570302,434 571.47793,434 Z" id="folder3" fill="url(#linearGradient-39)" opacity="0.690871466"></path>
        <polygon id="folder2" fill="#FFFFFF" opacity="0.4" points="618 460 561 460 561 456.838063 597.312124 456.838063 600.38966 452 618 452 618 460"></polygon>
        <polygon id="folder1" fill="#FFFFFF" opacity="0.65" points="559 460 620 460 620 499 559 499"></polygon>
        <path d="M462.845688,551 L499.154312,551 C522.265047,551 541,569.580183 541,592.5 C541,615.419817 522.265047,634 499.154312,634 L462.845688,634 C439.734953,634 421,615.419817 421,592.5 C421,569.580183 439.734953,551 462.845688,551 Z" id="card4" fill="url(#linearGradient-40)" opacity="0.807617188"></path>
        <path d="M457,573 L509,573 C511.209139,573 513,574.790861 513,577 L513,609 C513,611.209139 511.209139,613 509,613 L457,613 C454.790861,613 453,611.209139 453,609 L453,577 C453,574.790861 454.790861,573 457,573 Z M454,579 L454,584 L512,584 L512,579 L454,579 Z" id="card3" fill="#FFFFFF" opacity="0.4"></path>
        <path d="M459,588 L507,588 C507.552285,588 508,588.447715 508,589 L508,595 C508,595.552285 507.552285,596 507,596 L459,596 C458.447715,596 458,595.552285 458,595 L458,589 C458,588.447715 458.447715,588 459,588 Z" id="card2" fill="#FFFFFF" opacity="0.5"></path>
        <path d="M500,593 L506,593 C506.552285,593 507,593.447715 507,594 C507,594.552285 506.552285,595 506,595 L500,595 C499.447715,595 499,594.552285 499,594 C499,593.447715 499.447715,593 500,593 Z" id="card1" fill="#84A1AE"></path>
        <path d="M534.778207,176 L570.221793,176 C592.742975,176 611,194.356325 611,217 C611,239.643675 592.742975,258 570.221793,258 L534.778207,258 C512.257025,258 494,239.643675 494,217 C494,194.356325 512.257025,176 534.778207,176 Z" id="pres3" fill="url(#linearGradient-41)" opacity="0.800269717"></path>
        <path d="M526,200 L580,200 L580,232 C580,233.104569 579.104569,234 578,234 L528,234 C526.895431,234 526,233.104569 526,232 L526,200 Z M534.5,206 C533.119288,206 532,207.119288 532,208.5 C532,209.880712 533.119288,211 534.5,211 L571.5,211 C572.880712,211 574,209.880712 574,208.5 C574,207.119288 572.880712,206 571.5,206 L534.5,206 Z" id="pres2" fill="#FFFFFF" opacity="0.6"></path>
        <path d="M551,196 L551,195 C551,193.895431 551.895431,193 553,193 C554.104569,193 555,193.895431 555,195 L555,196 L581,196 C582.104569,196 583,196.895431 583,198 C583,199.104569 582.104569,200 581,200 L525,200 C523.895431,200 523,199.104569 523,198 C523,196.895431 523.895431,196 525,196 L551,196 Z M561.655574,234 L565.873212,238.984947 C566.163315,239.327828 565.938716,239.747965 565.371557,239.923349 C564.804397,240.098733 564.109448,239.96295 563.819345,239.620069 L559.064346,234 L561.655574,234 Z M547.863439,234 L543.180655,239.534717 C542.890552,239.877598 542.195603,240.013382 541.628443,239.837997 C541.061284,239.662613 540.836685,239.242476 541.126788,238.899595 L545.272212,234 L547.863439,234 Z" id="pres1" fill="#FFFFFF" opacity="0.4"></path>
        <path d="M630.778207,303 L666.221793,303 C688.742975,303 707,321.356325 707,344 C707,366.643675 688.742975,385 666.221793,385 L630.778207,385 C608.257025,385 590,366.643675 590,344 C590,321.356325 608.257025,303 630.778207,303 Z" id="people3" fill="url(#linearGradient-42)" opacity="0.800269717"></path>
        <path d="M634.939213,334.546052 C634.939213,336.296795 635.266959,337.970372 635.863976,339.507836 C635.198022,343.659097 631.982084,346.945289 627.894686,347.668596 C631.308598,348.113221 634.314929,349.879098 636.399488,352.444582 C633.847809,354.692284 631.922371,357.644377 630.921632,361 C623.274417,361 617.539006,361 613.715399,361 C613.469158,361 612.984651,360.426794 613.000374,360.158954 C613.379196,353.705567 618.256631,348.481086 624.495082,347.668596 C619.895107,346.854583 616.398867,342.794588 616.398867,337.908616 C616.398867,332.436239 620.784693,328 626.194884,328 C630.044957,328 633.376269,330.24661 634.977393,333.514478 C634.952091,333.854997 634.939213,334.199008 634.939213,334.546052 Z M660.43992,340.820946 C661.408823,338.943114 661.956419,336.809047 661.956419,334.546052 C661.956419,333.762804 661.890821,332.995001 661.764861,332.247922 C663.534964,329.680131 666.47649,328 669.805973,328 C675.216164,328 679.60199,332.436239 679.60199,337.908616 C679.60199,342.794588 676.10575,346.854583 671.505775,347.668596 C677.739546,348.480476 682.614342,353.697731 682.999623,360.144433 C683.015915,360.417036 682.499898,361 682.237757,361 C678.60459,361 673.154838,361 665.888502,361 C664.827143,357.441108 662.725663,354.336114 659.94011,352.043935 C662.005378,349.695831 664.87299,348.089682 668.106171,347.668596 C664.460388,347.023437 661.507928,344.339281 660.43992,340.820946 Z" id="people2" fill="#FFFFFF" opacity="0.299361"></path>
        <path d="M634.784431,334.491461 C634.784431,327.040333 640.945917,321 648.546496,321 C656.147075,321 662.308562,327.040333 662.308562,334.491461 C662.308562,341.268664 657.211236,346.878732 650.570012,347.838109 C659.225165,348.776455 666.089908,355.537938 666.997274,364.037526 C667.064626,364.668433 665.866961,366 665.260021,366 C650.477301,366 639.31592,366 631.775877,366 C631.15283,366 629.939133,364.708602 630.002378,364.096895 C630.885742,355.552991 637.787135,348.752446 646.486102,347.832731 C639.862896,346.857951 634.784431,341.256114 634.784431,334.491461 Z" id="people1" fill="#FFFFFF" opacity="0.6"></path>
        <path d="M719.461538,358 L755.538462,358 C778.437037,358 797,376.580183 797,399.5 C797,422.419817 778.437037,441 755.538462,441 L719.461538,441 C696.562963,441 678,422.419817 678,399.5 C678,376.580183 696.562963,358 719.461538,358 Z" id="pics3" fill="url(#linearGradient-43)" opacity="0.753301711"></path>
        <path d="M712,379 L762,379 C763.104569,379 764,379.904059 764,381.019272 L764,417.980728 C764,419.095941 763.104569,420 762,420 L712,420 C710.895431,420 710,419.095941 710,417.980728 L710,381.019272 C710,379.904059 710.895431,379 712,379 Z" id="pics2" fill="#FFFFFF" opacity="0.309361049"></path>
        <path d="M764,419.011713 C763.649749,419.603387 763.005991,420 762.269811,420 L712.010377,420 C710.900077,420 710,419.097845 710,417.984981 L710,406.925965 L719.094947,397.596603 C719.094947,397.596603 722.062264,394.552806 725.171313,397.741988 L740.15566,413.112544 L746.280275,406.830073 C746.280275,406.830073 749.329012,403.962593 752.217925,406.925965 L764,419.011713 Z M752.480148,396.827284 C749.223336,396.827284 746.580127,394.177972 746.580127,390.913642 C746.580127,387.649312 749.223336,385 752.480148,385 C755.736959,385 758.380168,387.649312 758.380168,390.913642 C758.380168,394.177972 755.736959,396.827284 752.480148,396.827284 Z" id="pics1" fill="#FFFFFF" opacity="0.309361049"></path>
        <path d="M325.875794,195 L356.124206,195 C375.385575,195 391,210.670034 391,230 C391,249.329966 375.385575,265 356.124206,265 L325.875794,265 C306.614425,265 291,249.329966 291,230 C291,210.670034 306.614425,195 325.875794,195 Z" id="cal4" fill="url(#linearGradient-44)"></path>
        <path d="M319,218 L363,218 L363,248 C363,249.104569 362.104569,250 361,250 L321,250 C319.895431,250 319,249.104569 319,248 L319,218 Z" id="cal3" fill="#FFFFFF" opacity="0.3"></path>
        <path d="M334.525818,231.906542 L336.630162,231.906542 C337.698652,231.906542 338.455148,231.644195 338.899673,231.119493 C339.344197,230.59479 339.566456,229.863823 339.566456,228.926569 C339.566456,227.925229 339.313611,227.164222 338.807913,226.643525 C338.302216,226.122828 337.555915,225.862483 336.568989,225.862483 C335.631002,225.862483 334.878584,226.132841 334.311713,226.673565 C333.744843,227.214288 333.461412,227.93324 333.461412,228.830441 L331.14908,228.830441 L331.124611,228.758344 C331.083829,227.436576 331.571168,226.313089 332.586641,225.38785 C333.602114,224.462612 334.92955,224 336.568989,224 C338.216585,224 339.529747,224.43057 340.508517,225.291722 C341.487286,226.152875 341.976664,227.380499 341.976664,228.974633 C341.976664,229.695598 341.754405,230.414549 341.30988,231.131509 C340.865356,231.848468 340.198579,232.395192 339.30953,232.771696 C340.37802,233.116157 341.134516,233.656872 341.579041,234.393858 C342.023565,235.130845 342.245824,235.955937 342.245824,236.869159 C342.245824,238.463292 341.713626,239.716951 340.649214,240.630174 C339.584802,241.543396 338.224741,242 336.568989,242 C334.937707,242 333.591919,241.56943 332.531585,240.708278 C331.471252,239.847125 330.961484,238.67958 331.002266,237.205607 L331.038969,237.133511 L333.339066,237.133511 C333.339066,238.054744 333.626575,238.787714 334.201602,239.332443 C334.77663,239.877172 335.565751,240.149533 336.568989,240.149533 C337.588541,240.149533 338.387857,239.877172 338.966963,239.332443 C339.546068,238.787714 339.835616,237.982649 339.835616,236.917223 C339.835616,235.835776 339.578693,235.038721 339.064839,234.526035 C338.550985,234.013349 337.739434,233.757009 336.630162,233.757009 L334.525818,233.757009 L334.525818,231.906542 Z M345.096476,240.233645 L347.849251,239.897196 L347.849251,226.787717 L345.047538,226.835781 L345.047538,225.35781 L350.259459,224.252336 L350.259459,239.897196 L353,240.233645 L353,241.747664 L345.096476,241.747664 L345.096476,240.233645 Z" id="cal2" fill="#FFFFFF" opacity="0.6"></path>
        <path d="M329,210 L329,208 C329,206.342 329.894667,205 331,205 C332.105333,205 333,206.342 333,208 L333,210 L349,210 L349,208 C349,206.342 349.894667,205 351,205 C352.105333,205 353,206.342 353,208 L353,210 L361,210 C362.104569,210 363,210.895431 363,212 L363,218 L319,218 L319,212 C319,210.895431 319.895431,210 321,210 L329,210 Z" id="cal1" fill="#FFFFFF" opacity="0.6"></path>
        <path d="M439.260638,291 L485.739362,291 C515.1544,291 539,314.728908 539,344 C539,373.271092 515.1544,397 485.739362,397 L439.260638,397 C409.8456,397 386,373.271092 386,344 C386,314.728908 409.8456,291 439.260638,291 Z" id="mail3" fill="url(#linearGradient-45)"></path>
        <path d="M419,312 L503,312 C504.104569,312 505,312.895431 505,314 L505,371 C505,372.104569 504.104569,373 503,373 L419,373 C417.895431,373 417,372.104569 417,371 L417,314 C417,312.895431 417.895431,312 419,312 Z" id="mail2" fill="#FFFFFF" opacity="0.4"></path>
        <path d="M505,313.585498 L469.643391,343.268231 L504.441616,372.482188 C504.185583,372.732777 503.862564,372.915172 503.501929,373 L468.865151,343.921583 L460.897008,350.611032 L452.928866,343.921583 L418.351443,372.95017 C418.012479,372.836772 417.713935,372.635113 417.483087,372.372473 L452.150626,343.268231 L417,313.758426 C417.120032,312.76765 417.963729,312 418.986682,312 L503.04201,312 C504.004607,312 504.808478,312.679738 505,313.585498 Z" id="mail1" fill="#FFFFFF" opacity="0.4"></path>
        <path d="M300.47793,468 L336.52207,468 C359.429698,468 378,486.580183 378,509.5 C378,532.419817 359.429698,551 336.52207,551 L300.47793,551 C277.570302,551 259,532.419817 259,509.5 C259,486.580183 277.570302,468 300.47793,468 Z" id="graph3" fill="url(#linearGradient-46)"></path>
        <path d="M288,487 L349,487 C350.104569,487 351,487.895431 351,489 L351,529 C351,530.104569 350.104569,531 349,531 L288,531 C286.895431,531 286,530.104569 286,529 L286,489 C286,487.895431 286.895431,487 288,487 Z" id="graph2" fill="#FFFFFF" opacity="0.3"></path>
        <path d="M298,503 L306,503 C307.104569,503 308,503.895431 308,505 L308,526 C308,527.104569 307.104569,528 306,528 L298,528 C296.895431,528 296,527.104569 296,526 L296,505 C296,503.895431 296.895431,503 298,503 Z M315,494 L323,494 C324.104569,494 325,494.895431 325,496 L325,526 C325,527.104569 324.104569,528 323,528 L315,528 C313.895431,528 313,527.104569 313,526 L313,496 C313,494.895431 313.895431,494 315,494 Z M332,508 L340,508 C341.104569,508 342,508.895431 342,510 L342,526 C342,527.104569 341.104569,528 340,528 L332,528 C330.895431,528 330,527.104569 330,526 L330,510 C330,508.895431 330.895431,508 332,508 Z" id="graph1" fill="#FFFFFF" opacity="0.5"></path>
    </g>
</svg>