<svg width="1118" height="1003" xmlns="http://www.w3.org/2000/svg"><defs><linearGradient x1="50%" y1="29.514%" x2="43.519%" y2="88.465%" id="a"><stop stop-color="#E0E4F7" offset="0%"/><stop stop-color="#90C9DC" offset="100%"/></linearGradient><linearGradient x1="52.145%" y1="35.375%" x2="50%" y2="61.043%" id="b"><stop stop-color="#F9C192" offset="0%"/><stop stop-color="#FFD5A8" offset="100%"/></linearGradient><linearGradient x1="50%" y1="11.995%" x2="50%" y2="37.873%" id="c"><stop stop-color="#F9C192" offset="0%"/><stop stop-color="#FAC495" offset="35.492%"/><stop stop-color="#FDD0A2" offset="58.337%"/><stop stop-color="#FFD5A8" offset="100%"/></linearGradient><linearGradient x1="50%" y1="3.254%" x2="50%" y2="76.662%" id="e"><stop stop-color="#C4804B" offset="0%"/><stop stop-color="#A6592D" offset="100%"/><stop stop-color="#A6592D" offset="100%"/></linearGradient><linearGradient x1="50%" y1="11.077%" x2="50%" y2="91.239%" id="h"><stop stop-color="#D29259" offset="0%"/><stop stop-color="#A6592D" offset="100%"/></linearGradient><linearGradient x1="50%" y1="-21.192%" x2="50%" y2="127.611%" id="i"><stop stop-color="#D29259" offset="0%"/><stop stop-color="#A6592D" offset="100%"/></linearGradient><linearGradient x1="50%" y1="0%" x2="50%" y2="100%" id="j"><stop stop-color="#F9F9F9" offset="0%"/><stop stop-color="#FFF" offset="99.34%"/></linearGradient><linearGradient x1="56.79%" y1="39.701%" x2="48.105%" y2="51.201%" id="k"><stop stop-color="#9B948F" offset="0%"/><stop stop-color="#D2C8C1" offset="100%"/></linearGradient><linearGradient x1="50%" y1="0%" x2="50%" y2="85.843%" id="l"><stop stop-color="#393B75" offset="0%"/><stop stop-color="#7776BA" offset="100%"/></linearGradient><linearGradient x1="31.227%" y1="34.011%" x2="48.105%" y2="51.589%" id="n"><stop stop-color="#9B948F" offset="0%"/><stop stop-color="#D2C8C1" offset="100%"/></linearGradient><linearGradient x1="50%" y1="0%" x2="50%" y2="85.843%" id="o"><stop stop-color="#393B75" offset="0%"/><stop stop-color="#7776BA" offset="100%"/></linearGradient><linearGradient x1="50.508%" y1="89.061%" x2="48.886%" y2="3.328%" id="s"><stop stop-color="#B6B0B3" offset="0%"/><stop stop-color="#BAB2BB" offset="100%"/></linearGradient><linearGradient x1="51.065%" y1="89.061%" x2="47.664%" y2="3.328%" id="t"><stop stop-color="#B6B0B3" offset="0%"/><stop stop-color="#BAB2BB" offset="100%"/></linearGradient><radialGradient cx="47.697%" cy="118.692%" fx="47.697%" fy="118.692%" r="78.743%" gradientTransform="matrix(.7612 0 0 1 .114 0)" id="d"><stop stop-color="#F2A877" offset="0%"/><stop stop-color="#FFD5A8" offset="100%"/></radialGradient><radialGradient cx="76.076%" cy="52.166%" fx="76.076%" fy="52.166%" r="84.723%" gradientTransform="matrix(1 0 0 .6164 0 .2)" id="f"><stop stop-color="#FFBF8F" offset="0%"/><stop stop-color="#FFD5A8" offset="100%"/></radialGradient><radialGradient cx="4.939%" cy="55.856%" fx="4.939%" fy="55.856%" r="84.723%" gradientTransform="matrix(1 0 0 .77836 0 .124)" id="g"><stop stop-color="#FFC798" offset="0%"/><stop stop-color="#FFD5A8" offset="100%"/></radialGradient><radialGradient cx="46.45%" cy="93.184%" fx="46.45%" fy="93.184%" r="91.11%" gradientTransform="matrix(-.01548 -.99938 1.01647 -.08126 -.476 1.472)" id="m"><stop stop-color="#6E6DB0" offset="0%"/><stop stop-color="#5F5F9F" offset="46.812%"/><stop stop-color="#363A73" offset="100%"/><stop stop-color="#33376F" offset="100%"/></radialGradient><radialGradient cx="45.04%" cy="100%" fx="45.04%" fy="100%" r="100.048%" gradientTransform="matrix(-.0141 -.99952 1.04665 -.07188 -.59 1.522)" id="p"><stop stop-color="#6E6DB0" offset="0%"/><stop stop-color="#5F5F9F" offset="46.812%"/><stop stop-color="#363A73" offset="100%"/><stop stop-color="#33376F" offset="100%"/></radialGradient><radialGradient cx="16.992%" cy="23.694%" fx="16.992%" fy="23.694%" r="68.107%" gradientTransform="matrix(1 0 0 .58975 0 .097)" id="q"><stop stop-color="#FFF" stop-opacity=".99" offset="0%"/><stop stop-color="#D1C7C0" offset="100%"/></radialGradient><radialGradient cx="92.607%" cy="34.384%" fx="92.607%" fy="34.384%" r="68.107%" gradientTransform="matrix(1 0 0 .87172 0 .044)" id="r"><stop stop-color="#FFF" stop-opacity=".99" offset="0%"/><stop stop-color="#D1C7C0" offset="100%"/></radialGradient></defs><g fill="none" fill-rule="evenodd"><path d="M317.481 87.022c52.74 0 102.57 12.146 146.7 33.723l-.002.004c15.682 5.128 25.73 8.393 30.146 9.795 67.074 21.307 207.634 29.402 262.884 29.402 221.185 0 350.763 125.77 350.763 341.268 0 215.497-179.306 390.193-400.49 390.193-124.759 0-263.105 73.865-427.86-.725-72.592-32.865-141.347-205.89-198.06-263.255-56.715-57.365-91.59-135.373-91.59-221.317 0-176.227 146.631-319.088 327.51-319.088z" fill="url(#a)" transform="rotate(17 548.972 505.522)"/><path d="M587.32 875.59c15-1.86 28.71-9.11 41.55-17 36-22.23 67.81-50.61 99.37-78.83a40.39 40.39 0 003-2.86c-1-1-1.92-1.94-2.85-3-35.096-64.74-1.65-172.321 0-194.321-7.302-6.787-46.949 43.62-56.39 40.421-24-1.82-48-5.73-72.09-8.55-6.12-.72-12.26-1.34-18.4-1.92l-59.82-3.37c-5.86-.11-11.72-.18-17.57-.16-14 0-44.22-24.849-56.64-18.339 18.45 53.42 11.34 139.809-27.41 182.439-2.78 3.06-5.637 6.04-8.57 8.94a762.8 762.8 0 00105.33 74.87c21.57 12.73 45.63 24.78 70.49 21.68z" fill="url(#b)" fill-rule="nonzero"/><path d="M613.75 822.81c36.38-22.47 59.66-102.5 59.51-144-13.98 48.35-35.06 94.99-59.51 144z" fill="#F6B888" fill-rule="nonzero"/><path d="M799.93 460.94c11.11-4.22 16.17-17.26 17-29.11.33-4.73.18-9.62-1.61-14-1.79-4.38-5.46-8.25-10.1-9.21 9-7.43 13-21.48 6.79-31.37a11.34 11.34 0 00-5.42-4.81c-4.6-1.67-9.7 1.33-12.71 5.19-3.01 3.86-16.41-61.222-19.4-57.342-4 5.16-8.37 47.362-13.63 51.212-8.09 5.91-5.03 44.88-7.03 54.66-2 9.78 2.53 21.36 11.89 24.93 6.5 2.48 13.8.84 20.38-1.4a11 11 0 003.66 12.94c3.98 2.76 9.9 2.31 10.18-1.69zM378.74 442.158c-8.06-4.458-12.29-15.445-11.08-25.396 1.21-9.951 7.14-18.699 14.65-24.26-9.164-4.183-14.69-14.673-13.5-25.629.813-5.57 3.186-10.71 6.78-14.687 5.882-6.655 14.192-9.91 22.518-8.822 8.325 1.09 15.733 6.402 20.072 14.394 2.7 4.981 4.06 10.72 5.14 16.425 2.06 10.931 3.2 22.052 3.41 33.219-4.39-7.043-12.43-10.252-20.11-10.765a25.105 25.105 0 00-11.42 1.594c-7.29 3.075-12.41 10.697-15 18.888-2.484 8.051-2.988 16.697-1.46 25.039z" fill="#A6592D" fill-rule="nonzero"/><path d="M434.3 427.7c1.33-15.82-12.404-38.438-39.344-31.886-8.37 2.18-14.76 9.44-17.75 17.56s-3 17-2.2 25.65C378.626 477.464 399.91 509 433 532.42c1.426 37.915 22.335 70.84 46.478 100.11 24 28.95 50.752 53.11 90.052 68.83 66.06-4.54 115.87-48.82 149.52-102.08 10.21-16.16 18-44 18.56-65.19 29.39-12.65 55.03-34.528 63.76-65.288 8.73-30.76-3.323-69.072-15.053-71.412-11.73-2.34-30.977 17.54-33.017 28.76C772 405 788.93 381.7 798 355c23-67.92-12.46-147.1-72.63-186.12-60.17-39.02-138.89-41.81-207.22-20-18.42 5.87-36.55 13.52-51.74 25.47-25.09 19.65-40.19 49.47-50.34 79.65-6.16 18.35-10.82 37.39-11.21 56.74-.86 42.58 18.64 82.55 29.44 116.96z" fill="url(#c)" fill-rule="nonzero"/><path d="M577.69 510.41c-6.68 1.76-14-1.57-18.28-6.88-4.28-5.31-5.91-12.22-6.26-19-.45-8.55 1.18-17.55 6.55-24.32 2.21 8.11 11.85 11.92 20.42 12.66a59.77 59.77 0 0040.2-11.31 71.73 71.73 0 015.68 17.86c.85 4.81 1.19 9.87-.44 14.48-2.12 6-7.3 10.51-12.73 14a50.73 50.73 0 01-18.91 7.87c-6.81 1.23-14.09.38-16.23-5.36z" fill="url(#d)" fill-rule="nonzero" opacity=".99"/><path d="M465.594 421.759c-1.173-21.905 13.292-42.142 31.178-52.615 13.504-7.881 30.272-11.276 44.312-4.547 14.04 6.73 23.252 25.672 16.835 40.667-12.855-15.475-34.81-20.01-53.311-14.023-18.5 5.986-33.547 21.089-43.608 38.759.939-.108 5.053.264 4.594-8.241z" fill="#FBC799" fill-rule="nonzero"/><path d="M470.785 438.932c-9.785-26.84 37.579-64.631 63.819-54.365 34.09 13.375 33.246 49.034 19.516 67.655-21.43 10.757-75.912 7.504-83.335-13.29z" fill="#FFF" fill-rule="nonzero"/><path d="M475.509 388.518a92.68 92.68 0 0160.176-12.5c5.218.714 10.483 1.88 15.73 1.147 5.247-.734 8.237-2.719 11.358-8.86 6.187-12.172-13.041-12.972-13.041-12.972-19.153-5.352-40.497-.94-58.587 7.59-9.233 4.337-18.006 9.811-24.747 17.035-6.742 7.224 2.162 12.83 9.11 8.56z" fill="#8A5434" fill-rule="nonzero"/><path d="M523.154 448.706c25.587-5.796 20.201-61.175-3.882-59.676-24.226 3.794-22.999 64.694 3.882 59.676z" fill="#3B3129" fill-rule="nonzero"/><path d="M557.61 393.443c-3.651-3.882-8.84-6.683-14.227-8.732-10.1-3.826-21.482-5.744-32.541-4.146a45.586 45.586 0 00-25.068 11.12 37.797 37.797 0 00-9.997 9.4 76.685 76.685 0 00-6.231 8.666c-2.232 4-4.156 8.16-5.757 12.446-1.385 3.619-2.618 7.322-2.741 11.138-.218 1.683.36-.282.711-.94 1.85-4.126 5.264-8.318 8.29-12.304 4.742-6.232 7.35-8.883 13.525-14.41 4.571-4.22 4.657-4.145 9.304-6.88 4.647-2.736 4.05-3.13 7.104-4.56 6.781-2.885 6.64-3.073 12.946-4.473 6.554-1.185 8.65-1.504 17.139-1.157 6.374.414 16.883 1.88 23.882 6.195 4.287 2.933 7.92 6.937 9.03 11.486.275-4.587-2.116-9.164-5.369-12.85z" fill="#674D3A" fill-rule="nonzero"/><path d="M715.406 421.759c1.173-21.905-13.292-42.142-31.178-52.615-13.504-7.881-30.272-11.276-44.312-4.547-14.04 6.73-23.252 25.672-16.835 40.667 12.855-15.475 34.81-20.01 53.311-14.023 18.5 5.986 33.547 21.089 43.608 38.759-.939-.108-5.053.264-4.594-8.241z" fill="#FBC799" fill-rule="nonzero"/><path d="M708.37 442.158c2.203-30.384-35.734-67.857-61.974-57.591-34.09 13.375-33.246 49.034-19.516 67.655 21.43 10.757 80.303 13.125 81.49-10.064z" fill="#FFF" fill-rule="nonzero"/><path d="M705.491 388.518a92.68 92.68 0 00-60.176-12.5c-5.218.714-10.483 1.88-15.73 1.147-5.247-.734-8.237-2.719-11.358-8.86-6.187-12.172 13.041-12.972 13.041-12.972 19.153-5.352 40.497-.94 58.587 7.59 9.233 4.337 18.006 9.811 24.747 17.035 6.742 7.224-2.162 12.83-9.11 8.56z" fill="#8A5434" fill-rule="nonzero"/><path d="M657.846 448.706c-25.587-5.796-20.201-61.175 3.882-59.676 24.226 3.794 22.999 64.694-3.882 59.676z" fill="#3B3129" fill-rule="nonzero"/><path d="M623.231 393.443c3.544-3.882 8.58-6.683 13.809-8.732 9.804-3.826 20.85-5.744 31.584-4.146 9.04 1.053 17.54 4.937 24.33 11.12a37.16 37.16 0 019.703 9.4 76.678 76.678 0 016.048 8.666c2.167 4 4.035 8.16 5.588 12.446 1.344 3.619 2.54 7.322 2.66 11.138.212 1.683-.35-.282-.69-.94-1.795-4.126-5.109-8.318-8.046-12.304-4.602-6.232-7.134-8.883-13.127-14.41-4.437-4.22-4.52-4.145-9.03-6.88-4.511-2.736-3.931-3.13-6.895-4.56-6.582-2.885-6.444-3.073-12.566-4.473-6.361-1.185-8.396-1.504-16.635-1.157-6.186.414-16.386 1.88-23.18 6.195-4.16 2.933-7.686 6.937-8.763 11.486-.267-4.587 2.053-9.164 5.21-12.85z" fill="#674D3A" fill-rule="nonzero"/><path d="M761.406 466.398c-5.047-19.722 13.831-64.167 30.828-44.828 2.99 3.121 6.33 7.657 5.065 12.39-8.389-12.68-21.103-2.644-25.412 10.372-2.866 5.708-3.72 12.182-4.08 18.806-.202 4.177-4.942 8.48-6.401 3.26z" fill="#F9B682" fill-rule="nonzero"/><path d="M811.72 382.17c12-6.84 16.23-24.48 9.33-36.62 37.78 4.41 31.47-61.61 3.17-68 16.84-25.55 2.6-64.92-28.55-70.24-6.69-12.93-19.79-29.3-36-22.92 3.76-16-3.22-39.06-22.49-38.48-.78-39.87-53-49.58-81.3-31.08 43-42.71-40.81-80-51-22.22-14.4-8.78-41.92-13.7-46.59 7.69-18.6 0-36.39 13.37-41.64 31.21-21.73-12.67-57.75-10.11-65 17.74-24.21-.31-40.78 24.45-26.82 47.79-32.25-22.91-70.82 33.68-39.43 55.47 0 .14 0 .29 2.55 2.94-12.46-1.59-25.52 1.91-28.37 15.28-6.73 18.19-8.38 39.63 11.7 51.26-15.68-5.8-16.42 9.12-16.17 20.43.12 15.14 2.76 31.21 20.85 35.62 4.773 17.678 16.14 14.743 28.54 20.465 10.124 4.671 21.703 15.934 24.62 42.115 7.06-8 12.8-24.55 2-31 5.59-11.53 4.43-31.54-11.07-33.16 42.2 2.44 36-50.82-5.58-43.12 26.45-5.22 56.37-39.11 31.92-63.23 7.6-7.77 18.38-20.57 14.66-31.83 10 22.72 36.432 13.35 54 3-2.89 13 9.44 20.86 22.44 16.07-19.52 41.52 56.87 58.66 58.91 8 12.44 14.06 27-3.53 20.91-17.85 4.32 6.27 14.08 6.41 20.53 2.36 6.45-4.05 10.36-11 21.23-13.05 12.87 31.83 61.07 6.06 77.94-12.63-16.65 20.55-5.6 35.62 20.62 29.36-6.94 4.69-14.37 10-16.64 18.09-2.28 11.46 2.52 27.85 16.3 29.85-11.48 3.27-17.57 15.89-2.92 23.63-22.16 22.16-7.53 46 10.44 49.13-9.77-1.09-17.7 11.26-17.34 20.1.34 6.23 5.13 12.34 15.6 15.5-9.16-2.19-16.31 3.14-17.64 12.36-3.1 9.627-.91 18.56 6.57 26.8 1.953-23.46 9.446-39.325 22.48-47.595 19.55-12.405 41.373-6.87 37.24-19.235z" fill="url(#e)" fill-rule="nonzero"/><path d="M557.1 827.81s-35.77-97-50.44-138.44c.02 51 23.93 106.52 50.44 138.44z" fill="#F6B989" fill-rule="nonzero"/><path d="M728.117 473.93c-18.191-25.42-36.437-16.7-56.857-7.75s-37.06 31.07-32 52.83a22 22 0 005.65 10.93c8.14 7.86 21.72 4.84 32.12 9.28 9.51 4.06-2.1 14.61 0 24.74 2.1 10.13-9.81 45.66-10.03 56-.08 3.24 28.35-18.95 29.87-16.1 2.24 4.12 7.37 6.11 12 5.6 4.63-.51 8.88-3.14 12.29-6.36 14.32-13.5 7.71-39.06 11.35-58.4 4.42-23.51 13.799-45.35-4.393-70.77z" fill="url(#f)" fill-rule="nonzero"/><path d="M671.54 116.14c7.46-2.51 16-2.7 23 .9s12 11.45 11 19.25c-.62 4.67-3.24 9-3 13.74 9-9.18 25.74-9.08 34.66.21 2-5.8-2.19-12.47-8-14.51-5.81-2.04-12.36-.17-17.28 3.47 3.52-10.69-2.81-23.2-12.92-28.14-10.11-4.94-22.83-2.87-27.46 5.08z" fill="#A96132" fill-rule="nonzero"/><path d="M714.797 670.085c34.793 33.423 103.44 56.414 158.112 72.073l4.177 1.19 4.117 1.162 2.035.57 4.018 1.12 5.89 1.626 5.713 1.565 14.235 3.881 1.667.456c38.118 9.934 67.687 30.195 90.53 54.82C916.334 922.845 765.233 989 601 989c-172.435 0-333.83-72.927-422.906-197.926l.011-.01a35.161 35.161 0 013.303-4.494c30.26-27.896 65.764-35.476 105.446-42.534l5.437-.961 8.252-1.454c47.08-8.34 99.609-19.002 155.927-62.811 3.74 2.88 7.407 5.734 11.006 8.552l5.35 4.197 10.422 8.195c76.852 60.332 125.532 93.398 231.549-29.67z" fill="#2E2F33"/><path d="M513.59 541.86c28.41.09 45.61-35.48 27.86-57.69-17-21.09-69.15-31.85-92.2-18.93-14.83 8.32-21.84 100.58 12.35 133.94 17.25 11.87 29.34-5.25 27.43-22.8-2.22-19.24 2.44-35.5 24.56-34.52z" fill="url(#g)" fill-rule="nonzero"/><path d="M740.61 502.13c0 48.43 8.46 77.63-46 135.7-8.56 80.47-114.47 82.79-157.27 67.17-27-14.48-63-35.82-61.43-70.2-33-26.42-47.22-89.79-45.2-135.45 21.81 40.12 34.63 102.17 70.42 118.12 30.27 6.34 13.28 10.05 36.38 22.43 5 2.68 22 7.58 25 8-9.93-4.44-16.7-27.14-5.31-33.89 16.85 7.69 48.09 4.78 67.65-2 9.51 7.65 5.75 28.81-2.91 35.89 28.54 8.6 34.17-28.76 46.31-27.89 27.28 1.9 63.24-80.71 72.36-117.88z" fill="url(#h)" fill-rule="nonzero"/><path d="M523.976 650.71c-9.38-28.035-22.071-52.454-32.951-80.987-11.41-29.892-5.042-46.33 18.418-46.694 32 6.205 44.687 6.569 79.507-7.139 17.68 6.07 27.49 8.5 45.82 7.14 18.08-1.98 59.524-15.192 56.986 27.476-5.142 33.45-27.59 107.678-37.74 100.878-19.08 14.68 23.678-103.132 12.984-104.564-18.354-2.458-44.458-4.007-78.311-4.649-46.436 3.1-73.445 5.877-81.029 8.335 3.49 27.804 50.506 151.174 16.316 100.204z" fill="url(#i)" fill-rule="nonzero"/><path d="M549.346 581.146c20.76 6.294 63.267 6.755 86.055-4.504 17.165-8.445 33.848-27.578 19.366-26.8-41.846 2.253-70.49 4.705-133.823 2.253-18.945-.734 6.34 22.362 28.402 29.05z" fill="url(#j)" fill-rule="nonzero"/><path d="M788.34 176.26a47.79 47.79 0 00-1-7.17c-19.92-9.86-31.66-13.06-52.94-19.48-14.13-4.26-40.1-7.67-54.88-8.41-14.78-.74-26.75.83-40.79 2.56-7.76 6-17 10.49-26.84 10.83-9.84.34-20.08-4-24.12-12a442.25 442.25 0 00-120.34 3.06c-9.49 1.55-19.06 3.45-27.73 7.63-4.33 2.1-21.27 9.21-21.27 9.21a19.79 19.79 0 011.74 6.72 5.26 5.26 0 00-1.32 2.55 7357.027 7357.027 0 00-11.52 59.18 7.54 7.54 0 00.06 4.44 7.62 7.62 0 001.82 2.26l9.1 8.71a207.88 207.88 0 0113.53-39.89c9.44 18.64 6.94 16.6 19.71 31.86 5.71 6.82 15.52 13.46 24.36 14.42a228.89 228.89 0 0081.8-6c5.75-1.49 11.6-3.29 16.23-7 4.63-3.71 7.55-8.94 10.2-14.19 4.8-9.52 6.85-16.43 10.1-26.59 2.73-8.53 2.89-19.43 14.62-20.18 12.23-.78 14.24 16.16 15.75 26.63 1.33 9.25 1 18.8 3.82 27.71s10 17.4 17.82 17.66a222.29 222.29 0 0055 9c16 .58 31.8 5.21 45.58-3 12.64-7.5 22.49-26 29.64-38.82.61-1.1 1.21-2.22 1.8-3.34.3.81.58 1.64.84 2.46a131.68 131.68 0 016.2 34.55 49 49 0 0010.24-5.39 6.52 6.52 0 002.23-2.17 7.52 7.52 0 00.57-3.6c-.19-21.87-1.35-44.54-10.01-64.21z" fill="#D6D6D6" fill-rule="nonzero" opacity=".86"/><path d="M571.67 208.21a73.45 73.45 0 0017.2-43.87c.12-2.58.05-5.34-1.4-7.48-1.71-2.54-4.9-3.57-7.88-4.32-26.8-6.74-55-4.3-82.4-1-16.61 2-33.9 4.64-47.56 14.3 0 2.46 2.77 3.86 5.16 4.46 8.5 2.14 17.41 1.52 26.18 1.31 17-.41 34.22.83 50.28 6.36 16.06 5.53 30.95 15.72 40.42 30.24z" fill="url(#k)" fill-rule="nonzero"/><path d="M582.33 165.86c-3.3-4-8.37-6.1-13.32-7.68-39-12.45-81.17-3.17-119.4 6.46-5.23 9.66-5.86 21.46-2.83 32 3.03 10.54 9.48 19.93 17.43 27.47 4 3.8 8.5 7.23 13.69 9.08 5.79 2.06 12.08 2 18.22 2 18.45-.14 37.15-.31 54.42-4.94 10.32-6.5 21.24-13.7 25.89-25 1.57-3.9 9.21-35.36 5.9-39.39z" fill="url(#l)" fill-rule="nonzero"/><path d="M452.37 209.66c7.778 8.089 69.632-.529 100.709-11.76 31.374-11.339 31.919-25.373 28.131-34.29-47.55-22.35-103.24-6.42-131.6 2.16-8.29 16.35-3.84 34.31 2.76 43.89z" fill="url(#m)" fill-rule="nonzero"/><path d="M617.41 500.44c-4.38.82-8.37 2.9-12.5 4.48-5.76 2.08-9.56 3.39-16.28 4a36.93 36.93 0 01-16.11-2.22 60.78 60.78 0 00-15.84-4.51c-3.49-.7-7 .71-9.85 2.61a11.68 11.68 0 019.78.79 98.12 98.12 0 0113.27 7.8c11.65 7.92 23.85 6.51 35.41-.74 5.26-3.29 9.82-7.88 15.8-9.92a34.9 34.9 0 017.28-.94c-3.54-1.16-7.24-2.19-10.96-1.35z" fill="#F2A877" fill-rule="nonzero"/><path d="M596.05 482.64a54.38 54.38 0 00-7.61-.95 53.24 53.24 0 00-14.09 2.08c-4.25 1-7.78 3.69-11.53 5.81-1.25.79-2.49 1.61-3.72 2.44 2.12-.78 4.24-1.55 6.38-2.26a45.66 45.66 0 0116.37-3.26c2.63-.11 5.24-.42 7.87-.45 2.11.08 4.2.32 6.31.37 6.59.39 12.66 3.46 18.93 5.3-6.07-3.41-11.96-7.83-18.91-9.08z" fill="#FCC99B" fill-rule="nonzero"/><path d="M551.5 566.78c12.45 3.18 26.35 3.711 39.74 2.746 13.39-.965 26.4-3.26 39.35-5.566l-79.09 2.82z" fill="#E8E8E8" fill-rule="nonzero"/><path d="M411.67 453.8c.75-7.42-.17-15.28-4.11-21.54-3.94-6.26-11.31-10.54-18.44-9.24a7.62 7.62 0 00-3.89 1.73c-2 1.83-2.23 4.85-2.37 7.58a15.85 15.85 0 012.14-14.44 14.83 14.83 0 0113-5.89c8.45.75 14.63 8.73 17.72 16.87a54 54 0 012.72 28c-.36 2.16-1.22 4.68-3.29 5.17-.99.22-4.29-.32-3.48-8.24z" fill="#F9B682" fill-rule="nonzero"/><path d="M770.46 311.27c5.83-4.14 12.34-8.48 19.46-7.82a22.57 22.57 0 016.53 1.8 26.38 26.38 0 0110.64 7.54c2.72 3.45 4.18 8.06 3.17 12.33-1.17-4.19-4.7-7.42-8.64-9.27-3.94-1.85-8.32-2.55-12.63-3.22a27.16 27.16 0 00-6-.49 14 14 0 00-9.74 4.94c-.66.79-1.37 1.74-2.4 1.81-1.54.1-2.42-2-1.79-3.4.63-1.4 2.16-2.19 1.4-4.22zM778.44 351.4a14.46 14.46 0 00-9.37 4.33 30.12 30.12 0 00-5.88 8.71c-2 4.21-3.57 9.43-1 13.36 1.56 2.42 4.36 3.76 7.15 4.52 6.66 1.82 13.79.94 20.44-.93a17 17 0 007-3.38c3.44-3.14 4.12-8.21 4.59-12.84a35.09 35.09 0 01-15.72 12.37c-4.64 1.83-10.18 2.56-14.45 0a7.12 7.12 0 01-2.83-3 7.56 7.56 0 01-.58-3 20.05 20.05 0 011.69-7.39c2.12-5.44 5.23-10.43 8.96-12.75z" fill="#944A1F" fill-rule="nonzero"/><path d="M782.62 306a13 13 0 0015.93-6.44 18.94 18.94 0 001.5-6.74c.22-3.35 0-6.85-1.65-9.79-1.74-3.2-4.85-5.38-7.85-7.45l-6.16-4.23c-.48-.33-1-.74-1-1.32 0-.58.56-1.06 1.09-1.35 5.14-2.86 11.94-1.7 16.46 2.06 4.52 3.76 6.87 9.69 7.14 15.56.27 5.87-1.35 11.69-3.7 17.08-1.25 2.88-2.84 5.8-5.53 7.44a17.6 17.6 0 01-6.18 1.91 12.72 12.72 0 01-5.24.19c-1.71-.38-3.33-1.72-4.81-6.92zM752 285.19c2.7 2.62 7 3.11 10.57 1.88a18.6 18.6 0 008.64-7 25.48 25.48 0 005-14.4 18.8 18.8 0 00-5.68-13.94c4.72 5.79 9.72 12.37 9.2 19.82a21.08 21.08 0 01-2 7.26c-2.49 5.42-6.69 10.45-12.42 12.13-2.67.79-5.99.61-13.31-5.75zM794.14 343.21c2.81 1 6 .77 8.67 2.16 3.61 1.89 5.17 6.52 4.44 10.54-.73 4.02-3.31 7.46-6.25 10.3 5-.23 9-4.73 10.55-9.5a17.29 17.29 0 00-.88-13.78c-2.32-4.13-7.11-7-11.8-6.3a16 16 0 01-4.73 6.58zM546.47 262.38c4.64 4 9.51 8.15 15.46 9.7a27.56 27.56 0 009.06.63c6.68-.51 13.39-2.67 18.45-7.06 5.06-4.39 8.23-11.2 7.29-17.84A34.74 34.74 0 01568 267.12a22.7 22.7 0 01-11-1.8c-3.41-1.59-6.31-4.46-10.53-2.94zM597.54 228.66a6.68 6.68 0 003.55 11.26c5.05.93 9.3-4.06 10.85-9a26.72 26.72 0 00-1.46-19.6c-.69 4.38 1.19 9.15-.7 13.16-2.15 4.59-8.19 5.86-12.24 4.18z" fill="#944A1F" fill-rule="nonzero"/><path d="M643.87 213.68c-8.41-16-12.69-38.35-9.38-53.52 24.56-15.68 62-8.64 90.41-1.27 14 3.23 43.14 23.32 43.14 23.32S741.71 174 731 170.48c-22.75-5.57-51.55-8.64-72.14 4.27a33.18 33.18 0 00-12.64 31.3c1.17 7.44 1.56 16.68-2.35 7.63z" fill="url(#n)" fill-rule="nonzero"/><path d="M774.23 180.58c-33.52-21.07-74.68-22.32-113.59-20.09-6.18.36-13 1.11-17.15 6-2.87 3.39-3.8 8.12-4.22 12.65a77.37 77.37 0 0019.26 57.64 144.35 144.35 0 0068.56 10.42c5.87-.55 11.89-1.54 16.91-4.81 4.43-2.89 7.72-7.34 10.88-11.72 10.6-14.67 21.39-31.95 19.35-50.09z" fill="url(#o)" fill-rule="nonzero"/><path d="M628.3 152c3.17-6.88 12-8.71 19.54-9.29A238.81 238.81 0 01742 154.4c-3.62 1.68-7.84.81-11.74 0a331.61 331.61 0 00-83-6.93c-7.34.32-16 1.77-19.11 8.44a5.72 5.72 0 00.15-3.91z" fill="#FFF" fill-rule="nonzero" opacity=".89"/><path d="M744.98 219.86c2.06 0 16.82-4.34 18.55-5.5a12.94 12.94 0 002.81-2.77 40.38 40.38 0 008.52-26.13 9.78 9.78 0 00-1.28-5.22 9.61 9.61 0 00-3.84-2.88c-21.78-11-45.86-16.06-69.89-18.33-40.49-3.83-54 3.59-56.36 7.46-7.88 13-5.12 32.69-2.5 34.59 20.28 14.7 86.78 18.66 103.99 18.78z" fill="url(#p)" fill-rule="nonzero"/><path d="M562.29 119.55a40.15 40.15 0 0139.49-18.13c6.43 1 12.75 3.78 17.1 8.62 4.35 4.84 6.47 11.91 4.48 18.11 4.29-10.83-1.05-24-10.75-30.47-9.7-6.47-22.61-6.78-33.56-2.75C569 98.65 560 106.22 556.22 116.3a6.86 6.86 0 00-.54 4c.32 1.26 3.5 4.3 6.61-.75zM645.18 102.16c2.49-4.19 5-8.43 6.35-13.12 1.35-4.69 1.37-9.94-1-14.21-3.43-6.26-11.45-9-18.48-7.81-7.03 1.19-13.05 5.77-17.8 11.14-1.09-2.63.22-5.65 1.93-7.93a25.77 25.77 0 0116.52-9.6 19.41 19.41 0 018.38.31c8.15 2.33 12.72 11.22 13.8 19.63a21.44 21.44 0 010 6.69c-1.07 5.65-5.3 10.09-9.7 14.9z" fill="#A96132" fill-rule="nonzero"/><path d="M383.58 257c-5.43 9.94-3.08 23 4.08 31.76 7.16 8.76 18.32 13.62 29.56 15-7.78-1.1-14.11-6.76-19.2-12.75-4.06-4.77-7.73-10-9.69-15.95-1.96-5.95-2.07-12.71.8-18.27.37-.73.74-1.75.1-2.25a1.71 1.71 0 00-1.39-.14c-1.24.25-2.92.19-4.26 2.6zM400.26 263.54c2.21 8.07 4.91 16.84 11.92 21.4a25.13 25.13 0 008.86 3.31 45.73 45.73 0 0012.19.76c-5.25-2.28-10.56-4.6-15.16-8-4.6-3.4-8.52-8.06-10-13.6-.65-2.53-.82-5.3-2.36-7.42s-7.15-2.69-5.45 3.55zM401 196.49a28.05 28.05 0 0015 50.14 16.14 16.14 0 01-7.75-.19c-11.12-2.63-19.94-12.5-22.1-23.72-2.16-11.22 2.01-23.27 14.85-26.23zM387.3 339c-3 3.45-6.51 6.44-8.94 10.28a22 22 0 0024.51 32.88c-2.92 1.05-6.19-.14-8.75-1.9a21.25 21.25 0 01-9.05-17.92 22.88 22.88 0 0110.1-17.68c.08-1.33-1.62-2.42-7.87-5.66zM405.14 352.32a15.21 15.21 0 0019.6-18.73c-2.93 7.85-12.9 12.19-20.64 9-1.63-.67-3.71-1.55-5-.3s-.28 3.44.76 4.93a25.9 25.9 0 005 5.89c2.14 1.59 4.83 2.56.28-.79z" fill="#944A1F" fill-rule="nonzero"/><path d="M421.41 366c-4.71-.93-9.48-1.88-13.8-4s-8.22-5.47-9.89-10c-.32-.84-.42-2 .39-2.4a1.82 1.82 0 011.61.29c2.39 1.33 4.32 3.34 6.55 4.93a22.3 22.3 0 0016 3.88c-.61 1.3-1.22 2.48-.86 7.3zM402 299.36a15 15 0 00-24.6 9.93c-.65 6.35 3.07 12.75 8.57 16s12.49 3.49 18.53 1.39c-3.16.25-6-1.83-8.47-3.79a28.28 28.28 0 01-6-5.78 9.51 9.51 0 01-1.68-7.9c1.19-4.08 5.63-6.15 9.59-7.73 2.51-1 5.06-2.01 4.06-2.12z" fill="#944A1F" fill-rule="nonzero"/><path d="M555.63 125.91a18.71 18.71 0 00-18.1-7.91c-6.85 1.19-12.73 7.13-13.42 14a111.15 111.15 0 0124.24-5.35c3.13-.3 7.27.19 7.28-.74zM470.59 138.53a32.88 32.88 0 0126.27-5.89c-1.17-3.19-4.58-5.13-8-5.43-3.42-.3-6.73.77-9.87 2.08a65.13 65.13 0 00-14.23 8.18c.52 1.25 2.92 3.26 5.83 1.06z" fill="#A96132" fill-rule="nonzero"/><path d="M622.25 709.16a127.4 127.4 0 008.82-23.08 12.59 12.59 0 013.51 12c-1.26 4.97-5.38 8.58-12.33 11.08zM649.16 698.29a67.56 67.56 0 003.51-23.21c3.4 2.75 6.5 6.26 7.34 10.55.84 4.29-1.32 9.37-10.85 12.66zM547 707.27a42.84 42.84 0 01-7-12.88c-.54-1.62-.56-4 1.12-4.35 1.26-.24 2.23 1 2.89 2.14a90.1 90.1 0 0013.15 16.9c-2.08.49-4.43-.08-10.16-1.81zM524.42 696c-4.36-3.09-8.8-6.25-12-10.54-3.2-4.29-5-10-3.36-15.07 1.61-1 3.53.65 4.7 2.14l13.58 17.34c1.38 1.76 2.84 4 2.08 6.07-3.17.25-6.42-.54-5 .06zM578.37 636.71c-.16 2.62 7.5 18.29 9.57 13.5.29-.85-4.32-15.09-9.57-13.5zM594 635.91c-5.8 0-5.09 17.65.19 15.25 1.39-.66.49-15.24-.19-15.25zM597 650.71c3.78-1.48 14.39-17.52 6.64-14.16-4.23 4.08-6.51 11.63-6.64 14.16zM700.82 632.28l5.14-27.8c2.18 2.3 2.16 5.87 1.69 9-1.29 8.69-4.98 17-6.83 18.8zM675.34 680.26a33.18 33.18 0 00-7.08-29.55 17.36 17.36 0 0111.85 10.65c1.89 5.18 1.09 11.28-4.77 18.9zM503.51 683.45a25 25 0 011.43-37.66c-4.4.66-9 2-11.91 5.35-3.55 4.12-3.59 10.29-2 15.5 1.81 6.23 6.07 12.13 12.48 16.81zM475.43 632.53a77.8 77.8 0 01-6.68-25c-.92-.57-1.86.73-2.1 1.79-1.65 7.05.56 14.88 8.78 23.21z" fill="#944A1F" fill-rule="nonzero"/><path d="M746.619 704.493c-18.88 24.778-45.194 45.186-72.86 62.124l-2.104 1.28-1.054.635-2.11 1.26-2.115 1.247-4.807 2.898-3.21 1.926-3.218 1.92c-17.717 10.535-35.77 20.647-54.935 28.53 59.501-18.423 115.482-54.582 148.826-105.132a35.963 35.963 0 00-2.413 3.312zM553.932 794.461c-21.267-10.203-39.43-21.124-57.46-34.25l-2.163-1.586a446.78 446.78 0 01-11.926-9.126l-2.183-1.737-2.19-1.763-1.098-.89-2.203-1.803-2.214-1.829c-.74-.614-1.48-1.233-2.224-1.856l-2.237-1.885-2.251-1.913-2.265-1.942-2.281-1.972-1.147-.997-2.307-2.018-2.326-2.049-2.346-2.08c-.392-.35-.786-.7-1.18-1.053l-2.378-2.13-2.4-2.162-2.424-2.196-2.45-2.23-2.475-2.266c31.162 39.752 72.703 75.404 122.942 86.644a95.54 95.54 0 01-2.947-1.617l-2.92-1.67a100.79 100.79 0 00-2.947-1.624z" fill="#191A1C" fill-rule="nonzero"/><path d="M418.61 162.48c-3.32 7.85-1.27 15.06.59 22.34 6.92.1 12.8 5.27 16.55 11.09s6 12.49 9.84 18.28a10.12 10.12 0 003.84 3.84c1.66.78 3.91.58 5-.9 1.3-1.77.39-4.25-.6-6.21-3.31-6.55-7.28-12.9-9-20a34.54 34.54 0 019.74-32.59 6.08 6.08 0 001.75-2.2c.63-1.75-.72-3.72-2.44-4.41a9.88 9.88 0 00-5.5-.1c-10.01 1.85-19.58 6.1-29.77 10.86z" fill="url(#q)" fill-rule="nonzero"/><path d="M417.65 179.67c.81 1.92 1.46 3.88 2.08 5.84l-1-.48a6.37 6.37 0 013.21-.68 9.31 9.31 0 013.11.73c.95.403 1.857.899 2.71 1.48.85.6 1.61 1.23 2.36 1.87a29.9 29.9 0 014.05 4.37 25.1 25.1 0 013 5.1c-1.33-1.45-2.63-2.87-4-4.2a56.67 56.67 0 00-4.26-3.8 22 22 0 00-4.6-3.05 6.55 6.55 0 00-5-.54l-.86.3-.12-.78c-.27-2.04-.55-4.08-.68-6.16z" fill="#A8A8A8" fill-rule="nonzero"/><path d="M447.48 150.45a230.07 230.07 0 0134.19-8.36c2.89-.51 5.8-.94 8.7-1.4 2.9-.46 5.82-.74 8.75-1 5.84-.72 11.72-1.06 17.63-1.29 1.48-.07 3-.08 4.44-.13 1.44-.05 3-.09 4.3-.08l8.68-.13c2.92 0 5.84-.11 8.76-.1l8.76.16c5.85.08 11.71.48 17.58.93 1.47.09 2.94.25 4.41.43 1.47.18 2.93.35 4.41.56 1.48.21 2.94.42 4.42.66 1.48.24 3 .64 4.43 1l1 .2.37.46c1.6 2 3.25 3.9 4.89 6a16.35 16.35 0 012.24 3.48 7.28 7.28 0 01.54 4.13h-.6a6.4 6.4 0 00-1-3.49 16.5 16.5 0 00-2.45-2.86c-1.84-1.78-3.74-3.52-5.56-5.33l.2.1a159.33 159.33 0 00-17.36-1c-5.8-.08-11.61 0-17.42.06-5.81.06-11.62.27-17.43.45l-8.72.28-8.72.1c-11.6.3-23.2 1.11-34.75 2.31s-23.1 2.67-34.57 4.51l-.12-.65z" fill="#FFF" fill-rule="nonzero"/><path d="M441.69 152.37a91.27 91.27 0 01-8 4.48c-2.73 1.39-5.52 2.64-8.34 3.83l-2.14.85-1.1.41a11.14 11.14 0 01-1.17.33 4.2 4.2 0 00-1.72.67 3.83 3.83 0 00-.95 1.57 22.59 22.59 0 00-1.43 8.79 16.54 16.54 0 01-.05-9.28 4.88 4.88 0 011.25-2.38 5.82 5.82 0 012.4-1.2c.37-.11.72-.2 1-.32l1-.41 2.1-.87c2.81-1.15 5.62-2.32 8.46-3.41 2.84-1.09 5.75-2.16 8.69-3.06z" fill="#A8A8A8" fill-rule="nonzero"/><path d="M752 154.92c17.91 4.94 30.13 11.08 43.36 20.46-.35 5.7-2.91 11.52-3.41 15.85-9.68 6.19.6 18-20.39 11.57 5.42-16.67 2-22.56 2-22.56s-6.76-4.07-18.55-10.16c-.19.04-2.35-11.52-3.01-15.16z" fill="url(#r)" fill-rule="nonzero"/><path d="M775.56 163.61a31.24 31.24 0 015.2 1.93c1.68.79 3.31 1.68 4.9 2.63 1.59.95 3.15 2 4.66 3 1.51 1 3 2.16 4.45 3.34l.45.37-.12.58c-.25 1.27-.48 2.55-.76 3.82l-.8 3.82c-.26 1.27-.57 2.53-.85 3.8s-.57 2.54-.89 3.8v.19l-.09.12c-1.22 1.56-2.44 3.18-3.63 4.8l-3.59 4.89c.84-1.85 1.79-3.64 2.78-5.41.99-1.77 2-3.5 3.2-5.2l-.13.31c.2-1.29.42-2.57.65-3.85.23-1.28.45-2.56.7-3.83l.75-3.83c.23-1.28.52-2.55.78-3.82l.34.94c-1.39-1.14-2.83-2.28-4.26-3.4-1.43-1.12-2.9-2.21-4.39-3.26-1.49-1.05-3-2.09-4.53-3.06a54.51 54.51 0 00-4.82-2.68z" fill="#A8A8A8" fill-rule="nonzero"/><path d="M778.29 214.62c1.878-6.28 3.022-8.2 4.72-13.89 3.672 15.56 4.648 32.61 4.165 46.44-1.446 1.69-2.657 3.45-4.938 4.46-.185-9.78-1.548-21.33-3.947-37.01z" fill="url(#s)" fill-rule="nonzero"/><path d="M811.14 250.08a36.14 36.14 0 001.34-12.43 11.76 11.76 0 00-1.42-5.44c-2.62-4.35-9.71-6.48-16.07-6-6.36.48-12 3.18-17 6.2-3.1 1.89-6.06 4-7.89 6.65-1.83 2.65-2.38 5.93-.6 8.6 1.67 2.51 5 4.1 8.26 5.55 4 1.81 8.25 3.68 12.93 3.72a31 31 0 007.68-1.14 24.82 24.82 0 006.92-2.48c2-1.17 3.45-3.04 5.85-3.23z" fill="#B16738" fill-rule="nonzero"/><path d="M811.1 241.14c.11-2.81-1.83-5.41-4.29-6.76a16.59 16.59 0 00-8.18-1.62 39.74 39.74 0 00-22 6.92 7.05 7.05 0 011.49-4.94 24.46 24.46 0 0118.62-10.83 16.64 16.64 0 015 .36c6.51 1.56 11.05 8.73 9.36 16.87z" fill="#944A1F" fill-rule="nonzero"/><path d="M422.65 246.66l-5.17-5.75s1.274-8 1.912-11.22c2.797-13.88 5.593-27.757 8.386-41.63.79 5.91 4.702 19.61 4.702 19.61-2.34 5.377-4.26 11.075-5.728 17a288.535 288.535 0 00-4.101 21.99z" fill="url(#t)" fill-rule="nonzero"/><path d="M398.37 225.26a14.14 14.14 0 0118-15c5.93 1.69 10.08 7 13.07 12.41s5.34 11.39 5.68 17.6c.18 3.2-.27 6.68-2.47 9-3.62 3.85-10 2.81-14.79.59a43.57 43.57 0 01-14-10.3 21.58 21.58 0 01-4.72-7.47c-.95-2.76-.69-5.98-.77-6.83z" fill="#B16738" fill-rule="nonzero"/><path d="M432.8 230.29c-9.91-34.78-45.49-20-33.66-5-2.54-7 6.33-11.35 12.28-9.31 10.63 2.49 17.29 12.67 20 22.69 1.43-3.08 1.99-6.74 1.38-8.38z" fill="#944A1F" fill-rule="nonzero"/><path d="M606.41 200.73c.81-5 3.31-6.59-1.17-9a12.6 12.6 0 00-14.15 1.91c-4 3.75-4.77 10.77-1 14.73 2.35 2.47 5.85 3.4 9.16 4.23-9.07 2.66-35.87-6.69-40.15 2.41-12.46 26.52 4.33 34.89 9.27 36.68 4.94 1.79 34.83-31.18 38.04-50.96z" fill="#B56C3C" fill-rule="nonzero"/><path d="M810.23 236.044c-.42-.702-.92.773-.47 1.445 3.91 5.86 4.09 13.438 3.75 20.508-.49 9.97-2.49 21.18-10.67 26.683-5.67 3.815-13 3.886-19.74 3.144 5.18 5.005 13.5 5.676 20 2.757 6.5-2.92 11.43-8.86 14.51-15.422 5.92-12.625 5.05-29.328-5-38.921a9.55 9.55 0 00-4.48-2.717c-1.66-.335-3.68.255 2.1 2.523z" fill="#944A1F" fill-rule="nonzero"/></g></svg>
