<?xml version="1.0" encoding="UTF-8"?>
<svg width="880px" height="531px" viewBox="0 0 880 531" version="1.1" xmlns="http://www.w3.org/2000/svg" xmlns:xlink="http://www.w3.org/1999/xlink">
    <!-- Generator: Sketch 52.6 (67491) - http://www.bohemiancoding.com/sketch -->
    <title>Artboard</title>
    <desc>Created with Sketch.</desc>
    <defs>
        <linearGradient x1="13.8108877%" y1="67.9902255%" x2="23.8523656%" y2="96.9468803%" id="linearGradient-1">
            <stop stop-color="#BCE6F0" offset="0%"></stop>
            <stop stop-color="#D0E0FC" stop-opacity="0" offset="100%"></stop>
        </linearGradient>
        <linearGradient x1="61.9095793%" y1="23.8187048%" x2="54.7521319%" y2="101.992763%" id="linearGradient-2">
            <stop stop-color="#E7E4F8" offset="0%"></stop>
            <stop stop-color="#E0DCFB" stop-opacity="0" offset="100%"></stop>
            <stop stop-color="#E0DCFB" stop-opacity="0" offset="100%"></stop>
        </linearGradient>
        <path d="M264.270561,168.280575 C620.912205,151.966701 504.803477,-14.9094936 730.398286,2.23399643 C843.993111,10.8663393 878.221382,148.820975 877.998924,287.554329 C877.909853,343.102427 852.577913,438.851435 774.171015,477.926809 C656.753894,536.443573 463.982778,525.780084 408.744753,526.873012 C360.543823,527.826706 188.434141,516.666308 92.0312355,469.725978 C4.02049703,426.871948 -12.2535662,352.025041 12.4352498,273.097508 C64.1670564,107.716396 206.189655,170.937373 264.270561,168.280575 Z" id="path-3"></path>
        <linearGradient x1="-1.11022302e-14%" y1="50%" x2="37.3893605%" y2="50%" id="linearGradient-4">
            <stop stop-color="#ADBED4" stop-opacity="0" offset="0%"></stop>
            <stop stop-color="#3A93B8" offset="100%"></stop>
        </linearGradient>
        <filter x="-3.2%" y="-24.7%" width="106.3%" height="149.3%" filterUnits="objectBoundingBox" id="filter-5">
            <feGaussianBlur stdDeviation="6" in="SourceGraphic"></feGaussianBlur>
        </filter>
        <linearGradient x1="50%" y1="50%" x2="50%" y2="100%" id="linearGradient-6">
            <stop stop-color="#DBF4FF" offset="0%"></stop>
            <stop stop-color="#DBF4FF" stop-opacity="0.693953804" offset="100%"></stop>
        </linearGradient>
        <linearGradient x1="28.6938734%" y1="33.640307%" x2="50%" y2="0%" id="linearGradient-7">
            <stop stop-color="#000000" stop-opacity="0" offset="0%"></stop>
            <stop stop-color="#4E7994" stop-opacity="0.5" offset="99.1645592%"></stop>
        </linearGradient>
        <linearGradient x1="50%" y1="48.7452307%" x2="4.10441872%" y2="102.090763%" id="linearGradient-8">
            <stop stop-color="#FFFFFF" stop-opacity="0" offset="0%"></stop>
            <stop stop-color="#FFFFFF" offset="100%"></stop>
        </linearGradient>
        <path d="M304.942543,461.985547 L301.557565,478.040588 C301.070806,480.3493 299.050518,482 296.711651,482 L290.954396,482 C288.218159,482 286,479.761424 286,477 C286,476.650263 286.03636,476.301491 286.108482,475.959412 L316.614849,331.266899 C316.708501,330.822702 316.858922,330.402864 317.057457,330.014453 L320.442435,313.959412 C320.929194,311.6507 322.949482,310 325.288349,310 L331.045604,310 C333.781841,310 336,312.238576 336,315 C336,315.349737 335.96364,315.698509 335.891518,316.040588 L305.385151,460.733101 C305.291499,461.177298 305.141078,461.597136 304.942543,461.985547 Z" id="path-9"></path>
        <path d="M706.270667,463.577795 L708.891104,475.959412 C708.963502,476.301491 709,476.650263 709,477 C709,479.761424 706.773388,482 704.026722,482 L698.247526,482 C695.899745,482 693.871758,480.3493 693.383144,478.040588 L662.760516,333.348074 C662.688119,333.005995 662.651621,332.657224 662.651621,332.307487 C662.651621,332.005386 662.67827,331.709544 662.729333,331.422205 L660.108896,319.040588 C660.036498,318.698509 660,318.349737 660,318 C660,315.238576 662.226612,313 664.973278,313 L670.752474,313 C673.100255,313 675.128242,314.6507 675.616856,316.959412 L706.239484,461.651926 C706.311881,461.994005 706.348379,462.342776 706.348379,462.692513 C706.348379,462.994614 706.32173,463.290456 706.270667,463.577795 Z" id="path-10"></path>
        <linearGradient x1="95.7318474%" y1="9.73171658%" x2="50%" y2="97.1933707%" id="linearGradient-11">
            <stop stop-color="#FFFFFF" offset="0%"></stop>
            <stop stop-color="#FFFFFF" stop-opacity="0.5" offset="100%"></stop>
        </linearGradient>
        <linearGradient x1="36.3108915%" y1="7.56293403%" x2="97.5631171%" y2="101.541824%" id="linearGradient-12">
            <stop stop-color="#5A73B4" offset="0%"></stop>
            <stop stop-color="#805695" stop-opacity="0.744338768" offset="100%"></stop>
        </linearGradient>
        <path d="M454,46 L616,46 C620.418278,46 624,49.581722 624,54 L624,166 C624,170.418278 620.418278,174 616,174 L454,174 C449.581722,174 446,170.418278 446,166 L446,54 C446,49.581722 449.581722,46 454,46 Z" id="path-13"></path>
        <path d="M317,91 L505,91 C509.418278,91 513,94.581722 513,99 L513,227 C513,231.418278 509.418278,235 505,235 L317,235 C312.581722,235 309,231.418278 309,227 L309,99 C309,94.581722 312.581722,91 317,91 Z" id="path-14"></path>
        <radialGradient cx="27.7511728%" cy="79.2999691%" fx="27.7511728%" fy="79.2999691%" r="36.3961662%" gradientTransform="translate(0.277512,0.793000),scale(0.487805,1.000000),rotate(85.750773),scale(1.000000,1.450252),translate(-0.277512,-0.793000)" id="radialGradient-15">
            <stop stop-color="#D99F4E" offset="0%"></stop>
            <stop stop-color="#E4CA76" offset="100%"></stop>
        </radialGradient>
        <path d="M402.753936,304.964301 C403.700217,305.520601 406.834552,306.946382 410.053105,307.092649 C416.038215,307.364642 423.673469,305.520601 425.433783,301.633042 C426.675558,298.890652 427.07984,296.820616 428.256782,292.257957 C430.00092,289.771481 437.043318,284.652181 435.86862,282.210454 C434.802915,279.995281 431.566191,280.101246 425.433783,279.394208 C424.814488,276.10926 421.734641,273.601609 418.792784,271.50133 C413.564935,267.769014 399.826367,269.486548 397.437229,269.486548 C396.215856,269.486548 392.652092,268.412389 387.192784,268.130005 C379.02947,267.707755 367.895782,268.26709 364.197378,270.502655 C355.406875,275.81623 349.732537,291.472838 358.082398,299.728573 C367.672529,309.210597 388.047962,308.554302 397.696542,307.269697 C399.352586,307.049212 401.038384,306.280747 402.753936,304.964301 Z" id="path-16"></path>
        <linearGradient x1="50%" y1="0%" x2="50%" y2="90.1350253%" id="linearGradient-17">
            <stop stop-color="#EECD86" stop-opacity="0" offset="0%"></stop>
            <stop stop-color="#C89649" stop-opacity="0.571766618" offset="54.8523302%"></stop>
            <stop stop-color="#B98030" stop-opacity="0.8" offset="100%"></stop>
        </linearGradient>
        <radialGradient cx="89.8339887%" cy="50%" fx="89.8339887%" fy="50%" r="36.3950447%" gradientTransform="translate(0.898340,0.500000),scale(0.490566,1.000000),rotate(85.774603),scale(1.000000,1.293907),translate(-0.898340,-0.500000)" id="radialGradient-18">
            <stop stop-color="#D99F4E" offset="0%"></stop>
            <stop stop-color="#E4CA76" offset="100%"></stop>
        </radialGradient>
        <path d="M407,306.656891 C404.920285,306.145447 403.189451,305.316361 402.529097,304.92076 C400.821457,306.256088 399.143433,307.035575 397.495026,307.259222 C387.890942,308.562253 367.609475,309.22796 358.063572,299.609936 C353.823937,295.338271 353.216621,289.113253 354.800472,283.323812 C356.87798,281.50592 359.637806,281.248308 361.153617,284.55363 C363.383885,289.416871 370.02501,297.401052 380.13442,297.905638 C390.243829,298.410224 399.70364,294.439714 403.160146,298.895466 C404.877762,301.10963 406.481651,304.112015 407,306.656891 Z" id="path-19"></path>
        <linearGradient x1="-15.3381572%" y1="72.3346297%" x2="61.8187913%" y2="45.2646381%" id="linearGradient-20">
            <stop stop-color="#E4CA76" offset="0%"></stop>
            <stop stop-color="#E4CA76" stop-opacity="0" offset="100%"></stop>
        </linearGradient>
        <path d="M431.707904,279.354796 C434.509841,279.707081 436.160688,280.177459 436.867234,281.682398 C438.054329,284.210905 430.937611,289.512149 429.175068,292.086997 C429.095643,292.402517 429.0197,292.706526 428.946755,293 C427.12735,292.113538 425.434646,290.932598 423.64561,289.975552 L422.846119,289.443986 C420.045632,288.783099 421.263548,286.280591 421.263548,284.278395 C421.263548,281.828828 420.753931,280.487965 421.655822,279.725196 C423.410608,278.241095 426.716953,279.518378 430.937611,279.374949 C431.190822,279.366345 431.448022,279.35945 431.707904,279.354796 Z" id="path-21"></path>
        <linearGradient x1="111.941948%" y1="92.1544758%" x2="39.0155333%" y2="24.0236834%" id="linearGradient-22">
            <stop stop-color="#E4CA76" offset="0%"></stop>
            <stop stop-color="#E4CA76" stop-opacity="0" offset="100%"></stop>
        </linearGradient>
        <path d="M405.713128,285.952236 C406.426549,285.103196 406.036867,282.956904 406.193675,282.008743 C406.431177,280.572647 408.180777,280.038413 407.984706,278.18675 C407.788635,276.335087 403.040963,274.014677 401.458538,273.000427 C399.876113,271.986177 396.475852,270.365811 395.365153,271.259607 C394.254453,272.153403 396.031875,278.95817 396.031875,280.286498 C396.031875,281.614826 396.278105,283.218277 396.665761,284.054665 C396.699992,284.128518 405.378411,286.350582 405.713128,285.952236 Z" id="path-23"></path>
        <radialGradient cx="50%" cy="32.1859152%" fx="50%" fy="32.1859152%" r="44.7984328%" gradientTransform="translate(0.500000,0.321859),scale(1.000000,0.960938),rotate(69.500928),scale(1.000000,0.614046),translate(-0.500000,-0.321859)" id="radialGradient-24">
            <stop stop-color="#E57126" stop-opacity="0.5" offset="0%"></stop>
            <stop stop-color="#FFFFFF" stop-opacity="0" offset="100%"></stop>
        </radialGradient>
        <path d="M602,195.898841 C601.95934,197.057485 601.808085,198.148734 601.355947,199.217879 C601.006272,200.043325 600.433238,200.753392 599.853156,201.439197 C597.166891,204.616976 594.476831,207.769415 591.347643,210.516949 C589.753774,211.916595 588.009193,213.242377 585.960475,213.80849 C583.755623,214.417196 581.299222,214.058658 579.363809,212.84502 C576.87217,211.283627 575.418171,208.547416 573.389512,206.424224 C572.621853,205.620344 570.768624,204.442383 569.711466,204.091393 C567.634557,203.401275 565.333373,203.594427 563.337784,204.491042 C562.396643,204.913739 558.273017,206.451274 557.559571,206.758053 C556.557169,207.189377 554.305693,206.854023 553.327145,205.501283 C551.991873,203.655217 552.072797,200.531934 551.728001,199.732367 C551.321944,198.792081 550.27887,198.055189 549.548618,197.334339 C549.168125,196.958664 549.289113,196.202858 549.050958,195.69555 C548.865633,195.30078 547.610428,194.946745 547.480416,194.552478 C547.246756,193.841872 547.333498,192.596992 547.480416,191.863203 C547.273321,191.620044 546.885696,191.698221 546.577765,191.786103 C545.407844,192.11984 544.331173,192.278891 543.114086,192.263795 C542.948736,192.261638 542.780675,192.256247 542.625083,192.201253 C542.43371,192.134398 542.275407,191.99853 542.124153,191.863203 C541.793452,191.56505 541.461667,191.234009 541.334266,190.808076 C541.248067,190.519089 541.142351,190.086687 541.194938,189.789073 C541.307159,189.152331 541.560335,188.640134 541.683399,188.00501 C542.254806,185.060684 544.281346,180.636442 543.574406,178.527268 C543.032274,176.909803 541.979453,177.418765 540.863745,176.909803 C539.748036,176.40138 538.23115,173.769764 537.7454,172.648861 C537.365907,171.774352 536.697458,170.05283 536.422597,169.141119 C535.251049,165.256508 536.604211,163.120376 538.840507,159.729091 C540.720622,156.876961 543.5679,154.819546 546.350665,152.827368 C548.415105,151.349545 550.495809,149.862016 552.808003,148.809046 C555.294763,147.676821 557.991871,147.074046 560.692232,146.645417 C569.283402,145.283512 578.695902,145.809727 585.777234,150.83573 C587.539164,152.087109 589.131406,153.608604 590.2791,155.434183 C592.857481,159.534995 592.949102,164.697943 592.430281,169.506127 C591.911461,174.314311 589.133575,179.953872 591.215363,184.323723 C593.516172,189.151855 597.334952,193.250511 602,195.898841 Z M502.838479,273.968856 C502.032328,274.088549 501.472306,273.860486 500.853733,273.332114 C500.235702,272.803743 499.752662,272.140043 499.249021,271.502223 C498.101327,270.0492 496.771477,268.818848 495.314225,267.672066 C490.67791,264.024682 486.575053,259.962689 482.604477,255.606856 C482.151254,255.109755 481.119576,253.762407 480.84092,253.151544 C480.174098,251.689356 480.465765,250.488658 480.899471,248.942361 C480.353544,247.785335 479.980557,246.978759 479.724128,245.726841 C479.332166,243.814998 479.095797,241.910163 480.072177,240.217217 C479.753945,237.85464 479.436256,235.492063 479.118566,233.129486 C479.051884,232.632385 478.98466,232.132588 479.003092,231.631174 C479.049173,230.386265 479.107181,228.991362 480.072177,228.197187 C481.256736,230.135988 482.976379,232.046862 484.160396,233.985664 C485.301585,235.853836 486.451989,237.733869 487.920084,239.3605 C488.77611,240.308334 489.793693,241.195783 491.042223,241.482613 C492.357978,241.785079 493.631989,241.266412 494.537892,240.270593 C495.000873,238.01369 497.169402,230.93189 497.986395,229.903182 C499.202398,228.371443 501.195818,228.028541 502.929015,228.943487 C503.51235,229.63037 500.76916,232.436132 501.038058,236.215609 C501.161664,237.945218 501.367132,239.699089 502.129912,241.258864 C502.53109,242.079458 505.356684,246.872546 506.529858,248.591372 C506.604672,250.660109 507.026993,253.357501 507.705743,255.314634 C508.649595,258.036827 510.339963,260.491061 511.584157,263.091405 C512.01461,263.990716 511.712642,265.056625 511.34345,265.982893 C510.591513,267.871553 509.567425,269.677722 508.139991,271.131284 C506.712556,272.584307 504.859006,273.669625 502.838479,273.968856 Z" id="path-25"></path>
        <radialGradient cx="36.9051141%" cy="80.877243%" fx="36.9051141%" fy="80.877243%" r="76.7350267%" gradientTransform="translate(0.369051,0.808772),scale(1.000000,0.652174),rotate(-92.418656),translate(-0.369051,-0.808772)" id="radialGradient-26">
            <stop stop-color="#D15ACE" stop-opacity="0.368716033" offset="0%"></stop>
            <stop stop-color="#DC9CAF" stop-opacity="0" offset="100%"></stop>
        </radialGradient>
        <linearGradient x1="50%" y1="100%" x2="50%" y2="3.061617e-15%" id="linearGradient-27">
            <stop stop-color="#DC8C8C" stop-opacity="0" offset="0%"></stop>
            <stop stop-color="#B65454" stop-opacity="0.38" offset="100%"></stop>
        </linearGradient>
        <radialGradient cx="5.80822173%" cy="42.4393503%" fx="5.80822173%" fy="42.4393503%" r="42.1487472%" gradientTransform="translate(0.058082,0.424394),scale(0.909091,1.000000),rotate(90.000000),translate(-0.058082,-0.424394)" id="radialGradient-28">
            <stop stop-color="#FFEEC9" offset="0%"></stop>
            <stop stop-color="#FFE1D7" stop-opacity="0" offset="100%"></stop>
        </radialGradient>
        <radialGradient cx="69.0901161%" cy="89.3837349%" fx="69.0901161%" fy="89.3837349%" r="75.9607741%" gradientTransform="translate(0.690901,0.893837),scale(0.626866,1.000000),rotate(12.775135),scale(1.000000,0.630714),translate(-0.690901,-0.893837)" id="radialGradient-29">
            <stop stop-color="#E9BF80" offset="0%"></stop>
            <stop stop-color="#E9BF80" stop-opacity="0" offset="100%"></stop>
        </radialGradient>
        <path d="M576.552285,174.495705 C576.638793,175.272593 577.321176,175.931468 577.630754,176.651027 C577.966449,177.432738 578.544256,178.088538 579.153077,178.689153 C581.203696,180.711206 583.777715,182.287485 586.624861,182.839879 C587.891468,183.085805 589.277771,183.108843 590.394213,182.471259 C591.054176,176.682639 593.088473,170.987245 593.767479,165.200767 C594.253882,161.058078 593.975316,156.828592 592.94919,152.78288 C592.182588,149.759445 590.887689,146.686183 588.365357,144.805042 C587.028564,143.807946 585.432792,143.212153 583.847901,142.67369 C581.556257,141.894658 579.208572,141.202424 576.789614,141.03901 C573.400026,140.809694 570.031657,141.626766 566.769382,142.562782 C557.534794,145.212239 548.428065,148.969163 541.172822,155.187483 C539.318614,155.313392 537.791869,155.75641 535.378352,156.480256 C531.322816,157.697023 531.222544,156.883778 529.931998,157.181674 C530.381948,157.733533 531.554616,159.155828 532.601116,159.331395 C534.73038,159.688612 536.41066,159.093891 535.902494,159.688612 C535.430237,160.24047 533.407425,161.520899 533.258348,161.607696 C531.067358,162.882328 527.101604,163.267732 527.048285,163.274697 C526.780056,163.307915 527.695735,164.138918 528.161463,164.387522 C529.290963,164.99028 530.627756,165.215846 533.777951,164.387522 C534.564139,164.180709 532.257497,166.638457 531.479469,167.757712 C531.070869,168.344932 529.347946,169.1607 528.673293,169.421628 C528.713555,169.617725 530.726061,170.305568 531.946776,170.305568 C533.167492,170.305568 534.310056,169.138197 534.341613,169.421628 C534.427032,170.207624 534.102764,171.824623 533.777951,172.725278 C533.537469,173.393937 537.308998,172.880655 537.888438,171.824623 C538.230118,171.202041 539.053847,168.831193 539.186058,168.135744 C539.97007,164.02038 542.881354,166.645244 545.162118,163.111742 C547.442881,159.57824 551.366755,159.644624 552.8153,160.09897 C554.263844,160.553315 556.463511,157.990174 556.699639,158.210381 C557.162103,158.641688 557.506503,165.888715 557.897693,166.12714 C558.9347,166.759366 561.223624,167.024044 562.442896,166.984931 C562.920594,167.472496 564.469576,172.625675 565.99081,173.70046 C566.865139,174.318756 569.077893,173.001796 569.837422,172.100606 C569.5915,169.976754 569.754602,168.237061 570.103899,166.12714 C570.453195,164.017754 573.1491,160.590791 575.699797,161.607696 C577.582079,162.358119 577.756938,163.691513 578.049335,164.931917 C579.52595,171.195997 575.975752,173.777699 576.552285,174.495705 Z" id="path-30"></path>
        <linearGradient x1="100%" y1="50%" x2="0%" y2="50%" id="linearGradient-31">
            <stop stop-color="#E9BF80" offset="0%"></stop>
            <stop stop-color="#996A42" offset="100%"></stop>
        </linearGradient>
        <linearGradient x1="57.6110704%" y1="44.0427606%" x2="46.0350404%" y2="108.364603%" id="linearGradient-32">
            <stop stop-color="#7C7798" offset="0%"></stop>
            <stop stop-color="#9088AE" offset="100%"></stop>
        </linearGradient>
        <linearGradient x1="50%" y1="12.4774205%" x2="50%" y2="75.9762029%" id="linearGradient-33">
            <stop stop-color="#8FD77D" offset="0%"></stop>
            <stop stop-color="#73BA8D" offset="100%"></stop>
        </linearGradient>
        <radialGradient cx="89.7292152%" cy="25.2291188%" fx="89.7292152%" fy="25.2291188%" r="28.7280765%" gradientTransform="translate(0.897292,0.252291),scale(1.000000,0.800000),rotate(-90.000000),scale(1.000000,0.745098),translate(-0.897292,-0.252291)" id="radialGradient-34">
            <stop stop-color="#73BA8D" offset="0%"></stop>
            <stop stop-color="#8ED98E" stop-opacity="0" offset="100%"></stop>
        </radialGradient>
        <path d="M545.775008,308.093084 C541.701201,312.323581 537.578064,316.620198 534.754859,321.76985 C533.936845,323.261851 533.253812,324.746807 533.4739,326.434454 C533.6761,327.984986 534.656741,329.31711 535.707311,330.475809 C537.587279,332.549328 540.210453,333.988217 542.364177,335.776667 C551.387808,343.268648 560.475948,350.806153 570.718739,356.519438 C574.008684,358.355038 577.543653,359.729435 581.216855,360.571091 C584.636359,361.353673 588.936217,360.880005 591.992521,362.736742 C592.934131,363.308504 594.15546,362.853804 595.093818,362.277164 C596.957524,361.131472 598.51007,359.548423 599.946066,357.898713 C601.698643,355.886435 603.305398,353.751676 604.900769,351.612581 C606.681535,349.224729 608.455254,346.817909 609.886913,344.205687 C610.465324,343.150502 611.160825,341.856314 611.16462,340.652633 C611.172209,338.333609 611.96095,336.092627 612.830462,333.942151 C614.951661,328.695488 617.605192,323.680782 619.864623,318.491567 C622.123512,313.302351 624.213811,307.867631 624.399748,302.21125 C624.705487,292.882586 625.011226,283.553379 625.316965,274.224172 C625.45845,269.919969 625.033994,265.396273 625.174937,261.09207 C625.216136,259.815767 625.656855,258.591491 626.027103,257.369384 C626.396808,256.146734 626.784402,254.998874 626.55022,253.743165 C626.617981,254.105191 629.591345,253.061386 629.854258,252.931317 C631.007284,252.363891 632.034002,251.521151 632.799434,250.487102 C634.467987,248.230945 634.736863,244.648083 634.932016,241.919883 C635.526689,233.593835 632.102848,225.631438 629.238986,217.966573 C628.777668,216.732001 628.305507,215.498512 627.728181,214.313257 C625.64005,210.021519 622.5664,204.033462 617.792755,204.069231 C617.551525,204.071399 617.393776,203.786331 617.42847,203.547871 C617.463164,203.309411 617.623623,203.112139 617.767277,202.918662 C618.65522,201.718232 619.066666,200.174745 618.892113,198.691958 C618.467657,195.074952 615.597832,194.237633 612.418474,193.750415 C607.790109,193.040997 602.903709,192.386858 598.383221,194.013805 C591.034648,196.659086 584.408139,201.152432 578.947666,206.73619 C577.801146,206.637554 576.654083,206.538376 575.507563,206.439741 C575.413781,206.431611 575.280427,206.396384 575.198571,206.442451 C573.499661,206.244637 571.757926,207.099841 570.743133,208.476948 C569.728883,209.853513 569.563003,211.592103 569.901267,213.268369 C568.428951,213.734992 567.256952,214.834618 566.155967,215.916901 C561.476646,220.51647 557.524267,226.334353 555.045289,232.490415 C554.027244,235.019175 553.637482,237.744123 553.527437,240.467445 C553.322527,245.54285 552.634073,250.63343 550.993166,255.440567 C549.351718,260.248247 546.722039,264.776819 543.002217,268.237199 C542.75394,268.468072 542.322978,268.626865 542.010734,268.759102 C538.658449,270.179023 534.959227,269.986629 531.403116,269.835424 C524.403107,269.536807 519.013648,265.832005 513.567269,261.796611 C512.856047,261.269831 512.139946,260.739257 511.34199,260.356095 C510.544033,259.972934 509.650669,259.742061 508.771941,259.851536 C507.208011,260.045555 505.801287,261.401526 504.684582,262.513617 C502.638192,264.55245 500.830322,266.89261 499.791677,269.58775 C497.403228,275.783917 500.886699,281.173656 504.03841,286.357994 C509.464732,295.281277 516.871308,305.373014 527.777076,307.526741 C529.053698,307.779292 530.362303,307.810725 531.663861,307.842159 C536.406607,307.954885 541.032262,307.979815 545.775008,308.093084 Z" id="path-35"></path>
        <linearGradient x1="34.3575338%" y1="50%" x2="69.2473823%" y2="10.8021029%" id="linearGradient-36">
            <stop stop-color="#FBFEFF" offset="0%"></stop>
            <stop stop-color="#BDD3DB" offset="100%"></stop>
        </linearGradient>
        <linearGradient x1="50%" y1="0%" x2="50%" y2="100%" id="linearGradient-37">
            <stop stop-color="#7C7AB1" stop-opacity="0" offset="0%"></stop>
            <stop stop-color="#464579" stop-opacity="0.08" offset="100%"></stop>
        </linearGradient>
        <linearGradient x1="50%" y1="1.98022038%" x2="50%" y2="99.1058526%" id="linearGradient-38">
            <stop stop-color="#6ECC78" offset="0%"></stop>
            <stop stop-color="#70B1A9" offset="100%"></stop>
        </linearGradient>
        <linearGradient x1="50%" y1="100%" x2="50%" y2="3.061617e-15%" id="linearGradient-39">
            <stop stop-color="#84E3C0" offset="0%"></stop>
            <stop stop-color="#ADDCAD" stop-opacity="0" offset="100%"></stop>
        </linearGradient>
        <path d="M757.727834,222.169686 C756.058064,224.53462 754.401289,226.064394 753.09157,228.646091 C749.022725,236.666324 743.813087,244.108703 737.666776,250.680245 C735.781518,252.69598 733.75657,254.667929 731.258413,255.846882 C728.760797,257.025835 725.674647,256.644203 723.211683,255.394437 C721.929577,254.743607 721.285276,253.213833 721.30206,251.778115 C721.318844,250.342398 721.879766,248.972628 722.475338,247.666104 C724.884701,242.375139 728.014707,237.411751 731.751114,232.954865 C732.556762,231.994296 733.407889,231.027241 733.826956,229.846666 C734.246564,228.666091 734.126908,227.196319 733.189693,226.364403 C732.281174,225.558433 730.845843,225.582758 729.771647,226.150343 C728.697991,226.717386 728.940552,226.840092 728.06885,227.684982 C725.78185,229.900181 722.130448,230.575877 719.200771,229.32557 C718.390792,228.980155 717.627917,228.494195 717.056709,227.824445 C716.086467,226.686574 715.755653,225.110312 715.861232,223.619458 C715.966811,222.128604 716.468175,220.69667 716.999317,219.299332 C718.2197,216.094374 720.846176,212.618057 723.574441,210.535834 C712.397705,213.641871 701.533916,217.869561 691.199104,223.134039 C689.772436,223.861087 688.128655,224.624893 686.633767,224.049741 C684.610986,223.27134 684.209245,220.359363 685.327839,218.505796 C686.447516,216.651688 688.526065,215.63328 690.511488,214.764606 C703.741325,208.980654 717.956565,205.450821 732.359681,204.381061 C734.213537,202.609658 736.523276,200.927987 738.957003,200.125802 C735.237381,197.37437 732.173971,193.791563 729.776519,189.838475 C722.034073,191.955834 713.822207,189.615766 706.269803,186.901093 C702.040694,185.381589 697.734703,183.66316 694.504533,180.54361 C692.058894,178.181379 690.363136,175.136426 687.941862,172.748789 C686.458886,171.287125 684.72252,170.090874 683.312096,168.559478 C681.901129,167.028082 680.807983,164.115024 681.028345,162.045775 C683.528126,163.833935 686.027907,165.622095 688.527147,167.410255 C688.84605,167.637829 689.171449,167.869187 689.543953,167.989731 C690.511488,168.301632 692.513695,167.294036 693.103312,166.466984 C692.213743,163.953398 690.361512,161.920366 688.928347,159.671111 C687.780516,157.869978 686.890405,155.905056 686.29375,153.855266 C685.893091,152.477929 685.636454,150.947614 686.247728,149.649738 C686.581249,148.94215 687.143794,148.371863 687.709047,147.829685 C691.208849,144.470669 696.016205,140.180274 700.337356,137.97048 C701.805714,134.834172 698.559301,131.190282 699.41097,127.833969 C700.219324,124.651173 704.146315,123.49168 707.433877,123.414381 C708.698657,123.38465 710.01,123.442489 711.144295,124.001425 C712.445892,124.642524 713.352246,125.859317 714.476254,126.776641 C716.938677,128.785348 720.335066,129.255632 723.507304,129.046977 C726.680082,128.838863 729.790597,128.036137 732.962834,127.820995 C733.672107,127.772886 734.427402,127.764777 735.039759,128.125869 C735.745242,128.542097 736.102044,129.35131 736.414449,130.107548 C737.977015,133.890361 739.167078,138.32022 740.729103,142.103032 C741.266202,139.659177 742.848801,137.575874 744.591664,135.779065 C746.335068,133.982256 748.606366,132.178419 750.154855,130.211335 C746.756841,125.372275 743.359369,120.533756 739.961897,115.694696 C738.749636,113.96816 737.523839,112.215136 736.805361,110.231835 C735.654282,107.051742 735.902256,103.560289 736.16485,100.189381 C736.452891,96.4876512 736.780997,92.6513234 738.606157,89.4166346 C740.430775,86.1814054 744.765462,84.1618872 748.370302,85.0738056 C749.058459,87.1295411 749.783975,89.2496028 751.240963,90.8572171 C752.697409,92.4648314 755.096485,93.4318866 757.093819,92.5832133 C757.575692,92.3783424 758.037532,92.0507653 758.238402,91.5680486 C758.394875,91.1918214 758.375384,90.7674848 758.322865,90.3631487 C758.163143,89.1431132 757.720795,87.9609166 757.040759,86.9349408 C756.01096,85.3808416 754.487376,84.2348623 753.130012,82.9553656 C751.772106,81.6764094 750.98595,80.7439499 750.436398,78.962817 C749.858693,77.0897895 751.619964,75.3443333 753.305976,74.3405203 C761.300729,69.5830846 772.060022,69.937149 779.722879,75.2108159 C781.796013,76.6368034 783.704012,78.4125307 786.09659,79.193094 C788.48971,79.9736572 790.998696,79.0217376 792.74968,77.2151986 C795.23376,74.6513402 798.42224,72.7729072 801.872231,71.8415287 C802.987576,71.5404389 804.243693,71.3534064 805.245339,71.9280177 C806.242652,72.5004668 806.714238,73.6713117 807.01798,74.7789115 C808.148485,78.8968691 807.936786,83.247266 807.717507,87.5106332 C807.198817,97.5633582 805.202566,108.618274 806.429987,118.608835 C806.494417,119.131013 807.217226,119.234799 807.730501,119.113715 C810.029412,118.570456 811.57357,116.50445 813.17512,114.770886 C817.837913,109.724793 825.129349,107.225261 831.500353,104.640321 C832.360144,104.912221 833.104068,105.531158 833.526925,106.326316 C834.329865,107.835549 833.924876,109.690197 833.3358,111.294568 C832.746183,112.898939 831.976812,114.521689 832.104589,116.226063 C834.821484,115.837944 837.188073,113.651394 837.786353,110.977262 C837.928208,110.344271 837.98181,109.682089 838.2509,109.091802 C838.734938,108.027446 839.461537,106.827411 840.59854,107.105798 C844.406416,108.038798 848.067564,109.563167 851.411435,111.606469 C852.684878,112.38487 853.937205,113.261653 854.814321,114.467093 C855.830585,115.86335 856.269143,117.605022 856.413163,119.324532 C857.008195,126.449604 852.979957,133.050337 849.107651,139.065106 C846.402126,143.267931 843.696601,147.470216 840.991077,151.6725 C841.713885,152.144406 842.612117,152.895779 843.334926,153.367684 C848.139033,152.00278 852.942598,150.637875 857.746705,149.272971 C859.38832,148.806471 861.104653,148.336187 862.779295,148.662683 C864.453938,148.989179 866.053321,150.383273 865.998637,152.086026 C865.940162,153.867699 864.238449,155.100708 862.669385,155.952084 C856.282679,159.41759 849.199694,161.359809 842.188178,163.273378 C838.380843,164.313408 834.121415,165.876156 830.312998,166.915646 C828.944263,171.128201 826.295588,174.835877 823.186698,177.995428 C820.078891,181.15552 817.251545,184.261556 813.694351,186.907579 C814.606119,188.536275 816.054443,189.800636 817.078287,191.361222 C817.982475,192.739641 819.349044,195.009977 819.496854,196.651106 C830.13974,194.924029 840.993784,194.499151 851.739541,195.387826 C852.911195,195.484585 854.142948,195.618643 855.100738,196.300285 C856.503582,197.298152 856.937267,199.243614 856.656807,200.94042 C855.898264,205.523256 851.22789,208.245497 847.004196,210.1915 C837.693228,214.480273 826.331864,214.782985 818.788664,221.718322 C817.738832,222.683755 817.51847,224.284342 817.774566,225.687086 C818.030662,227.089289 818.682002,228.383921 819.135721,229.735852 C820.641978,234.226253 819.783271,239.490731 816.739894,243.123269 C813.695975,246.755266 807.731043,248.415855 803.15163,247.183927 C803.778064,246.008218 803.737998,244.504931 803.049299,243.363816 C802.361142,242.222702 799.980475,241.902693 798.672922,242.169728 C797.087616,242.493521 796.813111,244.595744 796.777376,246.211467 C796.682085,250.46132 795.727544,254.691173 793.986847,258.571286 C792.748597,261.331907 790.94726,264.064419 788.165394,265.262832 C786.133949,266.136911 783.830165,266.082315 781.629253,265.862309 C778.133241,265.512569 774.606367,264.756871 771.579774,262.974657 C768.553723,261.191903 764.988408,257.61288 764.386879,254.157103 C761.534627,253.078153 759.224887,250.659164 758.281716,247.763404 C757.341253,244.875752 757.731624,241.732418 758.347771,238.758817 C759.292024,234.20409 760.745763,229.754231 762.673254,225.519513 C763.385234,223.955144 764.08043,221.890759 762.824854,220.71559 C762.012709,219.955568 760.68404,220.006921 759.703511,220.534503 C758.724065,221.061546 758.011543,221.964275 757.3288,222.842138" id="path-40"></path>
        <linearGradient x1="50%" y1="-2.48949813e-15%" x2="50%" y2="100%" id="linearGradient-41">
            <stop stop-color="#75CC70" offset="0%"></stop>
            <stop stop-color="#63B7CC" offset="100%"></stop>
        </linearGradient>
    </defs>
    <g id="Artboard" stroke="none" stroke-width="1" fill="none" fill-rule="evenodd">
        <g id="bg">
            <use fill="#8DC8DC" xlink:href="#path-3"></use>
            <use fill="url(#linearGradient-1)" xlink:href="#path-3"></use>
            <use fill-opacity="0.84" fill="url(#linearGradient-2)" xlink:href="#path-3"></use>
        </g>
        <ellipse id="bg" fill="url(#linearGradient-4)" opacity="0.222958519" filter="url(#filter-5)" cx="442.5" cy="473.5" rx="283.5" ry="36.5"></ellipse>
        <path d="M346.720614,300 L352.006493,300 C354.764331,300 357,302.243026 357,305.009939 C357,305.349047 356.965683,305.687278 356.897578,306.019431 L327.170471,450.999553 C326.69292,453.328587 324.649393,455 322.279386,455 L316.993507,455 C314.235669,455 312,452.756974 312,449.990061 C312,449.650953 312.034317,449.312722 312.102422,448.980569 L341.829529,304.000447 C342.30708,301.671413 344.350607,300 346.720614,300 Z" id="table6" fill-opacity="0.43" fill="url(#linearGradient-6)"></path>
        <g id="table5">
            <use fill="#DBF4FF" xlink:href="#path-9"></use>
            <use fill-opacity="0.19" fill="url(#linearGradient-7)" xlink:href="#path-9"></use>
            <use fill-opacity="0.11" fill="url(#linearGradient-8)" xlink:href="#path-9"></use>
        </g>
        <path d="M647.279386,300 C649.649393,300 651.69292,301.671413 652.170471,304.000447 L681.897578,448.980569 C681.965683,449.312722 682,449.650953 682,449.990061 C682,452.756974 679.764331,455 677.006493,455 L671.720614,455 C669.350607,455 667.30708,453.328587 666.829529,450.999553 L637.102422,306.019431 C637.034317,305.687278 637,305.349047 637,305.009939 C637,302.243026 639.235669,300 641.993507,300 L647.279386,300 Z" id="table4" fill-opacity="0.43" fill="url(#linearGradient-6)"></path>
        <g id="table3">
            <use fill="#DBF4FF" xlink:href="#path-10"></use>
            <use fill-opacity="0.19" fill="url(#linearGradient-7)" xlink:href="#path-10"></use>
            <use fill-opacity="0.11" fill="url(#linearGradient-8)" xlink:href="#path-10"></use>
        </g>
        <polygon id="table2" fill="#EDFDFF" points="712.128732 322 284.93595 322 282 316.694236 325.094428 279 673.839687 279 714.963797 314.970819"></polygon>
        <path d="M286.970588,313 L710.029412,313 C713.326877,313 716,315.686292 716,319 C716,322.313708 713.326877,325 710.029412,325 L286.970588,325 C283.673123,325 281,322.313708 281,319 C281,315.686292 283.673123,313 286.970588,313 Z" id="table1" fill="#DBF4FF"></path>
        <g id="mail3" opacity="0.747047061">
            <use fill-opacity="0.82" fill="url(#linearGradient-11)" xlink:href="#path-13"></use>
            <use fill-opacity="0.84" fill="url(#linearGradient-12)" xlink:href="#path-13"></use>
        </g>
        <path d="M456,58 C454.343146,58 453,56.6568542 453,55 C453,53.3431458 454.343146,52 456,52 C457.656854,52 459,53.3431458 459,55 C459,56.6568542 457.656854,58 456,58 Z M466,58 C464.343146,58 463,56.6568542 463,55 C463,53.3431458 464.343146,52 466,52 C467.656854,52 469,53.3431458 469,55 C469,56.6568542 467.656854,58 466,58 Z" id="mail2" fill="#000000" opacity="0.747047061"></path>
        <path d="M535.5,117.411017 L482,78 L589,78 L535.5,117.411017 Z M585.075826,84.6282372 C585.156099,85.0846585 585.19797,85.5543722 585.19797,86.0338983 L585.19797,133.966102 C585.19797,136.007633 584.439049,137.871309 583.18884,139.288594 L550.403408,110.169831 L585.075826,84.6282372 Z M547.927165,111.993966 L580.763556,141.157989 C579.688131,141.696845 578.474912,142 577.191125,142 L493.808875,142 C492.525088,142 491.311869,141.696845 490.236444,141.157989 L523.072835,111.993966 L533.723069,119.839509 C534.780497,120.618469 536.219503,120.618469 537.276931,119.839509 L547.927165,111.993966 Z M520.596592,110.169831 L487.81116,139.288594 C486.560951,137.871309 485.80203,136.007633 485.80203,133.966102 L485.80203,86.0338983 C485.80203,85.5543722 485.843901,85.0846585 485.924174,84.6282372 L520.596592,110.169831 Z" id="mail1" fill-opacity="0.31" fill="#1D1D4E" opacity="0.747047061"></path>
        <g id="signin7">
            <use fill-opacity="0.82" fill="url(#linearGradient-11)" xlink:href="#path-14"></use>
            <use fill-opacity="0.84" fill="url(#linearGradient-12)" xlink:href="#path-14"></use>
        </g>
        <path d="M319,103 C317.343146,103 316,101.656854 316,100 C316,98.3431458 317.343146,97 319,97 C320.656854,97 322,98.3431458 322,100 C322,101.656854 320.656854,103 319,103 Z M329,103 C327.343146,103 326,101.656854 326,100 C326,98.3431458 327.343146,97 329,97 C330.656854,97 332,98.3431458 332,100 C332,101.656854 330.656854,103 329,103 Z" id="signin6" fill="#000000" opacity="0.263416109"></path>
        <path d="M380.157204,133.406593 C378.991242,133.406593 377.961059,133.241394 377.066623,132.910989 C376.172187,132.580584 375.317694,132.044692 374.503118,131.303297 C374.167704,131.013185 374,130.682786 374,130.312088 C374,130.021977 374.111803,129.760074 374.335412,129.526374 C374.559021,129.292673 374.822556,129.175824 375.126026,129.175824 C375.397551,129.175824 375.629142,129.264468 375.820807,129.441758 C376.45969,130.038098 377.118528,130.477288 377.797342,130.759341 C378.476155,131.041393 379.246796,131.182418 380.109288,131.182418 C381.115528,131.182418 381.966029,130.94872 382.660814,130.481319 C383.355599,130.013917 383.702987,129.425645 383.702987,128.716484 C383.687014,127.878384 383.339627,127.229673 382.660814,126.77033 C381.982001,126.310987 380.947824,125.928207 379.558254,125.621978 C377.91313,125.283515 376.647362,124.727476 375.760912,123.953846 C374.874462,123.180216 374.431244,122.108432 374.431244,120.738462 C374.431244,119.787541 374.678807,118.953483 375.173942,118.236264 C375.669076,117.519044 376.355865,116.967035 377.234329,116.58022 C378.112793,116.193405 379.103047,116 380.20512,116 C381.195388,116 382.129741,116.161171 383.008205,116.483516 C383.886669,116.805862 384.597416,117.232964 385.140466,117.764835 C385.507824,118.087181 385.6915,118.433698 385.6915,118.804396 C385.6915,119.094507 385.58369,119.35238 385.368067,119.578022 C385.152444,119.803664 384.892902,119.916484 384.589432,119.916484 C384.365823,119.916484 384.182147,119.852015 384.038398,119.723077 C383.623124,119.304027 383.048138,118.949452 382.313423,118.659341 C381.578708,118.369229 380.875947,118.224176 380.20512,118.224176 C379.134991,118.224176 378.284491,118.445785 377.653594,118.889011 C377.022697,119.332237 376.707253,119.91648 376.707253,120.641758 C376.707253,121.431506 377.022697,122.035895 377.653594,122.454945 C378.284491,122.873995 379.222836,123.22857 380.468658,123.518681 C381.714479,123.792675 382.732684,124.115016 383.523302,124.485714 C384.313919,124.856412 384.924842,125.372158 385.356088,126.032967 C385.787334,126.693776 386.002954,127.556039 386.002954,128.61978 C386.002954,129.554583 385.743411,130.384612 385.224319,131.10989 C384.705227,131.835168 383.998473,132.399265 383.104037,132.802198 C382.209601,133.20513 381.227333,133.406593 380.157204,133.406593 Z M390.890384,132.004396 C390.890384,132.326742 390.782574,132.600731 390.566951,132.826374 C390.351328,133.052016 390.075814,133.164835 389.7404,133.164835 C389.420959,133.164835 389.153431,133.052016 388.937808,132.826374 C388.722185,132.600731 388.614375,132.326742 388.614375,132.004396 L388.614375,121.536264 C388.614375,121.213918 388.722185,120.939928 388.937808,120.714286 C389.153431,120.488644 389.420959,120.375824 389.7404,120.375824 C390.075814,120.375824 390.351328,120.488644 390.566951,120.714286 C390.782574,120.939928 390.890384,121.213918 390.890384,121.536264 L390.890384,132.004396 Z M389.7404,118.78022 C389.27721,118.78022 388.945795,118.695605 388.746144,118.526374 C388.546493,118.357142 388.446669,118.087181 388.446669,117.716484 L388.446669,117.32967 C388.446669,116.942855 388.554479,116.668865 388.770102,116.507692 C388.985725,116.346519 389.31714,116.265934 389.764358,116.265934 C390.211576,116.265934 390.535006,116.350549 390.734657,116.51978 C390.934308,116.689012 391.034132,116.958973 391.034132,117.32967 L391.034132,117.716484 C391.034132,118.103299 390.930315,118.377289 390.722678,118.538462 C390.515041,118.699635 390.187618,118.78022 389.7404,118.78022 Z M404.666229,120.327473 C405.001643,120.327473 405.277157,120.436263 405.49278,120.653846 C405.708403,120.87143 405.816213,121.157507 405.816213,121.512088 L405.816213,132.149451 C405.816213,133.454952 405.540699,134.546882 404.989662,135.425275 C404.438625,136.303667 403.691942,136.952379 402.74959,137.371429 C401.807237,137.790478 400.74511,138 399.563177,138 C398.924294,138 398.177611,137.887181 397.323105,137.661538 C396.468599,137.435896 395.921563,137.202199 395.681982,136.96044 C395.186848,136.702563 394.939285,136.380222 394.939285,135.993407 C394.939285,135.896703 394.971228,135.767766 395.035117,135.606593 C395.210809,135.203661 395.506288,135.002198 395.921562,135.002198 C396.129199,135.002198 396.352805,135.050549 396.592386,135.147253 C397.870152,135.646889 398.868392,135.896703 399.587135,135.896703 C400.864901,135.896703 401.843176,135.58645 402.521989,134.965934 C403.200802,134.345418 403.540203,133.495243 403.540203,132.415385 L403.540203,131.10989 C403.20479,131.738465 402.641783,132.278386 401.851165,132.72967 C401.060547,133.180955 400.226019,133.406593 399.347555,133.406593 C398.245482,133.406593 397.239256,133.124545 396.328848,132.56044 C395.41844,131.996334 394.7037,131.210628 394.184608,130.203297 C393.665515,129.195966 393.405973,128.063743 393.405973,126.806593 C393.405973,125.549444 393.665515,124.417221 394.184608,123.40989 C394.7037,122.402559 395.414447,121.616853 396.316869,121.052747 C397.219291,120.488642 398.213538,120.206593 399.299639,120.206593 C400.178103,120.206593 400.99666,120.408057 401.755333,120.810989 C402.514007,121.213921 403.108957,121.705492 403.540203,122.285714 L403.540203,121.512088 C403.540203,121.173625 403.64402,120.891576 403.851657,120.665934 C404.059294,120.440292 404.330816,120.327473 404.666229,120.327473 Z M399.611093,131.279121 C400.393725,131.279121 401.088499,131.089745 401.695438,130.710989 C402.302377,130.332233 402.777539,129.80037 403.120939,129.115385 C403.464338,128.4304 403.636035,127.66081 403.636035,126.806593 C403.636035,125.952377 403.464338,125.186817 403.120939,124.50989 C402.777539,123.832964 402.302377,123.301101 401.695438,122.914286 C401.088499,122.527471 400.393725,122.334066 399.611093,122.334066 C398.844433,122.334066 398.157644,122.527471 397.550706,122.914286 C396.943767,123.301101 396.468605,123.836993 396.125205,124.521978 C395.781806,125.206963 395.610108,125.968494 395.610108,126.806593 C395.610108,127.644693 395.781806,128.406224 396.125205,129.091209 C396.468605,129.776194 396.943767,130.312086 397.550706,130.698901 C398.157644,131.085716 398.844433,131.279121 399.611093,131.279121 Z M415.591073,120.206593 C418.466047,120.206593 419.903512,121.947235 419.903512,125.428571 L419.903512,132.004396 C419.903512,132.326742 419.795702,132.600731 419.580079,132.826374 C419.364456,133.052016 419.088942,133.164835 418.753528,133.164835 C418.434087,133.164835 418.166558,133.052016 417.950935,132.826374 C417.735312,132.600731 417.627502,132.326742 417.627502,132.004396 L417.627502,125.452747 C417.627502,124.501827 417.411883,123.744325 416.980637,123.18022 C416.549391,122.616114 415.84663,122.334066 414.872333,122.334066 C414.23345,122.334066 413.654471,122.47509 413.135379,122.757143 C412.616287,123.039196 412.209005,123.417946 411.913521,123.893407 C411.618038,124.368867 411.470299,124.888642 411.470299,125.452747 L411.470299,132.004396 C411.470299,132.326742 411.362489,132.600731 411.146866,132.826374 C410.931243,133.052016 410.655729,133.164835 410.320315,133.164835 C409.984902,133.164835 409.71338,133.056045 409.505743,132.838462 C409.298106,132.620878 409.194289,132.342859 409.194289,132.004396 L409.194289,121.657143 C409.194289,121.334797 409.302099,121.060807 409.517722,120.835165 C409.733345,120.609523 410.000874,120.496703 410.320315,120.496703 C410.655729,120.496703 410.931243,120.609523 411.146866,120.835165 C411.362489,121.060807 411.470299,121.334797 411.470299,121.657143 L411.470299,122.503297 C411.885573,121.858605 412.464552,121.314654 413.207253,120.871429 C413.949954,120.428203 414.744553,120.206593 415.591073,120.206593 Z M432.601247,131.98022 C432.601247,132.318683 432.481458,132.600731 432.241877,132.826374 C432.002296,133.052016 431.722789,133.164835 431.403348,133.164835 C431.051962,133.164835 430.768462,133.052016 430.552839,132.826374 C430.337216,132.600731 430.229406,132.318683 430.229406,131.98022 L430.229406,117.402198 C430.229406,117.079852 430.341209,116.805862 430.564818,116.58022 C430.788427,116.354578 431.07592,116.241758 431.427306,116.241758 C431.746747,116.241758 432.022261,116.354578 432.253856,116.58022 C432.485451,116.805862 432.601247,117.079852 432.601247,117.402198 L432.601247,131.98022 Z M442.687562,120.206593 C445.562535,120.206593 447,121.947235 447,125.428571 L447,132.004396 C447,132.326742 446.89219,132.600731 446.676567,132.826374 C446.460944,133.052016 446.18543,133.164835 445.850016,133.164835 C445.530575,133.164835 445.263047,133.052016 445.047424,132.826374 C444.831801,132.600731 444.723991,132.326742 444.723991,132.004396 L444.723991,125.452747 C444.723991,124.501827 444.508371,123.744325 444.077125,123.18022 C443.645879,122.616114 442.943118,122.334066 441.968822,122.334066 C441.329939,122.334066 440.75096,122.47509 440.231867,122.757143 C439.712775,123.039196 439.305493,123.417946 439.01001,123.893407 C438.714526,124.368867 438.566787,124.888642 438.566787,125.452747 L438.566787,132.004396 C438.566787,132.326742 438.458977,132.600731 438.243354,132.826374 C438.027731,133.052016 437.752217,133.164835 437.416803,133.164835 C437.08139,133.164835 436.809869,133.056045 436.602232,132.838462 C436.394595,132.620878 436.290778,132.342859 436.290778,132.004396 L436.290778,121.657143 C436.290778,121.334797 436.398588,121.060807 436.614211,120.835165 C436.829834,120.609523 437.097362,120.496703 437.416803,120.496703 C437.752217,120.496703 438.027731,120.609523 438.243354,120.835165 C438.458977,121.060807 438.566787,121.334797 438.566787,121.657143 L438.566787,122.503297 C438.982061,121.858605 439.56104,121.314654 440.303741,120.871429 C441.046443,120.428203 441.841042,120.206593 442.687562,120.206593 Z" id="signin5" fill="#E7F4F6"></path>
        <path d="M462.625,159 L484.375,159 C486.377032,159 488,160.60879 488,162.593333 L488,204.406667 C488,206.39121 486.377032,208 484.375,208 L462.625,208 C460.622968,208 459,206.39121 459,204.406667 L459,162.593333 C459,160.60879 460.622968,159 462.625,159 Z M464.272727,168.8 C462.998707,168.8 461.965909,169.823776 461.965909,171.086667 L461.965909,180.233333 C461.965909,181.496224 462.998707,182.52 464.272727,182.52 L482.727273,182.52 C484.001293,182.52 485.034091,181.496224 485.034091,180.233333 L485.034091,171.086667 C485.034091,169.823776 484.001293,168.8 482.727273,168.8 L464.272727,168.8 Z M470.863636,160.96 C470.317628,160.96 469.875,161.398761 469.875,161.94 C469.875,162.481239 470.317628,162.92 470.863636,162.92 L476.136364,162.92 C476.682372,162.92 477.125,162.481239 477.125,161.94 C477.125,161.398761 476.682372,160.96 476.136364,160.96 L470.863636,160.96 Z M465.261364,175.66 L481.738636,175.66 C482.102642,175.66 482.397727,175.952507 482.397727,176.313333 C482.397727,176.674159 482.102642,176.966667 481.738636,176.966667 L465.261364,176.966667 C464.897358,176.966667 464.602273,176.674159 464.602273,176.313333 C464.602273,175.952507 464.897358,175.66 465.261364,175.66 Z M465.261364,178.273333 L475.477273,178.273333 C475.841279,178.273333 476.136364,178.565841 476.136364,178.926667 C476.136364,179.287493 475.841279,179.58 475.477273,179.58 L465.261364,179.58 C464.897358,179.58 464.602273,179.287493 464.602273,178.926667 C464.602273,178.565841 464.897358,178.273333 465.261364,178.273333 Z M465.920455,174.026667 C465.192443,174.026667 464.602273,173.441652 464.602273,172.72 C464.602273,171.998348 465.192443,171.413333 465.920455,171.413333 C466.648466,171.413333 467.238636,171.998348 467.238636,172.72 C467.238636,173.441652 466.648466,174.026667 465.920455,174.026667 Z" id="signin4" fill-opacity="0.39" fill="#1D1D4E"></path>
        <path d="M352,207 C342.611159,207 335,198.099381 335,185.12069 C335,172.141998 338.47997,160 352,160 C365.52003,160 369,172.141998 369,185.12069 C369,198.099381 361.388841,207 352,207 Z M364.877248,186.777204 C365.309125,186.32136 365.660083,185.787328 365.927477,185.169506 C367.627857,181.240725 366.716625,175.874802 363.346973,173.218688 C360.279574,170.800823 355.655242,169.393843 351.090247,169.846724 C350.547862,169.900533 350.151249,170.389382 350.204388,170.938599 C350.257528,171.487816 350.740296,171.889424 351.282682,171.835616 C355.337417,171.433356 359.460724,172.687896 362.134683,174.795633 C364.736905,176.846824 365.480258,181.224172 364.119888,184.367349 C363.945135,184.771121 363.723635,185.108164 363.453091,185.393722 C363.075805,185.791945 363.088763,186.424472 363.482033,186.80651 C363.875303,187.188548 364.499962,187.175427 364.877248,186.777204 Z M350.913375,195.554726 C349.473433,191.728216 350.481897,188.34999 352.687758,186.531618 C353.3623,185.975568 354.257343,185.662902 355.657202,185.428097 C355.941564,185.380399 356.074897,185.36053 356.723161,185.26678 C358.421155,185.021219 359.185037,184.843338 359.975786,184.387994 C361.118676,183.729872 361.72208,182.633298 361.72208,181.088405 C361.72208,176.04501 356.798597,173.568453 350.438076,174.917845 C345.033576,176.064416 341.268907,180.585183 340.214551,185.543877 C339.528109,188.772251 339.616095,192.342695 340.469009,196.24989 C340.586946,196.79016 341.115148,197.131339 341.648781,197.011935 C342.182414,196.892531 342.519403,196.357759 342.401465,195.81749 C341.60707,192.178371 341.526187,188.896168 342.149317,185.965558 C343.051176,181.724067 346.279553,177.847301 350.843969,176.878954 C356.131327,175.757235 359.742991,177.573936 359.742991,181.088405 C359.742991,182.543975 359.135318,182.893898 356.443305,183.283212 C355.777674,183.379474 355.638809,183.400167 355.333726,183.45134 C353.623323,183.738235 352.440788,184.151331 351.438179,184.977818 C348.589094,187.326423 347.310686,191.608925 349.063962,196.268091 C349.258533,196.785144 349.830268,197.044606 350.34097,196.847616 C350.851671,196.650625 351.107945,196.071779 350.913375,195.554726 Z M354.971199,201.225551 C353.926558,200.091728 353.070406,198.974657 352.394174,197.87819 C352.102035,197.404506 351.488723,197.262058 351.024302,197.560023 C350.559881,197.857988 350.420218,198.483533 350.712357,198.957217 C351.458726,200.167408 352.393514,201.387079 353.523295,202.613312 C353.899021,203.021114 354.527731,203.041042 354.927558,202.657823 C355.327386,202.274603 355.346924,201.633353 354.971199,201.225551 Z M363.063936,191.258601 C361.629676,191.059803 360.515757,191.103223 359.691452,191.428124 C358.685425,191.824652 358.121309,192.648073 358.121309,193.732505 C358.121309,195.804963 359.633243,196.923563 362.196897,197.034857 C362.719412,197.057541 363.161163,196.647184 363.183573,196.1183 C363.205983,195.589415 362.800568,195.142281 362.278052,195.119597 C360.616111,195.047449 360.015246,194.6029 360.015246,193.732505 C360.015246,193.14519 360.717715,192.86831 362.806983,193.157897 C363.325144,193.229717 363.802717,192.862767 363.873672,192.338291 C363.944628,191.813815 363.582097,191.330421 363.063936,191.258601 Z M348.937471,199.886119 C347.956975,198.497275 347.191444,196.899404 346.64187,195.088542 C345.759304,192.180459 346.002154,188.681033 347.220469,185.902734 C347.443088,185.395063 347.20527,184.805954 346.689287,184.586922 C346.173303,184.367889 345.574548,184.601877 345.351929,185.109547 C343.946923,188.313583 343.670554,192.296014 344.691911,195.661415 C345.30161,197.67039 346.159336,199.460697 347.266082,201.028371 C347.586671,201.482477 348.220713,201.5949 348.682255,201.279476 C349.143796,200.964052 349.25806,200.340224 348.937471,199.886119 Z M348.342106,183.771507 C349.276829,182.619648 351.552536,181.660269 355.14418,181.00656 C355.681271,180.908806 356.040161,180.378582 355.945783,179.822272 C355.851405,179.265962 355.339499,178.89423 354.802409,178.991985 C350.791262,179.722046 348.142276,180.83879 346.830404,182.45541 C346.47953,182.887792 346.533496,183.532926 346.950941,183.896357 C347.368386,184.259787 347.991232,184.20389 348.342106,183.771507 Z M363.425672,168.323454 C361.805056,167.259741 360.621958,166.618003 359.066871,166.06685 C357.042942,165.34953 354.736206,164.971154 351.963975,164.971154 C347.314324,164.971154 342.965298,167.036746 339.707309,170.210758 C339.312667,170.595228 339.292064,171.24003 339.66129,171.650965 C340.030517,172.061899 340.649754,172.083353 341.044396,171.698883 C343.962294,168.856197 347.851411,167.009041 351.963975,167.009041 C354.526602,167.009041 356.620495,167.352504 358.436268,167.99605 C359.8197,168.486365 360.879713,169.061339 362.382067,170.047428 C362.839254,170.34751 363.443497,170.204848 363.731681,169.728786 C364.019865,169.252724 363.88286,168.623535 363.425672,168.323454 Z M358.933398,199.234663 C355.254918,196.560014 354.048383,194.102238 354.991497,191.731887 C355.615666,190.16315 356.6612,189.643507 359.708886,189.005047 C359.749168,188.996609 359.749168,188.996609 359.789534,188.98815 C360.338253,188.873141 360.633909,188.808523 360.966376,188.72796 C361.491578,188.600694 361.818499,188.053118 361.696573,187.504913 C361.574647,186.956709 361.050046,186.615471 360.524843,186.742737 C360.216953,186.817344 359.935538,186.878849 359.405141,186.990018 C359.36495,186.99844 359.36495,186.99844 359.32468,187.006876 C357.568463,187.374786 356.795826,187.586185 355.899215,188.031811 C354.638999,188.658153 353.728209,189.593288 353.188314,190.950219 C351.821552,194.385335 353.472002,197.747392 357.817369,200.906939 C358.25978,201.228619 358.868256,201.11504 359.176439,200.653254 C359.484621,200.191468 359.375808,199.556343 358.933398,199.234663 Z M348.182032,170.542044 C347.779104,170.662384 347.378836,170.797346 346.981579,170.947068 C345.319314,171.573562 343.248744,172.965818 341.523861,174.73132 C339.354745,176.951517 337.831028,179.60991 337.255473,182.5703 C337.149465,183.115553 337.506595,183.643301 338.053143,183.749057 C338.599692,183.854813 339.128693,183.498531 339.234701,182.953277 C339.72984,180.406506 341.057309,178.090504 342.967631,176.135196 C344.492707,174.574206 346.316737,173.347723 347.694089,172.828611 C348.047051,172.695583 348.402525,172.575725 348.760247,172.468886 C349.293593,172.309595 349.596518,171.749126 349.436849,171.217043 C349.277179,170.68496 348.715378,170.382753 348.182032,170.542044 Z" id="signin3" fill-opacity="0.39" fill="#1D1D4E"></path>
        <path d="M431.639344,158 L438.327869,158 C439.251361,158 440,158.748639 440,159.672131 L440,166.360656 L437.491803,166.360656 L437.491803,161.344262 C437.491803,160.882516 437.117484,160.508197 436.655738,160.508197 L431.639344,160.508197 L431.639344,158 Z M397.360656,158 L397.360656,160.508197 L392.344262,160.508197 C391.882516,160.508197 391.508197,160.882516 391.508197,161.344262 L391.508197,166.360656 L389,166.360656 L389,159.672131 C389,158.748639 389.748639,158 390.672131,158 L397.360656,158 Z M431.639344,209 L431.639344,206.491803 L436.655738,206.491803 C437.117484,206.491803 437.491803,206.117484 437.491803,205.655738 L437.491803,200.639344 L440,200.639344 L440,207.327869 C440,208.251361 439.251361,209 438.327869,209 L431.639344,209 Z M397.360656,209 L390.672131,209 C389.748639,209 389,208.251361 389,207.327869 L389,200.639344 L391.508197,200.639344 L391.508197,205.655738 C391.508197,206.117484 391.882516,206.491803 392.344262,206.491803 L397.360656,206.491803 L397.360656,209 Z M414.333482,201.659701 C404.220787,201.659701 396.022828,193.461742 396.022828,183.349047 C396.022828,173.236352 404.220787,165.038393 414.333482,165.038393 C424.446177,165.038393 432.644136,173.236352 432.644136,183.349047 C432.644136,193.461742 424.446177,201.659701 414.333482,201.659701 Z" id="signin2" fill="#E7F4F6"></path>
        <path d="M404.586207,190.052632 C403.157884,190.052632 402,188.921561 402,187.526316 C402,186.13107 403.157884,185 404.586207,185 C406.01453,185 407.172414,186.13107 407.172414,187.526316 C407.172414,188.921561 406.01453,190.052632 404.586207,190.052632 Z M424.413793,190.052632 C422.98547,190.052632 421.827586,188.921561 421.827586,187.526316 C421.827586,186.13107 422.98547,185 424.413793,185 C425.842116,185 427,186.13107 427,187.526316 C427,188.921561 425.842116,190.052632 424.413793,190.052632 Z M411.051724,190.052632 L412.361261,190.052632 C412.560946,191.013575 413.430667,191.736842 414.473322,191.736842 C415.515976,191.736842 416.385697,191.013575 416.585383,190.052632 L417.894919,190.052632 C417.682808,191.714236 416.231778,193 414.473322,193 C412.714866,193 411.263835,191.714236 411.051724,190.052632 Z" id="signin1" fill="#616C8B"></path>
        <g id="cat12">
            <use fill="#E4CA76" xlink:href="#path-16"></use>
            <use fill-opacity="0.96" fill="url(#radialGradient-15)" xlink:href="#path-16"></use>
        </g>
        <path d="M393.606357,296.428774 C394.428728,293.034739 394.428728,289.850906 393.606357,286.877275 C392.372799,282.416828 388.936805,277.478046 385.015836,274.977675 C381.094867,272.477305 389.62764,277.765099 391.946909,277.313883 C393.493089,277.013072 394.984156,275.908445 396.420112,274 L403,288.018246 L396.420112,302 L393.606357,296.428774 Z" id="cat11" fill-opacity="0.84" fill="url(#linearGradient-17)"></path>
        <g id="cat10">
            <use fill="#E4CA76" xlink:href="#path-19"></use>
            <use fill-opacity="0.52" fill="url(#radialGradient-18)" xlink:href="#path-19"></use>
        </g>
        <path d="M433,287.23634 C431.324239,288.941579 429.525015,290.587093 428.754085,291.710364 C427.569298,296.404646 427.162321,298.534397 425.91227,301.355899 C424.140222,305.355604 416.454078,307.252842 410.429077,306.973002 C407.189072,306.822516 404.033846,305.355604 403.081258,304.783257 C403.061536,304.798724 403.041819,304.814117 403.022105,304.829437 C398.25958,302.001614 396,296.914165 396,293.53808 C396,291.250473 396.774153,287.636027 396.774153,283.354773 C396.774153,279.07352 401.918086,279.475035 403.719456,278.213601 C407.423693,275.61966 419.921612,277.797898 424.281161,279.08048 C426.936138,279.861576 430.712488,283.228463 433,287.23634 Z" id="cat9" fill="#E4CA76"></path>
        <path d="M408.803607,302.474138 C409.312872,300.967194 409.923018,298.819171 411.272657,299.012148 C412.622296,299.205126 412.426072,301.386779 412.426072,303.08438 C414.198219,303.527651 416,303.13677 416,304.446614 C416,306.056667 413.499273,307.336879 410.075287,306.92069 C406.259922,306.456927 404.77455,304.209188 405.027352,302.78628 C405.193914,301.848781 407.50164,302.292323 408.803607,302.474138 Z" id="cat8" fill="#FFFFFF"></path>
        <path d="M409,303.076971 C410.134733,302.884767 410.985674,303.076971 412,303.383726 C411.345981,304.443953 409,304.00034 409,303.076971 Z" id="cat7" fill="#EC9B7A"></path>
        <path d="M418.46156,299.964271 C420.697086,299.526158 422.443484,297.721692 421.900021,297.095314 C421.608608,296.75944 420.111616,297.387266 418.394554,297.800367 C416.253983,298.315358 415.597607,297.892419 415.077377,298.500762 C414.507826,299.166778 417.228486,300.205926 418.46156,299.964271 Z" id="cat6" fill-opacity="0.34" fill="#000000"></path>
        <path d="M404.232951,297.661582 C402.355189,296.617871 401.514316,294.454301 402.284586,294.03228 C402.697617,293.805986 403.811844,294.81327 405.22132,295.685547 C406.978441,296.77297 407.765927,296.570841 407.986094,297.280635 C408.227133,298.057722 405.268689,298.237273 404.232951,297.661582 Z" id="cat5" fill-opacity="0.34" fill="#000000"></path>
        <g id="cat4">
            <use fill="#D99F4E" xlink:href="#path-21"></use>
            <use fill="url(#linearGradient-20)" xlink:href="#path-21"></use>
        </g>
        <g id="cat3">
            <use fill="#D99F4E" xlink:href="#path-23"></use>
            <use fill="url(#linearGradient-22)" xlink:href="#path-23"></use>
        </g>
        <path d="M403.250329,282.162363 C403.039329,280.829302 402.587843,277.834486 401.627525,275.594752 C400.858507,273.801186 399.644997,272.431562 398.846536,273.23558 C397.568532,274.522477 397.071701,277.699304 397.008663,279.460358 C396.937635,281.444651 397.315745,282.703165 397.689388,283.243224 C398.320018,284.154729 399.961198,285.686956 401.627525,285.893716 C402.806796,286.040041 403.787623,286.136279 403.959691,285.473345 C404.192616,284.575942 403.34414,282.755048 403.250329,282.162363 Z" id="cat2" fill="#F8EFE2"></path>
        <path d="M422.599435,285.791154 C427.056943,282.091831 431.504822,279.992362 433.358741,281.484572 C435.325565,283.067658 432.277135,285.232507 430.793401,287.713615 C429.818216,289.344326 428.274368,291.906328 426.620543,291.998319 C425.701307,292.04945 424.470205,290.926111 422.599435,289.705291 C422.047138,289.344875 421.585863,286.632326 422.599435,285.791154 Z" id="cat1" fill="#F8EFE2"></path>
        <path d="M486.736065,212 C487.369701,212.013418 487.918743,212.411119 488.420849,212.791645 C488.821442,213.095959 497.043429,226.727278 500.66787,233.336305 C500.910191,233.77909 501.159607,234.262664 501.434674,234.686127 C501.787785,235.228202 502.021374,235.861518 501.998451,236.505031 C501.975529,237.148008 501.69555,237.612261 501.152512,237.970782 C497.966867,240.075216 494.775219,242.169989 491.577568,244.256174 C491.161147,244.527748 490.729445,244.805227 490.237709,244.893784 C489.745972,244.98234 489.130892,245.146037 488.880385,244.720963 C485.92178,239.691469 478.42239,226.943572 477.582999,225.627563 C475.890029,222.971393 474.366246,219.93738 472.566305,217.350446 C472.23939,216.879753 471.989429,216.332847 472.000344,215.762862 C472.01126,215.193415 472.329442,214.605719 472.867023,214.393183 C473.109344,214.297649 483.114898,212.550663 486.736065,212 Z" id="phone4" fill="#30394B"></path>
        <path d="M488.502902,230.424221 C488.260452,229.358526 488.604288,228.293517 489.437569,227.802796 C490.295486,227.297567 491.410847,227.555009 492.199311,228.35548 C492.724655,227.095323 492.630177,225.475688 491.820213,224.04472 C490.562708,221.823078 488.056788,220.897489 486.223085,221.977361 C484.389381,223.057232 483.922281,225.733638 485.179787,227.95528 C485.959891,229.333495 487.220441,230.21293 488.502902,230.424221 Z M491.044788,230.495891 C488.995355,231.702806 486.194621,230.668325 484.789173,228.185313 C483.383726,225.702301 483.905779,222.711024 485.955212,221.504109 C488.004645,220.297194 490.805379,221.331675 492.210827,223.814687 C493.616274,226.297699 493.094221,229.288976 491.044788,230.495891 Z M489.437569,227.802796 C488.584474,228.305186 487.413182,227.864924 486.821415,226.819446 C486.229647,225.773967 486.441495,224.519172 487.29459,224.016783 C488.147684,223.514394 489.318976,223.954655 489.910744,225.000134 C490.502511,226.045612 490.290664,227.300407 489.437569,227.802796 Z" id="phone3" fill="#70BEE9" fill-rule="nonzero"></path>
        <path d="M479.625754,215.984011 C479.342624,216.059926 479.067079,215.858221 479.010306,215.53349 C478.953533,215.208759 479.137031,214.883972 479.420161,214.808057 L482.374246,214.015989 C482.657376,213.940074 482.932921,214.141779 482.989694,214.46651 C483.046467,214.791241 482.862969,215.116028 482.579839,215.191943 L479.625754,215.984011 Z" id="phone2" fill="#66BDEB" fill-rule="nonzero"></path>
        <circle id="phone1" fill="#66BDEB" cx="484.5" cy="214.5" r="1"></circle>
        <g id="skin7">
            <use fill="#E6C690" xlink:href="#path-25"></use>
            <use fill-opacity="0.48" fill="url(#radialGradient-24)" xlink:href="#path-25"></use>
        </g>
        <path d="M574.095278,209 C573.577355,208.315606 573.050695,207.639211 572.476814,207.015154 C571.729211,206.201733 569.924402,205.009791 568.894864,204.654635 C566.97971,203.993437 564.868739,204.133521 563,204.92044 C567.859662,200.811348 573.536113,195.926193 574.366679,186 C578.640583,189.802334 579.850283,204.589509 574.095278,209 Z" id="skin6" fill="url(#radialGradient-26)"></path>
        <path d="M571.295377,173.742795 C571.777372,174.383188 574.297777,173.853299 575.248807,171.865189 C576.199837,169.877078 576.534534,164.456858 574.505476,164.066424 C572.476419,163.67599 571.797157,164.997059 571,168.286418 C573.775996,167.210355 573.100574,171.959248 571.295377,173.742795 Z" id="skin5" fill="url(#linearGradient-27)"></path>
        <path d="M571.334478,174 C574.924286,170.300301 572.630581,168.752782 572.230833,168.649531 C571.831085,168.546279 571.255054,168.59579 571,169.30398 C571,168.805726 572.156852,163.946003 573.925675,164.000454 C575.459822,164.047681 576.022351,166.08696 575.999324,166.99104" id="skin4" stroke="#B88A5A" stroke-linecap="round" stroke-linejoin="round"></path>
        <path d="M545,177.233487 C545.341059,177.734155 545.681545,178.234822 546.023176,178.73549 C546.260086,179.084306 546.502146,179.438204 546.823748,179.690444 C547.144778,179.942684 547.562518,180.081194 547.937339,179.949038 C548.052361,179.90901 548.158798,179.845473 548.267525,179.78829 C548.550787,179.515083 548.645207,179.059526 548.596567,178.646539 C548.547353,178.234187 548.374535,177.852968 548.195422,177.487633 C547.935622,176.958374 547.608298,176.399252 547.086981,176.231516 C547.650644,175.879524 548.355079,175.30706 549,175.250512 C548.837482,175.007167 548.52103,174.981753 548.249213,175.008438 C546.894707,175.140594 545.633476,175.897314 545,177.233487 Z" id="skin3" fill="#333238"></path>
        <ellipse id="skin2" fill-opacity="0.33" fill="url(#radialGradient-28)" cx="553.5" cy="185" rx="5.5" ry="5"></ellipse>
        <path d="M550.291862,196 L550,195.88139 L550.019063,195.520129 C550.596629,195.147999 551.103617,194.678304 551.540028,194.111042 C552.006329,193.504928 552.402054,192.801247 552.727201,192 L552.86238,192.237788 L553,192.479871 C552.684718,193.275071 552.297415,193.971194 551.83809,194.56824 C551.394702,195.14457 550.879293,195.621824 550.291862,196 Z" id="skin1" fill="#333238" fill-rule="nonzero" opacity="0.466169085"></path>
        <path d="M535.542083,151.515088 C531.973432,151.330582 528.404781,151.145539 524.832876,151.036123 C522.712837,150.971224 520.560257,150.935825 518.506384,151.46038 C517.715641,151.662585 516.898864,151.980644 516.421598,152.636069 C515.919926,153.325285 515.899859,154.274097 516.183507,155.075411 C516.467155,155.877261 517.016012,156.558432 517.59307,157.18704 C520.636728,160.503322 524.772675,162.823056 529.212338,163.704287 C530.647933,163.989092 532.137764,164.126935 533.574444,163.846957 C534.777915,163.61257 535.904372,163.093379 536.990695,162.528597 C538.226707,161.886044 539.42855,161.178592 540.588091,160.40946 C541.091932,160.075847 541.592519,159.72668 541.995484,159.27936 C542.804668,158.382575 543.16099,157.104978 542.931577,155.924997 C542.228694,152.316938 538.634552,151.674922 535.542083,151.515088 Z" id="head5" fill="#333238"></path>
        <g id="head4">
            <use fill="#996A42" xlink:href="#path-30"></use>
            <use fill-opacity="0.77" fill="url(#radialGradient-29)" xlink:href="#path-30"></use>
        </g>
        <path d="M575.001612,173.577474 C575.015108,173.34275 575.110611,173.151079 575.369794,173.151903 C575.561676,173.152602 575.673799,173.375699 575.764406,173.55934 C575.99295,174.023392 576.328214,174.391493 576.729128,174.675286 C577.06782,174.915073 577.485111,175.066651 577.755638,175.405042 C577.853116,175.527734 577.882214,175.733431 577.776819,175.852047 C577.720618,175.915533 577.639204,175.941595 577.560883,175.959798 C576.490841,176.20685 575.65243,175.271916 575.164276,174.341683 C575.08439,174.189235 574.9862,173.853418 575.001612,173.577474 Z M576.158153,172.425573 C576.171649,172.190849 576.267152,171.999178 576.526336,172.000003 C576.718217,172.000701 576.830341,172.223798 576.920947,172.407439 C577.149491,172.871491 577.484755,173.239592 577.885669,173.523385 C578.224361,173.763173 578.641652,173.91475 578.912179,174.253142 C579.009657,174.375833 579.038755,174.58153 578.93336,174.700146 C578.87716,174.763632 578.795745,174.789694 578.717424,174.807897 C577.647382,175.05495 576.808972,174.120015 576.320817,173.189782 C576.240931,173.037334 576.142741,172.701517 576.158153,172.425573 Z" id="head3" fill="#FFFFFF"></path>
        <path d="M540.321116,176.953521 C541.1376,176.747136 541.572125,176.165097 542.144804,175.464364 C543.819442,173.41527 546.09968,172.65139 548.346333,171.445257 C548.622731,171.297126 548.936722,171.114043 548.992319,170.793924 C549.045798,170.48601 548.81229,170.185309 548.532187,170.07435 C548.252613,169.96339 547.941798,169.997233 547.64581,170.043836 C545.18524,170.431085 541.05957,171.73574 539.233867,173.5 C538.448094,174.25952 538.316443,173.88382 538.040046,175.010061 C537.735056,176.252256 539.237767,177.227592 540.321116,176.953521 Z" id="head2" fill="url(#linearGradient-31)"></path>
        <path d="M533.441214,156.456456 C546.061874,154.88578 558.702931,158.369807 570.949491,161.819242 L592.791166,167.972229 C593.213572,168.091138 593.649397,167.816027 593.717025,167.379307 C593.930106,166.00483 593.979485,164.45253 593.999881,163.334788 C594.006859,162.940767 593.705753,162.613228 593.315014,162.588906 C590.448878,162.413245 587.678816,161.397115 587.804948,159.770227 C587.96221,157.732023 590.077461,158.276301 592.830347,157.981732 C593.236115,157.937952 593.523802,157.556903 593.45027,157.152613 C593.116961,155.327364 592.65108,152.648674 592.246922,150.940171 C591.496037,147.760983 589.496183,145.107156 587.591329,142.461436 C585.340822,139.335757 582.196123,138.738511 578.123956,136.561399 C577.087531,136.007933 575.214344,135.076661 574.088822,134.881543 C572.963837,134.686424 571.889841,134.838844 569.549163,134.686424 C565.69115,134.434554 560.521907,133.802176 557.094889,134.061072 C553.990981,134.295647 551.228434,136.443031 550.382548,137.265123 C545.628197,141.885269 545.878313,144.134266 541.50343,150.487237 C541.313427,150.762889 541.056334,150.995842 540.750935,151.129884 C540.16751,151.386079 539.484253,151.526607 538.539072,151.59471 C537.520359,151.667676 531.313081,156.09973 533.441214,156.456456 Z" id="head1" fill="#333238"></path>
        <path d="M482.915669,473.841861 C483.110804,468.81904 482.91675,463.371886 482.838372,458.345223 C482.94594,458.193166 482.822156,457.987861 482.702696,457.845685 C481.087563,455.921094 479.270267,453.92514 477.655133,452 C469.810816,452.552785 462.132444,456.195565 454.362721,454.967033 C451.762183,454.555875 448.929212,452.399081 446.651376,453.737951 C445.569215,454.374175 444.500567,455.033455 443.445433,455.715241 C443.091379,455.944699 442.730839,456.183488 442.477326,456.524381 C442.000569,457.165546 441.990299,458.03507 442.002732,458.838722 C442.015164,459.660488 442.120569,460.97246 442.108677,461.793678 C442.08165,463.638672 444.053541,464.751378 445.730296,465.462258 C453.809208,468.887657 461.73785,472.678103 469.48487,476.819872 C470.558923,477.394065 472.238922,477.619132 473.429191,477.85902 C475.616216,478.300369 477.890809,477.613093 480.054591,477.067994 C480.783239,476.884098 481.546481,476.647504 482.04594,476.078251 C482.523237,476.247874 482.64594,475.840559 482.682156,475.327847 C482.720534,474.784943 482.894588,474.385862 482.915669,473.841861 Z" id="legs4" fill="#3C3349"></path>
        <path d="M461.096047,446.606198 C458.136414,428.926156 455.175165,411.236891 451.321825,393.73206 C449.520941,385.547588 447.525048,377.40814 445.457507,369.287677 C444.440974,365.294709 443.499861,361.264313 442.364814,357.303892 C441.292796,353.565333 440.464271,350.872616 441.421007,346.872054 C441.691974,345.738878 442.032434,344.601905 442.667565,343.627666 C444.109672,341.415559 446.775712,340.420165 449.261287,339.560925 C458.892753,336.231915 470.182885,336.79769 480.328274,337.675915 C496.948331,339.11449 513.554382,342.080601 529.099189,348.173932 C530.35275,349.89458 530.877985,352.381709 530.985726,354.513534 C531.155956,357.867497 529.784957,361.142804 527.869869,363.893021 C523.778422,369.767202 517.067263,373.665784 509.989248,374.489221 C507.544614,374.773465 505.039647,374.715965 502.676896,375.407045 C500.05934,376.172441 497.773624,377.817146 495.78635,379.694563 C491.902303,383.366943 488.90927,388.218607 488.339323,393.552509 C486.28471,412.794263 484.206934,432.115756 484.76503,451.499632 C484.8189,453.366199 485.774559,456.128892 484.943341,457.892936 C483.822839,460.270491 478.158379,460.40773 475.897444,460.722351 C474.543684,460.910581 473.172147,461.099353 471.814616,460.940415 C469.240155,460.639898 466.981914,459.135145 464.834644,457.672702 C462.993358,456.419645 461.152611,455.165502 459.311864,453.912445 C458.605625,452.278588 457.931707,449.444834 458.535593,447.681875 C458.778009,446.976149 461.159614,446.984285 461.096047,446.606198 Z" id="legs3" fill="url(#linearGradient-32)"></path>
        <path d="M542.787952,324.710073 C525.611625,328.69567 509.996242,337.507822 494.65896,346.227198 C482.470077,353.157232 470.209774,360.148575 459.475787,369.180461 C451.133262,376.198931 445.964565,387.395605 439.621238,396.271236 C428.435471,411.92173 417.249162,427.572767 405.80477,443.034453 C404.309835,445.054922 402.810031,447.07105 401.305358,449.084466 C400.437506,450.246073 399.329967,451.215616 398.55734,452.454808 C397.4801,454.182297 398.180225,455.431255 398.851133,457.252607 C400.478085,461.670619 402.859808,465.89711 406.185673,469.255515 C407.549131,470.631973 409.079775,471.921623 410.914492,472.539048 C413.38603,473.370783 416.810366,473.021378 419.149888,471.936271 C420.558794,471.283037 421.31573,470.150186 422.290711,468.985866 C423.792138,467.193812 425.297894,465.405014 426.808519,463.620556 C432.868333,456.463192 439.005518,449.370934 445.226026,442.351921 C457.678403,428.303044 470.46407,414.547688 483.642542,401.180258 C485.021691,399.781556 486.404627,398.387194 487.792433,396.996629 C488.428714,396.359672 491.162123,392.815713 491.963425,392.845011 C502.424179,393.227511 512.643082,388.856159 522.048238,384.24771 C525.80911,382.405199 530.365874,384.214072 534.537407,384.558593 C548.549645,385.714775 562.698229,384.418615 576.465911,381.558816 C582.679385,380.268624 589.346803,378.320315 593.041667,373.147068 C594.666996,370.872142 595.568393,368.125737 595.876794,365.344066 C596.702444,357.882329 593.29434,350.407571 588.172714,344.932123 C583.051089,339.457217 576.362028,335.723364 569.563133,332.580353 C564.070344,330.04066 558.433635,327.829213 552.800713,325.619393 C551.246263,325.009563 549.679909,324.395935 548.038348,324.09319 C546.344847,323.781222 544.465763,324.32052 542.787952,324.710073 Z" id="legs2" fill="#9088AE"></path>
        <path d="M371.828981,457.055423 C378.272009,457.599163 384.755222,457.66474 391.208567,457.252153 C391.620183,457.225922 392.158324,456.608409 392.507491,456.387634 C392.390197,456.354299 392.575912,456.553215 392.614467,456.436816 C392.653565,456.320964 392.546589,456.200194 392.565052,456.078877 C392.954946,453.441601 393.588117,450.705414 394.39397,448.164863 C395.804757,447.691618 397.417008,448.283448 398.460165,449.350162 C399.503865,450.416876 399.773207,452.689655 400.584491,453.944356 C401.476686,455.323652 401.319208,457.152695 402.022429,458.638554 C402.641481,459.948448 403.854063,460.85122 404.983018,461.752353 C408.613161,464.648111 411.323414,468.394179 414,472.199266 C413.422761,473.019521 412.684786,473.724471 411.840377,474.261653 C411.356539,474.569864 410.837404,474.823427 410.378546,475.168251 C409.669894,475.701062 409.134468,476.428416 408.609903,477.145388 C406.987878,479.360241 405.347933,481.607882 404.346046,484.167559 C404.283055,484.328768 403.984933,484.779608 404.157073,484.77305 C401.050952,485.356136 397.855231,484.718403 394.78658,483.958806 C385.696832,481.710619 376.872083,478.37823 368.556693,474.053447 C364.056619,471.712906 359.544599,468.930268 356.813167,464.638274 C355.182454,462.076411 356.297291,458.708502 357.598929,455.962478 C358.176168,454.743845 360.067535,453.697896 361.403927,453.818667 C362.314042,453.900638 363.093287,454.472248 363.870904,454.954783 C366.237963,456.424247 369.047591,457.074003 371.828981,457.055423 Z" id="legs1" fill="#3C3349"></path>
        <g id="sweatshirt6">
            <use fill="url(#linearGradient-33)" xlink:href="#path-35"></use>
            <use fill="url(#radialGradient-34)" xlink:href="#path-35"></use>
        </g>
        <path d="M570,213.353348 C570.07403,213.32598 570.148824,213.300209 570.224414,213.276123 C569.887829,211.599216 570.052885,209.859961 571.062101,208.482869 C572.071856,207.105236 573.804945,206.249704 575.495422,206.447593 C575.576871,206.40151 575.709564,206.43675 575.80288,206.444883 C576.943709,206.543556 578.085077,206.642772 579.225907,206.741445 C584.659274,201.155551 591.252889,196.660486 598.564984,194.014193 C603.063034,192.386623 607.925178,193.041013 612.530567,193.750703 C615.694143,194.238106 618.549722,195.075746 618.972072,198.694135 C619.145759,200.17749 618.736355,201.721568 617.852819,202.922456 C617.709878,203.116008 617.550216,203.313355 617.515694,203.551906 C617.481173,203.790458 617.638138,204.075635 617.878171,204.073466 C622.628119,204.037683 625.686513,210.028031 627.764278,214.321411 C628.338738,215.50712 628.808555,216.74108 629.267583,217.976125 C632.117229,225.643922 635.524074,233.609365 634.932353,241.938599 C634.73817,244.667843 634.470628,248.252075 632.810357,250.509096 C632.048725,251.543541 631.027104,252.386603 629.879802,252.954246 C629.618193,253.084365 626.659589,254.128569 626.592164,253.766405 C626.670263,254.18743 626.678863,254.596335 626.641928,255 C623.031907,253.150967 619.886743,250.330463 617.048143,247.374478 C614.775115,245.008483 612.631004,242.517249 610.628215,239.916498 C607.124817,235.367759 604.052939,230.48288 600.339176,226.104922 C596.625952,221.726964 592.150557,217.802254 586.758184,215.8727 C581.371858,213.945705 575.602453,214.137968 570,213.353348 Z" id="sweatshirt5" fill="#8FD77D"></path>
        <path d="M579.000002,206.44698 C584.385201,200.995246 590.889081,196.609395 598.089732,194.011151 C602.58761,192.388463 607.449569,193.04089 612.054783,193.748451 C615.218238,194.234393 618.073708,195.069521 618.496042,198.677057 C618.669722,200.155963 618.260333,201.69541 617.376831,202.892697 C617.233896,203.085668 617.07424,203.282423 617.039719,203.520259 C617.005199,203.758095 617.162158,204.042416 617.402182,204.040254 C622.15195,204.004579 625.210226,209.97696 627.287912,214.257464 C627.86235,215.439616 628.332149,216.669875 628.79116,217.901216 L628.795303,217.91233 C629.584842,223.095804 629.989121,228.338282 629.999854,233.581946 C630.002551,234.814908 629.973424,236.092195 629.444294,237.204618 C628.411923,239.374869 625.674038,240.307294 623.308323,239.911081 C620.942069,239.514868 618.890273,238.07434 617.042362,236.541921 C609.684699,230.441973 604.172251,222.351772 596.828611,216.235609 C591.398148,211.712404 585.432082,209.580531 579.217362,206.556233 C579.14358,206.520321 579.071123,206.483914 579,206.446982 L579.000002,206.44698 Z" id="sweatshirt4" fill="url(#linearGradient-36)"></path>
        <path d="M604.881942,217.616098 C608.454335,222.25923 612.691508,226.325972 617.279123,229.875953 C618.98886,231.198776 621.110632,232.51387 623.127802,231.797801 C624.613468,231.270548 625.594707,229.713636 625.883557,228.108692 C626.172407,226.5043 625.878779,224.850771 625.494884,223.26791 C624.381963,218.678884 622.494881,214.294134 619.946737,210.373144 C619.413108,212.598645 616.97222,213.821539 614.767616,213.761913 C612.562481,213.702286 610.501771,212.698023 608.428317,211.914598 C607.226723,211.460775 599.467069,208.799117 599.01521,210.64312 C598.787953,211.570642 601.174681,213.147981 601.676452,213.657014 C602.865303,214.862241 603.847605,216.271743 604.881942,217.616098 Z" id="sweatshirt3" fill="url(#linearGradient-37)"></path>
        <path d="M569.723557,213 C570.882997,213.058055 572.083924,213.321119 573.364745,213.851544 C577.466851,215.550418 580.518775,219.209404 582.319475,223.260522 C584.120175,227.31218 584.801872,231.76246 585.275484,236.170011 C586.370101,246.361628 586.432961,256.782032 583.990663,266.738911 C580.635823,280.413732 572.46575,292.861318 561.244295,301.393004 C559.220878,302.930698 557.089083,304.353187 554.754622,305.360287 C552.498193,306.334394 550.091118,306.90393 547.696507,307.462108 C546.917787,307.643419 546.138043,307.824005 545.357044,308 C545.490628,307.861395 545.624207,307.722889 545.757733,307.584453 C541.016739,307.471411 536.392793,307.446531 531.651798,307.33403 C530.350721,307.30266 529.042599,307.271289 527.766448,307.019244 C516.864708,304.869826 509.460867,294.798282 504.03655,285.892855 C500.886002,280.718891 497.403818,275.339937 499.791385,269.156168 C500.829646,266.466421 502.636848,264.130944 504.682482,262.09619 C505.798775,260.986324 507.20498,259.633067 508.768332,259.439436 C509.646735,259.33018 510.53977,259.560591 511.337432,259.942986 C512.135093,260.325381 512.85093,260.854893 513.561889,261.380619 C519.006257,265.407938 524.393726,269.105327 531.391149,269.403346 C534.945947,269.554249 538.643803,269.746258 541.99485,268.329178 C542.306978,268.197206 542.737781,268.038731 542.985966,267.80832 C546.704415,264.354864 549.333122,259.835353 550.973965,255.037293 C552.614265,250.239775 553.302465,245.159382 553.5073,240.094132 C553.617303,237.37626 554.006922,234.656765 555.024591,232.133064 C557.502654,225.98932 561.453573,220.183079 566.131166,215.592714 C567.193708,214.549924 568.322417,213.491003 569.723557,213 Z" id="sweatshirt2" fill="#8FD77D"></path>
        <path d="M589,337.504141 L588.805724,338 C580.025759,334.523866 571.673562,329.955853 564,324.433328 L564.308613,324 C571.946765,329.497041 580.26056,334.044051 589,337.504141 Z" id="sweatshirt1" fill-opacity="0.194321784" fill="#000000" fill-rule="nonzero"></path>
        <path d="M775.5,353.001145 C775.6801,353.000382 775.860235,353 776.040404,353 C792.730964,353 809.129282,356.275426 824.840978,362.826278 C826.59314,363.556827 829,365.14013 829,368.094975 C829,372.100557 828.740871,373.458305 828.097947,377.338188 C825.071861,395.599858 822.374992,409.737938 820.007339,419.752428 C818.540958,425.954799 815.841797,434.695224 811.909856,445.973703 C811.025869,448.509354 810.358268,454.037842 800.274506,456.25185 C791.65407,458.144567 787.338226,459 776.040404,459 C775.862027,459 775.681893,458.999104 775.5,458.997311 C775.318107,458.999104 775.137973,459 774.959596,459 C763.661774,459 759.34593,458.144567 750.725494,456.25185 C740.641732,454.037842 739.974131,448.509354 739.090144,445.973703 C735.158203,434.695224 732.459042,425.954799 730.992661,419.752428 C728.625008,409.737938 725.928139,395.599858 722.902053,377.338188 C722.259129,373.458305 722,372.100557 722,368.094975 C722,365.14013 724.40686,363.556827 726.159022,362.826278 C741.870718,356.275426 758.269036,353 774.959596,353 C775.139765,353 775.3199,353.000382 775.5,353.001145 Z" id="tree5" fill="#CEE8F3"></path>
        <path d="M776.037701,358.00204 C791.539382,358.073698 805.950992,360.038368 818.969577,365.047611 C824.968861,367.355993 821.058052,372.508548 815.901023,373.925883 C801.231552,377.957575 791.019457,377.99976 775.962301,378 C760.946421,377.997902 750.743949,377.949135 736.098977,373.924176 C730.941948,372.506841 727.031139,367.354287 733.030423,365.045904 C746.070113,360.028541 760.50735,358.065629 776.037701,358 L776.037701,358.00204 Z" id="tree4" fill-opacity="0.24" fill="#7CA3CC"></path>
        <path d="M781.954817,358.015346 C782.440969,364.678336 782.770366,371.335709 782.62475,377.983801 C780.52534,377.998985 778.347452,377.999964 776.059486,378 C774.743395,377.999818 773.463689,377.999287 772.214332,377.995874 C771.527402,371.345674 771.052518,364.674625 770.711469,357.997159 C770.65702,356.931096 770.605982,355.86487 770.558038,354.798538 C769.778248,337.45925 769.815617,320.084101 770.670692,302.748616 C771.410916,287.739742 773.401879,272.399971 772.023647,257.435652 C773.24801,255.675208 776.039096,255.614896 777.827831,256.812976 C779.616017,258.011056 780.586495,260.079578 781.252531,262.111696 C784.186496,271.062251 782.779687,280.753387 781.677321,290.098412 C780.289746,301.859157 779.431922,313.700317 779.709437,325.537131 C779.963305,336.367548 781.165612,347.198847 781.954817,358.015346 Z" id="tree3" fill="#AABBD2"></path>
        <g id="tree2">
            <use fill="url(#linearGradient-38)" xlink:href="#path-40"></use>
            <use fill="#B6E388" xlink:href="#path-40"></use>
            <use fill="url(#linearGradient-39)" xlink:href="#path-40"></use>
        </g>
        <path d="M794.024089,260 C792.053544,250.458409 790.691965,243.361905 788.641001,233.495358 C787.989434,230.359075 787.335155,227.208181 787.163719,224.00967 C786.954306,220.101762 787.477296,216.155975 788.696338,212.436373 C787.219056,209.807112 783.948203,208.80335 780.951865,208.413208 C778.424264,208.084212 775.861399,208.024149 773.320778,208.2341 C771.6292,208.373707 769.910497,208.631276 768.250386,208.281718 C766.628251,207.940276 765.184605,207.043654 763.807689,206.122141 C755.567895,200.608213 748.015473,193.915744 742.213222,185.887269 C742.242518,185.2401 741.562198,184.73416 740.913344,184.728208 C740.26449,184.721715 739.669888,185.076684 739.150154,185.46412 C737.006114,187.063646 735.514727,189.36283 734.069453,191.611149 C733.721443,192.152654 733.373417,192.69416 733.025379,193.235668 C732.115591,192.055579 731.274431,190.821858 730.502221,189.549838 C725.438006,190.933407 720.173363,190.415675 715.022926,189.13345 C717.836023,187.810679 720.76637,186.73424 723.767541,185.919736 C725.955524,185.325596 728.23465,184.848335 730.126418,183.601073 C732.018185,182.353269 734.065113,178.910175 733.186231,176.825272 C732.288903,174.694915 730.172532,173.381096 728.20861,172.15656 C720.767947,167.516528 713.302872,161.544819 711.069317,153.08075 C710.55338,151.124631 710.349393,149.005638 711.052499,147.1085 C712.252553,143.870488 716.182568,141.561564 719.639506,141.727144 C718.789919,140.072425 718.302194,138.234268 718.220273,136.376632 C722.530052,136.076315 726.881063,136.369598 731.111092,137.245657 C733.322946,137.703438 735.661207,138.423116 737.033783,140.213114 C738.04287,141.53018 738.370552,143.228188 738.668396,144.858558 C739.206033,147.79463 739.74367,150.730702 740.280765,153.666774 C740.611703,155.475169 740.984414,157.37393 742.175245,158.777033 C743.366619,160.179594 745.663649,160.827305 747.076371,159.646058 C747.91131,158.948024 748.229769,157.826299 748.505369,156.774919 C749.709221,152.184669 750.91253,147.59496 752.116382,143.00525 C753.074473,139.348417 753.818268,135.122876 753.466715,131.359444 C752.602313,130.859616 751.705367,130.425206 750.792119,130.023326 C750.835805,129.969482 750.878971,129.915518 750.92159,129.861431 C748.239553,126.045741 745.557853,122.230387 742.876224,118.41484 C746.408552,119.482172 749.889197,120.802872 753.395102,121.952759 C759.873876,124.077704 767.605329,125.849304 774.20183,124.11937 C774.038532,122.301235 772.779343,120.79478 771.579288,119.418192 C768.624182,116.030832 765.67016,112.643473 762.716139,109.256655 C761.175924,107.490467 759.606414,105.678284 758.749775,103.498686 C757.893678,101.319629 757.873605,98.6643939 759.300433,96.8062164 C761.520425,97.9095431 763.739332,99.0128698 765.959323,100.116197 C766.296771,100.283941 766.744892,100.871047 767.081255,100.700056 C767.395917,100.880246 767.780021,100.622677 768.020357,100.35158 C769.458035,98.7298684 769.53019,96.3224625 769.228007,94.178578 C768.92528,92.0341524 768.504285,90.3047594 769.238315,88.2669328 C769.438504,87.7101289 770.219733,87.6857788 770.794805,87.8313379 C773.185148,88.4384652 775.114349,90.1451315 776.943184,91.7955221 C778.974379,93.6293496 781.006659,95.4631772 783.037854,97.2970047 C784.587834,98.6963195 786.199118,100.13243 788.183114,100.788798 C790.16711,101.445167 793.184606,101.321252 794.016289,99.4084225 C797.763255,90.7917819 801.802248,81.8153933 808.061123,75 C809.010494,78.9350475 808.808745,83.0652105 808.60015,87.116854 C808.080416,97.1799081 806.080145,108.246183 807.310038,118.24701 C807.33869,118.478995 807.497282,118.628487 807.709793,118.712419 C806.608283,122.500942 805.791635,126.371805 805.271953,130.282091 C804.663788,134.858814 804.471193,139.590835 805.775411,144.020917 C807.079087,148.450457 810.07651,152.568317 814.366216,154.304203 C816.169552,155.034163 818.119369,155.497355 820.059964,155.348549 C818.224618,147.245401 818.329325,138.71207 820.36269,130.655999 C820.510255,130.072681 820.673011,129.47854 821.014256,128.982341 C822.277243,127.143643 825.391851,127.686919 826.726992,129.474211 C828.061592,131.261503 828.090888,133.678649 827.937897,135.902077 C827.785991,138.125505 827.526124,140.45932 828.428335,142.498229 C834.872434,131.847321 839.670971,119.33351 843.9505,107.404606 C846.902737,108.335836 849.74115,109.625285 852.382059,111.237449 C853.658067,112.01665 854.912915,112.894333 855.791798,114.101012 C856.810108,115.498703 857.249549,117.242165 857.393859,118.963441 C857.990089,126.095835 853.95374,132.703349 850.073637,138.724299 C847.362664,142.931443 844.651691,147.138045 841.940719,151.344647 C842.664983,151.817038 843.565024,152.569183 844.289288,153.041573 C849.103068,151.675266 853.916306,150.308959 858.730086,148.942652 C860.375007,148.475673 862.094796,148.004906 863.77281,148.331737 C865.450824,148.658569 867.053429,150.054096 866.998634,151.758598 C866.940042,153.542102 865.234901,154.776378 863.662678,155.628628 C857.263112,159.097695 850.165865,161.04191 843.140231,162.957445 C839.32523,163.998544 835.057225,165.562898 831.241139,166.603456 C829.869648,170.820339 827.21564,174.531824 824.10049,177.694622 C820.986425,180.857961 818.153385,183.967189 814.589029,186.61593 C815.502633,188.2463 816.953874,189.51196 817.979779,191.07415 C818.669344,192.124345 819.627295,193.691738 820.110944,195.104993 C817.735435,196.061033 815.359926,197.017016 812.984417,197.972999 C810.200205,199.0931 807.353059,200.252703 805.1271,202.262391 C804.696881,202.65091 804.260695,203.16226 804.349669,203.734215 C804.418569,204.173598 804.784227,204.506382 805.167246,204.73419 C806.802944,205.708191 808.872658,205.370537 810.740555,204.996629 C824.811897,202.17906 838.821391,199.056305 852.756018,195.631068 C853.242973,195.51153 853.739394,195.392029 854.239118,195.292514 C854.900012,195.420001 855.533682,195.630725 856.078791,196.018287 C857.48446,197.017179 857.919019,198.96464 857.637993,200.66319 C856.877923,205.250735 852.198145,207.975773 847.965946,209.923775 C838.636229,214.216956 827.251989,214.519978 819.6936,221.462441 C818.641654,222.428867 818.420848,224.031098 818.67746,225.435283 C818.934072,226.838927 819.586723,228.134889 820.041355,229.48821 C821.550646,233.983225 820.690209,239.253111 817.640704,242.889382 C814.609968,246.502091 808.689283,248.166277 804.112405,246.977289 C804.103778,246.929401 804.095147,246.881515 804.086508,246.833634 C804.649313,245.675865 804.589276,244.233809 803.922543,243.130177 C803.754604,242.851972 803.486069,242.622523 803.156972,242.438444 C801.599161,236.35481 798.946292,230.578042 796.106077,224.960404 C795.130083,223.030799 793.672874,221.012994 791.781107,219.958908 C790.324441,222.722907 790.518663,226.090245 791.399173,229.08638 C792.280225,232.083057 793.788974,234.853007 794.921213,237.764188 C796.385954,241.531485 797.200778,245.54475 797.351449,249.582278 C796.93769,252.604788 796.092161,255.568981 794.841842,258.353272 C794.593065,258.907363 794.321605,259.460323 794.024089,260 Z M732.648506,255.290409 C733.521448,253.318732 735.002678,250.912312 735.435627,250.114738 C737.86883,245.632169 740.30149,241.150682 742.733607,236.668113 C743.773618,234.752577 744.826649,232.818644 746.280603,231.193686 C747.659146,229.653141 749.357234,228.436721 751.040674,227.23383 C752.870051,225.927045 754.698886,224.620261 756.527721,223.313476 C757.008258,222.969818 757.575569,222.630182 758.152142,222.408736 C756.601648,224.505429 755.082974,225.997302 753.864219,228.397329 C749.787181,236.425803 744.567053,243.875828 738.408366,250.454123 C736.6885,252.291208 734.852614,254.091963 732.648506,255.290409 Z M758.234378,222.377985 C758.252482,222.3714 758.270592,222.364937 758.288705,222.358599 C758.228803,222.434883 758.16928,222.511241 758.109981,222.587412 L758.234378,222.377985 Z M727.82087,215.931143 C732.113831,212.681768 736.519094,209.494079 741.245529,206.893496 C744.207146,205.264209 747.824669,203.914135 746.388076,208.571483 C743.967352,216.421932 735.53008,222.570584 727.9565,224.746935 C727.168761,224.973661 726.319718,225.165755 725.540116,224.912515 C724.814224,224.676049 724.247834,224.06784 723.944022,223.368723 C723.341825,221.980772 723.725387,220.323347 724.557612,219.058769 C725.389838,217.794191 726.612678,216.845622 727.82087,215.931143 Z M695.883204,168.598967 C692.847805,164.32635 698.372286,163.899954 701.358317,164.879907 C703.292943,165.515713 705.011646,166.660705 706.702681,167.793252 C708.651956,169.097872 710.601773,170.402493 712.551047,171.707654 C713.885104,172.601029 715.273413,173.553386 716.01124,174.977592 C716.204377,175.3515 716.346518,175.805493 716.161518,176.18373 C715.963498,176.589564 715.471975,176.747027 715.028736,176.837393 C712.379611,177.37634 709.542774,176.945615 707.174131,175.644783 C705.536806,174.745996 704.130051,173.455986 702.442814,172.6546 C701.326308,172.12431 700.111063,171.820205 699.004865,171.268813 C697.766291,170.651404 696.683964,169.725562 695.883204,168.598967 Z M777.767163,199.480374 C778.190872,201.047974 780.092404,201.836374 781.696636,201.560948 C783.300868,201.284981 784.648488,200.230355 785.873498,199.161118 C789.825214,195.712072 793.289204,191.751135 796.740717,187.803725 C799.911204,184.177194 803.141368,180.455969 804.919206,175.98314 C805.180701,175.324607 805.412357,174.609798 805.258281,173.918799 C804.856816,172.12339 802.185448,171.878267 800.695145,172.961572 C799.204843,174.044878 798.449112,175.846239 797.291917,177.278561 C796.134179,178.710343 794.048732,179.810423 792.490072,178.827764 C792.115733,178.267172 792.426055,177.386784 793.068941,177.182243 C794.447484,173.806248 795.687685,170.599079 797.122651,167.246351 C798.556531,163.893623 799.495091,160.171856 798.745328,156.604307 C797.296257,149.70351 789.975492,144.968241 789.194805,137.961386 C789.027709,136.460342 786.653642,136.579387 785.295714,137.247118 C783.937786,137.91485 783.07952,139.264924 782.231561,140.515974 C781.384687,141.767565 780.377227,143.058117 778.923274,143.47802 C778.304258,142.722628 778.877702,141.631746 779.201586,140.711315 C779.838505,138.897509 779.332876,136.79042 778.117631,135.298575 C776.901844,133.80673 775.056191,132.903074 773.153031,132.601133 C772.339793,132.472349 771.317685,132.551351 770.960165,133.291051 C769.179071,133.345162 766.733934,133.342998 765.061344,133.9577 C763.388755,134.571321 761.856136,135.847262 761.413982,137.56908 C761.185039,138.462455 761.260449,139.403449 761.157913,140.320092 C760.970201,141.986716 760.201992,143.521308 759.598168,145.086745 C757.30168,151.036809 757.379261,157.862392 759.810293,163.759427 C761.470947,167.78638 764.236714,171.695371 763.79456,176.027511 C760.864409,176.535074 757.610917,174.855463 755.780997,172.51732 C753.951077,170.179176 751.425103,167.603484 748.520994,168.241455 C746.86251,168.605623 745.572397,170.03037 745.04561,171.640177 C744.518281,173.249985 744.662049,175.012927 745.091724,176.651413 C746.273333,181.154544 749.520315,184.900119 753.326636,187.594315 C757.132957,190.28851 761.503498,192.059568 765.830095,193.806277 C767.833622,194.615239 769.837148,195.424201 771.840675,196.233163 C773.741122,197.000459 775.866173,198.713078 777.767163,199.480374 Z" id="tree1" fill-opacity="0.66" fill="url(#linearGradient-41)"></path>
        <path d="M565.732442,385 C567.356231,385 568.326346,386.33028 567.899256,387.971264 L544.981003,476.028736 C544.553913,477.66972 542.891347,479 541.267558,479 C539.643769,479 538.673654,477.66972 539.100744,476.028736 L562.018997,387.971264 C562.446087,386.33028 564.108653,385 565.732442,385 Z" id="chair3" fill-opacity="0.154070426" fill="#44455E"></path>
        <path d="M537.937012,387 C539.588954,387 540.505986,388.330415 539.985261,389.971564 L509.128137,487.222749 C508.607412,488.863898 506.846117,490.194313 505.194174,490.194313 C503.542232,490.194313 502.6252,488.863898 503.145925,487.222749 L534.003049,389.971564 C534.523774,388.330415 536.285069,387 537.937012,387 Z M606.057193,389.161137 C607.709135,389.161137 609.476201,390.491552 610.004044,392.132701 L638.850172,481.819905 C639.378015,483.461055 638.466753,484.791469 636.814811,484.791469 C635.162869,484.791469 633.395804,483.461055 632.86796,481.819905 L604.021832,392.132701 C603.493989,390.491552 604.405251,389.161137 606.057193,389.161137 Z M576.689972,389.161137 C578.341914,389.161137 580.021908,390.491552 580.442344,392.132701 L607.571121,498.028436 C607.991557,499.669585 606.993224,501 605.341282,501 C603.68934,501 602.009345,499.669585 601.588909,498.028436 L574.460133,392.132701 C574.039697,390.491552 575.03803,389.161137 576.689972,389.161137 Z" id="chair2" fill-opacity="0.28" fill="#44455E"></path>
        <path d="M614.131304,387.478542 C617.053875,385.187265 619.629544,382.458133 621.74902,379.256965 C624.840149,374.587056 626.952012,369.334969 628.453806,363.959719 C630.965314,354.961179 631.921199,345.59966 634.172802,336.533299 C636.494547,327.182089 640.197921,318.174326 645.126327,309.890352 C646.858664,306.978916 649.446295,304.054459 648.934098,300.707339 C648.500742,297.874576 646.391053,295.361929 643.671295,294.439559 C638.765181,292.776036 633.674742,296.133465 629.740825,299.499576 C625.101685,303.470652 620.697438,307.731462 616.787989,312.420361 C603.793286,328.004084 596.784009,347.591438 586.264384,364.935261 C583.818667,368.966564 581.088034,372.976706 577.213928,375.671113 C571.685783,379.514686 564.546009,380.184761 557.81893,379.81744 C551.091851,379.449577 544.385977,378.173993 537.663792,378.625955 C530.941606,379.077916 523.911123,381.61335 520.128364,387.17633 C519.194229,388.55012 518.502055,390.442608 519.460659,391.799035 C520.6373,393.46527 521.76446,393.913434 523.806726,393.951956 C525.848992,393.989394 527.843952,393.409386 529.834563,392.95037 C542.567186,390.016147 555.898461,391.994903 568.666971,394.770154 C571.579755,395.403334 574.487645,396.078835 577.438491,396.498785 C586.148568,397.738559 595.160962,396.65613 603.363192,393.498367 C607.276447,391.991105 610.914029,389.99987 614.131304,387.478542 Z" id="chair1" fill="#B6BBDB"></path>
    </g>
</svg>