<svg width="138" height="135" fill="none" xmlns="http://www.w3.org/2000/svg"><g clip-path="url(#a)"><path fill-rule="evenodd" clip-rule="evenodd" d="M39.402 19.715c15.681 11.734 34.571 25.87 83.152 14.594 1.695-.394 3.578-1.175 5.629-2.167a68.474 68.474 0 016.006 14.09c10.84 36.124-9.656 74.196-45.78 85.036-36.122 10.84-74.194-9.657-85.034-45.78-8.406-28.013 2.033-57.198 23.99-73.946 4.106 2.237 7.963 5.124 12.037 8.173z" fill="url(#b)" fill-opacity=".5"/><path fill-rule="evenodd" clip-rule="evenodd" d="M39.402 19.715c15.681 11.734 34.571 25.87 83.152 14.594 1.695-.394 3.578-1.175 5.629-2.167a68.474 68.474 0 016.006 14.09c10.84 36.124-9.656 74.196-45.78 85.036-36.122 10.84-74.194-9.657-85.034-45.78-8.406-28.013 2.033-57.198 23.99-73.946 4.106 2.237 7.963 5.124 12.037 8.173z" fill="url(#c)" fill-opacity=".52"/><path fill-rule="evenodd" clip-rule="evenodd" d="M33.624 94.212c4.385-4.922 7.251-11.361 8.094-18.187.762-6.178-4.554-12.26-6.954-18.086-2.4-5.825-4.229-12.305-2.794-18.318.64-2.677 1.905-5.128 3.467-7.3 6.28-8.727 16.933-12.64 27.347-13.912 3.274-.398 6.609-.579 9.9-.025 3.06.515 6.016 1.653 8.95 2.785 3.954 1.525 8.007 3.11 11.244 6.021 3.849 3.462 6.21 5.662 6.314 10.919.025 1.233-.1 3.615-.21 4.838-.14 1.568-.902 5.38-1.998 6.4-1.095 1.022-2.5.75-2.518 2.958-.025 2.879 3.97 7.703 5.732 11.183.379.75.863 1.302 1.231 2.059.172.353.213.93.222 1.32.012.577-.246 1.105-.516 1.592-.123.221-.255.445-.45.595-.159.123-.351.188-.541.247-1.397.44-2.698.614-4.172.602-.387-.003-.864.033-1.011.408.444.866 1.01 2.39 1.008 3.36-.002.537-1.317 1.413-1.382 1.97-.085.716.338 1.618.04 2.219-.572 1.153-1.498 2.434-1.614 3.749-.097 1.118 1.166 4.99.319 7.758-.621 2.028-3.09 3.225-4.408 3.033-.938-.136-6.267-.63-7.51-.832-2.637-.43-5.362.125-7.498 1.706-1.087.804-2.782 2.916-3.366 4.186-1.543 3.353-2.193 7.273-4.48 10.085-1.777 2.185-4.474 3.483-7.244 3.486-2.574.001-5.082-1.051-7.444-2.248-4.637-2.349-8.92-5.355-13.207-8.395-.926-.655-1.852-1.344-2.565-2.254-.922-1.179-1.505-2.49-1.986-3.922z" fill="#E9BF80"/><path fill-rule="evenodd" clip-rule="evenodd" d="M69.368 100.485c-8.446-3.4-12.49-22.08-8.84-28.292 4.66 11.957 13.189 15.97 20.463 19.316-2.504-.308-5.055.269-7.077 1.765-1.087.804-2.782 2.917-3.366 4.186-.448.974-.82 1.996-1.18 3.025z" fill="url(#d)"/><path fill-rule="evenodd" clip-rule="evenodd" d="M59.691 56.36c-.27.937-3.108 1.08-4.838-1.062-1.73-2.14-4.077-8.69-2.093-9.807 1.984-1.118 3.183.29 5.231 4.077-3.308-.447-.85 5.17 1.7 6.791z" fill="url(#e)"/><path d="M59.936 56.17c-5.25-3.341-3.327-5.975-2.93-6.231.396-.256 1.04-.384 1.575.397-.182-.608-3.216-6.156-5.116-5.513-1.648.557-1.513 3.227-1.157 4.321" stroke="#B88A5A" stroke-linecap="round" stroke-linejoin="round"/><path fill-rule="evenodd" clip-rule="evenodd" d="M92.522 51.065l-.739 2.177c-.17.506-.346 1.019-.657 1.44-.31.422-.782.744-1.297.727-.158-.005-.314-.041-.47-.069-.452-.22-.733-.729-.82-1.24-.087-.511-.007-1.031.085-1.535.135-.73.343-1.52.934-1.915-.83-.21-1.915-.63-2.74-.455.116-.352.502-.5.85-.57 1.739-.35 3.584.081 4.854 1.44z" fill="#333238"/><ellipse rx="6.851" ry="6.679" transform="scale(-1 1) rotate(16.704 -259.898 -259.073)" fill="url(#f)" fill-opacity=".33"/><path opacity=".466" d="M92.864 76.386l.348-.252-.15-.404s-1.344-.292-2.507-1.002c-1.243-.758-2.305-1.936-2.305-1.936l-.098.326-.1.331s1.038 1.173 2.262 1.92c1.182.722 2.55 1.017 2.55 1.017z" fill="#333238"/><path fill-rule="evenodd" clip-rule="evenodd" d="M92.74 16.428c4.042-1.466 8.085-2.932 12.16-4.305 2.418-.814 4.885-1.603 7.45-1.655.987-.02 2.048.098 2.845.755.838.692 1.218 1.876 1.193 2.98-.024 1.105-.4 2.15-.828 3.139-2.258 5.216-6.15 9.558-10.934 12.2-1.547.853-3.212 1.542-4.973 1.687-1.475.122-2.969-.14-4.434-.474a46.608 46.608 0 01-4.943-1.416c-.706-.245-1.415-.51-2.048-.932-1.27-.846-2.162-2.327-2.342-3.888-.55-4.772 3.35-6.821 6.854-8.091z" fill="#333238"/><path fill-rule="evenodd" clip-rule="evenodd" d="M54.955 58.505c.194 1.007-.341 2.07-.426 3.081-.09 1.098-.507 2.122-.98 3.086-1.593 3.248-3.955 6.117-7.017 7.792-1.362.746-2.946 1.253-4.469.836-2.94-7.047-7.425-13.504-10.388-20.542a49.189 49.189 0 01-3.743-15.888c-.26-4.064.069-8.373 2.257-11.606 1.16-1.714 2.767-3.013 4.385-4.236 2.339-1.77 4.774-3.448 7.491-4.488 3.807-1.456 7.984-1.59 12.085-1.538 11.606.146 23.484 1.729 34.163 7.043 2.177-.481 4.098-.45 7.143-.373 5.118.131 4.926-.925 6.521-.996-.309.849-1.119 3.04-2.255 3.622-2.311 1.183-4.466 1.015-3.658 1.587.75.53 3.557 1.442 3.761 1.5 2.998.847 7.698-.036 7.762-.045.321-.051-.418 1.309-.859 1.782-1.07 1.147-2.52 1.891-6.451 1.936-.981.01 2.595 2.305 3.911 3.443.691.597 2.977 1.029 3.851 1.124.028.26-2.025 1.818-3.427 2.24-1.402.42-3.155-.653-3.084-.286.198 1.017 1.18 2.937 1.893 3.957.529.758-3.997 1.413-5.061.285-.627-.664-2.468-3.36-2.882-4.188-2.452-4.902-4.807-.6-8.759-4.254-3.953-3.655-8.435-2.219-9.927-1.149-1.493 1.07-4.986-1.392-5.174-1.034-.369.701 1.969 9.928 1.61 10.362-.953 1.152-3.483 2.274-4.898 2.645-.365.777-.2 7.787-1.543 9.663-.771 1.078-3.81.186-5.022-.685-.518-2.754-1.362-4.884-2.559-7.415-1.196-2.531-5.586-5.909-8.132-3.751-1.879 1.591-1.577 3.328-1.445 4.987.666 8.382 5.718 10.402 5.326 11.503z" fill="#996A42"/><path fill-rule="evenodd" clip-rule="evenodd" d="M54.955 58.505c.194 1.007-.341 2.07-.426 3.081-.09 1.098-.507 2.122-.98 3.086-1.593 3.248-3.955 6.117-7.017 7.792-1.362.746-2.946 1.253-4.469.836-2.94-7.047-7.425-13.504-10.388-20.542a49.189 49.189 0 01-3.743-15.888c-.26-4.064.069-8.373 2.257-11.606 1.16-1.714 2.767-3.013 4.385-4.236 2.339-1.77 4.774-3.448 7.491-4.488 3.807-1.456 7.984-1.59 12.085-1.538 11.606.146 23.484 1.729 34.163 7.043 2.177-.481 4.098-.45 7.143-.373 5.118.131 4.926-.925 6.521-.996-.309.849-1.119 3.04-2.255 3.622-2.311 1.183-4.466 1.015-3.658 1.587.75.53 3.557 1.442 3.761 1.5 2.998.847 7.698-.036 7.762-.045.321-.051-.418 1.309-.859 1.782-1.07 1.147-2.52 1.891-6.451 1.936-.981.01 2.595 2.305 3.911 3.443.691.597 2.977 1.029 3.851 1.124.028.26-2.025 1.818-3.427 2.24-1.402.42-3.155-.653-3.084-.286.198 1.017 1.18 2.937 1.893 3.957.529.758-3.997 1.413-5.061.285-.627-.664-2.468-3.36-2.882-4.188-2.452-4.902-4.807-.6-8.759-4.254-3.953-3.655-8.435-2.219-9.927-1.149-1.493 1.07-4.986-1.392-5.174-1.034-.369.701 1.969 9.928 1.61 10.362-.953 1.152-3.483 2.274-4.898 2.645-.365.777-.2 7.787-1.543 9.663-.771 1.078-3.81.186-5.022-.685-.518-2.754-1.362-4.884-2.559-7.415-1.196-2.531-5.586-5.909-8.132-3.751-1.879 1.591-1.577 3.328-1.445 4.987.666 8.382 5.718 10.402 5.326 11.503z" fill="url(#g)" fill-opacity=".77"/><path fill-rule="evenodd" clip-rule="evenodd" d="M56.027 56.789c.12.333.124.78.083.997-.25 1.319-.926 2.772-2.318 2.86a.5.5 0 01-.303-.054c-.171-.107-.212-.37-.138-.556.204-.514.656-.852.98-1.27a3.792 3.792 0 00.762-1.72c.042-.26.096-.574.33-.645.314-.095.501.105.604.388zm-1.831-.991c.12.333.124.78.083.997-.25 1.319-.926 2.772-2.318 2.86a.499.499 0 01-.303-.054c-.171-.107-.212-.37-.138-.556.204-.514.656-.852.98-1.27a3.79 3.79 0 00.762-1.72c.042-.26.096-.574.33-.645.314-.095.501.105.604.388z" fill="#fff"/><path fill-rule="evenodd" clip-rule="evenodd" d="M96.978 48.855c-1.038.038-1.763-.514-2.694-1.162C91.56 45.8 88.59 45.68 85.5 45.012c-.38-.082-.817-.193-1-.562-.175-.355-.009-.803.281-1.036.29-.234.67-.303 1.036-.351 3.045-.402 8.39-.28 11.187 1.215 1.204.643 1.223.14 1.959 1.41.812 1.4-.606 3.115-1.984 3.166z" fill="url(#h)"/><path fill-rule="evenodd" clip-rule="evenodd" d="M97.908 21.427c-15.283 2.454-28.7 11.21-41.67 19.787L33.106 56.511c-.447.296-1.057.106-1.3-.415-.761-1.637-1.399-3.554-1.84-4.94-.156-.488.072-1.001.518-1.168 3.272-1.22 6.117-3.454 5.362-5.437-.945-2.484-3.204-1.067-6.52-.472-.489.087-.966-.287-1.032-.816-.294-2.39-.753-5.89-.921-8.16-.314-4.223 1.022-8.228 2.251-12.19 1.452-4.68 4.89-6.523 8.818-10.658 1-1.052 2.833-2.867 4.07-3.503 1.237-.636 2.545-.821 5.213-1.83 4.399-1.661 10.181-4.255 14.268-5.13 3.702-.792 7.722.918 9.014 1.646 7.263 4.095 7.813 6.984 15.282 13.37.324.277.71.477 1.116.538.775.115 1.623.051 2.75-.194 1.213-.265 10.097 3.087 7.753 4.275z" fill="#333238"/><path fill-rule="evenodd" clip-rule="evenodd" d="M16.765 110.131c.35-.18.721-.329 1.113-.443.279-.081.354-.489.225-.774-.118-.261-.346-.442-.566-.617l-.059-.047c-1.471-1.184-2.521-2.96-2.873-4.862-.859-4.641 2.138-6.674 5.621-8.38 5.072-2.482 10.461-4.986 16.28-4.528 9.458.744 18.773 4.034 27.15 9.083l1.927-.78 1.928-.779c.024-.01.05-.021.076-.034.091-.043.195-.091.281-.069 1.885-.834 4.212-.374 5.895.986 1.683 1.36 2.522 3.462 2.757 5.662 1.872.071 3.633 1.031 5.306 1.995 7.11 4.096 13.835 9.957 18.988 16.748a24.8 24.8 0 011.434 2.112 68.528 68.528 0 01-13.838 5.864c-26.77 8.033-54.61-1.144-71.645-21.137z" fill="url(#i)"/><path fill-rule="evenodd" clip-rule="evenodd" d="M16.765 110.131c.35-.18.721-.329 1.113-.443.279-.081.354-.489.225-.774-.118-.261-.346-.442-.566-.617l-.059-.047c-1.471-1.184-2.521-2.96-2.873-4.862-.859-4.641 2.138-6.674 5.621-8.38 5.072-2.482 10.461-4.986 16.28-4.528 9.458.744 18.773 4.034 27.15 9.083l1.927-.78 1.928-.779c.024-.01.05-.021.076-.034.091-.043.195-.091.281-.069 1.885-.834 4.212-.374 5.895.986 1.683 1.36 2.522 3.462 2.757 5.662 1.872.071 3.633 1.031 5.306 1.995 7.11 4.096 13.835 9.957 18.988 16.748a24.8 24.8 0 011.434 2.112 68.528 68.528 0 01-13.838 5.864c-26.77 8.033-54.61-1.144-71.645-21.137z" fill="url(#j)"/><path fill-rule="evenodd" clip-rule="evenodd" d="M16.765 110.132c.35-.18.722-.33 1.114-.444.279-.08.354-.489.225-.773-.118-.261-.346-.443-.566-.618l-.059-.047c-1.471-1.184-2.521-2.96-2.873-4.862-.859-4.641 2.138-6.674 5.621-8.38 5.072-2.482 10.461-4.986 16.28-4.528 9.314.733 18.49 3.935 26.767 8.854l-.21.211a230.355 230.355 0 01-4.14 3.915c-4.64 4.315-9.096 8.458-12.648 14.266-2.04 3.335-3.773 6.865-5.4 10.462a68.485 68.485 0 01-24.111-18.056z" fill="url(#k)"/></g><defs><linearGradient id="b" x1="3.018" y1="82.665" x2="142.277" y2="47.185" gradientUnits="userSpaceOnUse"><stop stop-color="#BCE6F0"/><stop offset="1" stop-color="#D0E0FC" stop-opacity=".01"/></linearGradient><linearGradient id="c" x1="131.793" y1="102" x2="80.774" y2="25.168" gradientUnits="userSpaceOnUse"><stop stop-color="#E7E4F8"/><stop offset="1" stop-color="#E0DCFB" stop-opacity=".01"/><stop offset="1" stop-color="#E0DCFB" stop-opacity=".01"/></linearGradient><linearGradient id="e" x1="54.852" y1="58.156" x2="51.168" y2="45.879" gradientUnits="userSpaceOnUse"><stop stop-color="#DC8C8C" stop-opacity=".01"/><stop offset="1" stop-color="#B65454" stop-opacity=".38"/></linearGradient><linearGradient id="h" x1="84.202" y1="43.489" x2="97.186" y2="39.593" gradientUnits="userSpaceOnUse"><stop stop-color="#E9BF80"/><stop offset="1" stop-color="#996A42"/></linearGradient><linearGradient id="i" x1="129.997" y1="89.779" x2="170.244" y2="223.899" gradientUnits="userSpaceOnUse"><stop stop-color="#8FD77D"/><stop offset="1" stop-color="#73BA8D"/></linearGradient><linearGradient id="k" x1="39.325" y1="130.057" x2="10.358" y2="112.16" gradientUnits="userSpaceOnUse"><stop stop-color="#FBFEFF"/><stop offset="1" stop-color="#BDD3DB"/></linearGradient><radialGradient id="d" cx="0" cy="0" r="1" gradientUnits="userSpaceOnUse" gradientTransform="matrix(-3.85011 -15.15653 10.03877 -2.55008 75.97 93.945)"><stop stop-color="#D15ACE" stop-opacity=".369"/><stop offset="1" stop-color="#DC9CAF" stop-opacity=".01"/></radialGradient><radialGradient id="f" cx="0" cy="0" r="1" gradientUnits="userSpaceOnUse" gradientTransform="matrix(0 5.62993 -5.77539 0 .796 5.669)"><stop stop-color="#FFEEC9"/><stop offset="1" stop-color="#FFE1D7" stop-opacity=".01"/></radialGradient><radialGradient id="g" cx="0" cy="0" r="1" gradientUnits="userSpaceOnUse" gradientTransform="rotate(149.364 21.56 39.481) scale(38.4449 17.7158)"><stop stop-color="#E9BF80"/><stop offset="1" stop-color="#E9BF80" stop-opacity=".01"/></radialGradient><radialGradient id="j" cx="0" cy="0" r="1" gradientUnits="userSpaceOnUse" gradientTransform="matrix(-14.5672 -48.54267 26.84912 -8.05716 26.008 150.344)"><stop stop-color="#73BA8D"/><stop offset="1" stop-color="#8ED98E" stop-opacity=".01"/></radialGradient><clipPath id="a"><path fill="#fff" d="M0 0h138v135H0z"/></clipPath></defs></svg>
