<svg width="472" height="376" xmlns="http://www.w3.org/2000/svg" xmlns:xlink="http://www.w3.org/1999/xlink"><defs><radialGradient fx="50%" fy="50%" gradientTransform="matrix(0 1 -.98727 0 .994 0)" id="a"><stop stop-color="#DFF5FF" offset="0%"/><stop stop-color="#D8F3FF" stop-opacity=".838" offset="39.388%"/><stop stop-color="#B6EAFC" stop-opacity="0" offset="100%"/></radialGradient><linearGradient x1="71.502%" y1="79.389%" x2="31.957%" y2="25.368%" id="b"><stop stop-color="#50729D" offset="0%"/><stop stop-color="#50729D" stop-opacity="0" offset="100%"/></linearGradient><filter x="-4.8%" y="-66.7%" width="109.6%" height="233.3%" filterUnits="objectBoundingBox" id="c"><feGaussianBlur stdDeviation="4" in="SourceGraphic"/></filter><linearGradient x1="57.025%" y1="-24.142%" x2="54.554%" y2="74.684%" id="d"><stop stop-color="#50729D" offset="0%"/><stop stop-color="#50729D" stop-opacity=".209" offset="74.119%"/><stop stop-color="#50729D" stop-opacity="0" offset="100%"/></linearGradient><filter x="-6.6%" y="-12.5%" width="113.2%" height="125%" filterUnits="objectBoundingBox" id="e"><feGaussianBlur stdDeviation="4" in="SourceGraphic"/></filter><radialGradient cx="34.657%" cy="94.778%" fx="34.657%" fy="94.778%" r="37.369%" gradientTransform="matrix(.26584 .75515 -1.49126 .32213 1.668 .38)" id="g"><stop stop-color="#D99F4E" offset="0%"/><stop stop-color="#E4CA76" offset="100%"/></radialGradient><radialGradient cx="53.579%" cy="18.514%" fx="53.579%" fy="18.514%" r="74.12%" gradientTransform="scale(-1 -.78333) rotate(-87.864 -.219 .53)" id="h"><stop stop-color="#FFEB3D" offset="0%"/><stop stop-color="#FFE92A" stop-opacity="0" offset="100%"/></radialGradient><path d="M306.422 284.737c21.774-1.098 58.385-10.167 52.537-37.577-4.773-22.373-11.145-39.714-37.466-53.13-15.236-7.768-10.44-21.231 3.18-18.779 20.04 3.608 49.62 40.98 51.101 65.276 2.728 44.764-19.256 57.754-66.12 60.098-.702 8.566-5.383 19.808-28.062 22.449-17.896 2.084-39.49 0-46.594 0-18.958 0-24.718-78.218-26.989-86.011-2.904-9.969-5.966-22.656.033-36.904 3.2-7.6 8.841-18.301 7.998-26.777-6.383-.05-15.41-5.209-19.598-11.33-8.757-12.795-8.816-26.896-5.718-38.673-4.129-13.977-3.564-25.26 1.693-33.85 8.038-13.133 14.802-.194 18.394 11.082 7.274-2.605 16.035-3.364 25.224-1.566 36.856 7.211 36.856 30.004 32.133 51.85-1.753 8.104-8.14 16.041-14.584 20.056-6.444 4.016 12.38 38.957 14.584 47.11 7.838 28.996 20.86 30.539 26.098 47.112.412 1.304 7.76 10.634 12.156 19.564z" id="f"/><radialGradient cx="8.492%" cy="0%" fx="8.492%" fy="0%" r="102.449%" gradientTransform="matrix(.457 .6979 -.5268 .21236 .046 -.06)" id="i"><stop stop-color="#FADF7C" offset="0%"/><stop stop-color="#EAD166" stop-opacity="0" offset="100%"/></radialGradient><linearGradient x1="50%" y1="57.002%" x2="28.499%" y2="100%" id="k"><stop stop-color="#FFF" stop-opacity="0" offset="0%"/><stop stop-color="#65688A" stop-opacity=".5" offset="100%"/></linearGradient><radialGradient cx="94.713%" cy="47.596%" fx="94.713%" fy="47.596%" r="28.82%" gradientTransform="matrix(0 .81818 -1 0 1.423 -.299)" id="l"><stop stop-color="#FFF" offset="0%"/><stop stop-color="#FFF" stop-opacity="0" offset="100%"/></radialGradient><path d="M223.5 182c-7.522 0-13.5-7.441-13.5-16.5 0-9.059 5.978-16.5 13.5-16.5s13.5 7.441 13.5 16.5c0 9.059-5.978 16.5-13.5 16.5zm0-4c5.188 0 9.5-5.547 9.5-12.5s-4.312-12.5-9.5-12.5-9.5 5.547-9.5 12.5 4.312 12.5 9.5 12.5z" id="j"/><radialGradient cy="23.151%" fx="50%" fy="23.151%" r="197.546%" gradientTransform="matrix(-.08345 .40727 -.7788 -.02665 .722 .034)" id="n"><stop stop-color="#E6CC70" offset="0%"/><stop stop-color="#E8CE6C" offset="80.809%"/><stop stop-color="#FFF" offset="100%"/></radialGradient><linearGradient x1="50%" y1="83.486%" x2="50%" y2="93.301%" id="o"><stop stop-color="#FFF" stop-opacity="0" offset="0%"/><stop stop-color="#FFF" stop-opacity=".5" offset="100%"/></linearGradient><path d="M212.151 253.104c1.11 22.345 1.13 46.725 1.13 64.103 0 13.394-5.127 14.293 5.133 14.293 5.617 0 7.785-2.606 9.107-7.345 1.599-5.729 1.723-14.595 2.1-25.998.566-17.18.172-42.349 1.441-47.6 3.501-14.492 0 53.622 0 65.602 0 10.87-6.489 16.478 0 16.764 10.828.476 13.908-.676 16.39-20.338 4.984-39.483 8.78-50.514 5.42-71.523C256.957 233.079 259 225.392 259 218" id="m"/></defs><g fill="none" fill-rule="evenodd"><path fill-opacity=".42" fill="url(#a)" d="M0 0h473v376H0z"/><path fill-opacity=".71" fill="url(#b)" opacity=".334" filter="url(#c)" d="M31 319.255L103.988 306 280 324h-85.304z"/><path d="M225.46 311.506c40.127-19.897 63.88-25.988 71.26-18.272 16.373 17.116 16.373 48.038 0 92.766L127 379.662l98.46-68.156z" fill="url(#d)" opacity=".316" filter="url(#e)"/><use fill="#E4CA76" xlink:href="#f"/><use fill-opacity=".88" fill="url(#g)" xlink:href="#f"/><use fill-opacity=".43" fill="url(#h)" xlink:href="#f"/><path d="M306.539 284.694L310 300.802l-.05.002c-.705 8.5-5.394 19.656-28.115 22.277-6.14.708-12.716.931-18.994.918-9.212-16.012-.331-52.773 10.6-61.341 7.065-5.537 14.016-4.788 20.855 2.248.08.236.16.475.236.717.408 1.277 7.586 10.315 12.007 19.071z" fill="url(#i)"/><path d="M210 97.814c-4.525 4.008-12.978 10.377-18.932 25.66a8.449 8.449 0 0 1-.509.526l.181-.7c-4.153-13.948-3.585-25.21 1.703-33.782 7.427-12.04 13.773-2.122 17.557 8.296z" fill="#D99F4E"/><path d="M205.997 105.836c.19 2.93-8.584 14.888-13.676 12.953-3.394-1.29-2.464-4.347 2.792-9.172-2.781.248-4.453-.726-5.014-2.92-.562-2.195 1.273-4.357 5.504-6.489-1.62-2.27-2.065-4.242-1.339-5.915 1.09-2.509 10.541-6.764 11.733 11.543zM269.36 327c5.257 0 8.64-1.858 8.64-6 0-4.142-3.383-9-8.64-9-5.257 0-10.36 6.093-10.36 10.235 0 4.142 5.103 4.765 10.36 4.765zM216 144.048a9.048 9.048 0 0 1 .116-1.498c.831-5.343 5.857-13.55 8.669-13.55 2.811 0 4.152 8.01 5.089 13.55.088.524.129 1.007.126 1.451 5.66.02 9.222.324 10.607 2.599 1.795 2.945-2.389 12.4-16.161 12.4-13.773 0-17.6-9.455-16.162-12.4.914-1.873 3.592-2.41 7.717-2.552z" fill="#FFFAE6"/><g fill-rule="nonzero"><use fill="#5D83B5" xlink:href="#j"/><use fill-opacity=".73" fill="url(#k)" xlink:href="#j"/><use fill-opacity=".26" fill="url(#l)" xlink:href="#j"/></g><path d="M220.88 221.194l-.245 3.52c-.093 1.338-1.061 2.36-2.162 2.282-1.1-.077-1.917-1.224-1.824-2.561l.845-12.13a1.676 1.676 0 0 1 .053-.764l1.116-16.009c-4.837-1.67-8.052-7.154-7.625-13.276.495-7.099 5.719-12.664 11.868-12.232 6.15.431 10.55 6.672 10.056 13.77-.453 6.498-4.867 11.71-10.327 12.217l-.989 14.192 5.506.386c1.338.094 2.36 1.066 2.283 2.17-.077 1.105-1.224 1.924-2.562 1.83l-5.506-.386-.208 2.99 3.541.25c1.255.087 2.21 1.054 2.133 2.16-.077 1.104-1.156 1.928-2.411 1.84l-3.542-.249zm.554-30.042c3.364.236 6.512-3.117 6.83-7.687.318-4.57-2.333-8.33-5.698-8.566-3.364-.236-6.512 3.117-6.83 7.687-.318 4.57 2.333 8.33 5.698 8.566z" fill="#50729D" fill-rule="nonzero"/><path d="M237.528 220.745l.55 3.507c.21 1.332-.505 2.553-1.596 2.727-1.091.174-2.145-.764-2.355-2.096l-1.897-12.084a1.692 1.692 0 0 1-.12-.76l-2.504-15.949c-5.092-.538-9.458-5.184-10.415-11.283-1.11-7.072 2.736-13.714 8.83-14.688 6.096-.974 11.79 4.145 12.9 11.216 1.016 6.473-2.12 12.586-7.332 14.322l2.22 14.138 5.456-.872c1.326-.212 2.542.509 2.714 1.61.173 1.1-.762 2.164-2.088 2.376l-5.457.871.468 2.98 3.51-.561c1.244-.199 2.392.532 2.565 1.633.173 1.1-.695 2.153-1.94 2.352l-3.51.56zm-6.201-29.578c3.334-.533 5.652-4.535 4.937-9.088-.715-4.552-4.145-7.636-7.48-7.103-3.334.533-5.652 4.535-4.937 9.087.715 4.553 4.145 7.636 7.48 7.104z" fill="#50729D" fill-rule="nonzero"/><ellipse fill="#FFFAE6" cx="223" cy="148" rx="7" ry="2"/><ellipse fill="#000" opacity=".64" cx="245" cy="135" rx="4" ry="6"/><ellipse fill="#000" opacity=".64" cx="206" cy="136" rx="4" ry="6"/><path d="M221 97.988C235.347 71.23 256.049 42 261.461 42c3.385 0 3.385 21.667 0 65-9.1-1.216-15.853-2.213-20.26-2.99-5.676-1.002-12.41-3.01-20.201-6.022z" fill="#5D83B5"/><path d="M229.712 82.842l33.639-3.83c-.27 5.099-.622 10.73-1.06 16.895L226.349 100A168.095 168.095 0 0 1 221 98.044a355.174 355.174 0 0 1 8.712-15.202zm20.72-30.318L263.815 51c.24 4.116.246 9.707.022 16.773l-26.516 3.02c4.636-7.037 9.177-13.375 13.11-18.269z" fill="#000" opacity=".13"/><path d="M249.516 97.333c3.297-20.21 12.317-14.788 20.247-1.299 5.187 8.824 4.046 24.456-2.75 28.29-4.183 2.36-2.629-1.573-11.433-10.094-.75-.725-5.65-.754-6.064-1.408-2.72-4.3-1.181-8.249 0-15.489z" fill="#D99F4E"/><use fill="#E4CA76" xlink:href="#m"/><use fill-opacity=".95" fill="url(#n)" xlink:href="#m"/><use fill="url(#o)" xlink:href="#m"/><path d="M223 150.59c-.62.92-1.695 1.41-3.182 1.41-.927 0-1.8-.446-2.61-1.289a.761.761 0 0 1 .009-1.055.713.713 0 0 1 1.027.008c.554.578 1.075.843 1.574.843 1.785 0 2.474-.792 2.327-2.702a.74.74 0 0 1 .667-.803.708.708 0 0 1 .188.01.708.708 0 0 1 .188-.01.74.74 0 0 1 .667.803c-.147 1.91.542 2.702 2.327 2.702.5 0 1.02-.265 1.574-.843a.713.713 0 0 1 1.027-.008c.286.289.29.761.008 1.055-.808.843-1.682 1.289-2.609 1.289-1.487 0-2.563-.49-3.182-1.41z" fill="#494141" fill-rule="nonzero"/><path d="M223 149.59c-.62.92-1.695 1.41-3.182 1.41-.927 0-1.8-.446-2.61-1.289a.761.761 0 0 1 .009-1.055.713.713 0 0 1 1.027.008c.554.578 1.075.843 1.574.843 1.785 0 2.474-.792 2.327-2.702a.74.74 0 0 1 .667-.803.708.708 0 0 1 .188.01.708.708 0 0 1 .188-.01.74.74 0 0 1 .667.803c-.147 1.91.542 2.702 2.327 2.702.5 0 1.02-.265 1.574-.843a.713.713 0 0 1 1.027-.008c.286.289.29.761.008 1.055-.808.843-1.682 1.289-2.609 1.289-1.487 0-2.563-.49-3.182-1.41z" fill="#FFFAE6" fill-rule="nonzero"/><path d="M222.553 146.894l-1.999-1c-.943-.471-.608-1.894.447-1.894h3.998c1.055 0 1.39 1.423.447 1.894l-1.999 1a1 1 0 0 1-.894 0z" fill="#EC9B7A"/><path d="M249.003 111.62c-.127 2.262 4.398 5.472 7.835 8.112 2.203 1.693 3.206 3.795 4.725 3.148 5.33-2.273 5.042-5.719-.865-10.337 5.535.796 8.302-.334 8.302-3.391 0-3.058-2.479-5.105-7.437-6.144 3.54-2.577 4.86-4.924 3.963-7.039-1.346-3.172-15.145-9.029-16.523 15.652z" fill="#FFFAE6"/><path d="M198 84.906c3.748 6.886 3.748 19.755 1.57 27.673-2.179 7.92 6.277 0 7.6-2.905 1.196-2.33 4.023-3.938 4.762-7.134.225-.972-.106-2.905-.992-5.798-6.566-10.76-10.88-14.706-12.94-11.836z" fill="#D99F4E"/></g></svg>