<svg width="20" height="20" xmlns="http://www.w3.org/2000/svg"><path d="M7.653 18.429c0-.278.006-1.055 0-2.032-3.24.706-3.91-1.541-3.91-1.541-.53-1.354-1.292-1.71-1.292-1.71-1.059-.728.079-.713.079-.713 1.168.082 1.784 1.205 1.784 1.205 1.04 1.788 2.726 1.272 3.39.972.106-.755.407-1.272.74-1.562-2.587-.298-5.306-1.3-5.306-5.786 0-1.277.454-2.32 1.2-3.14-.12-.294-.522-1.484.112-3.095 0 0 .98-.315 3.203 1.2.93-.26 1.926-.389 2.917-.394.99.005 1.985.134 2.917.395 2.223-1.514 3.2-1.2 3.2-1.2.634 1.61.233 2.801.115 3.095.746.82 1.198 1.863 1.198 3.14 0 4.496-2.724 5.485-5.318 5.772.417.365.797 1.067.797 2.158v3.24c0 .067.008.136.028.2-.939.24-1.923.367-2.938.367-1.018 0-2.004-.128-2.945-.368a.712.712 0 0 0 .029-.203z" fill="#595B62" fill-rule="evenodd"/></svg>