<svg width="798" height="552" xmlns="http://www.w3.org/2000/svg" xmlns:xlink="http://www.w3.org/1999/xlink"><defs><linearGradient x1="34.812%" y1="80.419%" x2="66.226%" y2="15.79%" id="b"><stop stop-color="#2283C7" stop-opacity="0" offset="0%"/><stop stop-color="#2283C7" offset="100%"/></linearGradient><linearGradient x1="54.236%" y1="109.92%" x2="82.105%" y2="18.886%" id="c"><stop stop-color="#D5CFFA" offset="0%"/><stop stop-color="#D2D8FB" stop-opacity="0" offset="100%"/></linearGradient><path d="M224.72 0h564.284c-15.69 46.327-41.213 60.555-68.72 132.177-56.19 146.299-56.19 298.068-244.87 370.808-69.658 26.855-154.415 48.198-226.306 48.99-90.892 1.003-164.67-28.767-199.68-98.743-62.701-125.324 153.05-254.34 153.05-390.721 0-17.463 7.956-39.216 22.241-62.511z" id="a"/><linearGradient x1="33.805%" y1="78.671%" x2="67.648%" y2="62.413%" id="d"><stop stop-color="#3C45C2" offset="0%"/><stop stop-color="#4B90C9" stop-opacity="0" offset="100%"/></linearGradient><linearGradient x1="10.204%" y1="6.071%" x2="58.441%" y2="106.983%" id="f"><stop stop-color="#55DB3D" offset="0%"/><stop stop-color="#32A9B7" stop-opacity="0" offset="100%"/></linearGradient><linearGradient x1="60.302%" y1="53.139%" x2="88.273%" y2="9.156%" id="g"><stop stop-color="#85A4FF" stop-opacity="0" offset="0%"/><stop stop-color="#7883FF" stop-opacity=".5" offset="100%"/></linearGradient><path d="M213.185 93.034l380.962 22.176c10.747.626 19.074 9.62 18.849 20.36l-4.532 215.873C608.236 362.31 599.342 371 588.45 371H212.02c-11.057 0-20.02-8.943-20.02-19.975v-238.05C192 101.943 200.963 93 212.02 93c.388 0 .777.011 1.165.034z" id="e"/><linearGradient x1="34.575%" y1="36.322%" x2="108.481%" y2="105.086%" id="h"><stop stop-color="#3153A8" stop-opacity=".751" offset="0%"/><stop stop-color="#A05BC2" stop-opacity=".68" offset="100%"/></linearGradient><linearGradient x1="90.539%" y1="36.004%" x2="66.096%" y2="83.039%" id="j"><stop stop-color="#19B297" stop-opacity=".5" offset="0%"/><stop stop-color="#ABD2E5" stop-opacity="0" offset="100%"/></linearGradient><path d="M189.256 33.33l176 13.275C380.906 47.785 393 60.827 393 76.52v342.345c0 16.348-13.09 29.686-29.434 29.994l-176 3.319c-16.566.312-30.248-12.863-30.56-29.43a29.995 29.995 0 0 1-.006-.565V63.246c0-16.569 13.431-30 30-30a30 30 0 0 1 2.256.085z" id="i"/><linearGradient x1="57.937%" y1="35.055%" x2="41.06%" y2="110.522%" id="l"><stop stop-color="#0054DE" stop-opacity="0" offset="0%"/><stop stop-color="#5964B4" offset="100%"/></linearGradient><radialGradient cx="76.91%" cy="-2.091%" fx="76.91%" fy="-2.091%" r="26.595%" gradientTransform="scale(-1 -.89041) rotate(-55.255 .042 1.47)" id="m"><stop stop-color="#B8B149" offset="0%"/><stop stop-color="#56B849" stop-opacity="0" offset="100%"/></radialGradient><path d="M496.238 494c.145-4.124.267-8.248.179-12.37-.225-10.485-1.95-21.297-7.658-30.085-2.362-3.636-5.475-7.154-5.74-11.483-.135-2.184.491-4.336 1.119-6.431a808.285 808.285 0 0 1 7.66-24.186c6.073-18.176 10.479-26.608 24.826-40.403 3.778-3.633 10.977-10.57 15.015-11.625 5.976-1.564 12.205-3.106 18.38-2.963 10.971.254 30.06-6.454 32.012-6.454 1.951 0 19.554 24.026 22.206 29.31 4.078 8.126 6.604 16.877 8.763 25.7-26.874 35.78-63.48 66.91-116.762 90.99z" id="k"/><linearGradient x1="43.348%" y1="48.467%" x2="63.502%" y2="56.8%" id="o"><stop stop-color="#00AEFF" stop-opacity="0" offset="0%"/><stop stop-color="#2079A7" offset="100%"/></linearGradient><linearGradient x1="41.225%" y1="25.313%" x2="41.225%" y2="44.3%" id="q"><stop stop-color="#E3281F" stop-opacity=".369" offset="0%"/><stop stop-color="#FFA79A" stop-opacity="0" offset="100%"/></linearGradient><path d="M585.376 435c3.362-21.896-12.714-47.778-24.876-69.794a42.936 42.936 0 0 1-2.058-2.586c-9.478-12.886-.391-41.965-3.248-55.844-2.494-12.11 16.73-1.846 25.088-21.23 3.208-7.442-5.887-23.95-6.717-38.546 2.62 1.83 5.335 3.55 7.935 5.402 5.283 3.76 10.35 8.416 12.343 14.569 1.204 3.716 1.191 7.73.622 11.592-.869 5.893-3.044 11.582-6.273 16.592-2.575 3.996-4.671 11.218-6.692 15.314-2.73 5.53-5.053 9.877-4.973 15.894a88.171 88.171 0 0 0 2.965 21.576l.344 1.28c1.03-.27 1.744-.43 2.047-.43 1.96 0 19.647 23.981 22.312 29.256 4.097 8.11 6.635 16.845 8.805 25.65-8.233 10.89-17.375 21.347-27.624 31.305z" id="p"/><filter x="-5.1%" y="-1.6%" width="110.2%" height="103.2%" filterUnits="objectBoundingBox" id="n"><feGaussianBlur stdDeviation="1" in="SourceGraphic"/></filter><path d="M631.8 224.516c3.215 8.289-.227 17.796-7.985 22.088 2.216 3.077 3.953 4.463 4.426 9.089.473 4.626-2.95 7.666-4.426 13.724-1.475 6.058-1.475 10.14 0 15.953-1.475-.453-3.943-.453-5.176-2.57-3.606 6.027-9.196 28.078-15.502 26.053 0 10.353-21.82 8.906-25.61 15.147-1.35-2.514-2.38-9.473.309-10.406-4.794-.246-6.537-5.501-6.04-10.296-3.742 1.595-8.362 2.026-11.648-.376-1.625-1.188-6.055-3.812-2.45-7.795 3.607-3.983 4.998-1.165 6.672-1.63 8.474-2.353 15.14-14.684 13.157-22.27-1.445-5.527-10.57-6.983-15.14-3.077-4.57 3.905-6.31 8.51-9.387 14.65-3.775 1.89-8.823 1.89-11.47 0-2.646-1.888-.94-5.852 0-8.313 1.378 2.295 7.636.865 7.514-1.812-5.371-1.063-11.077-6.503-12.695-11.755-1.617-5.252-.144-11.342 3.692-15.264-2.516-4.148-4.492-8.862-4.194-13.71-9.138 12.099-22.332 20.574-36.204 26.608-2.238.973-3.633 3.024-5.945 3.805-4.002 1.35-8.333 2.415-12.409 1.311-4.077-1.103-5.968-3.797-5.265-7.977 2.344-2.266 5.004.626 8.655 1.05-3.57-3.65-5.953-4.716-8.655-9.052-2.13-3.422-3.475-7.959-2.884-11.95.591-3.991 4.506-5.795 8.149-7.786.697 1.087 1.046 3.682 1.046 7.786 4.447-2.27 5.77-4.866 3.966-7.786-2.705-4.38-3.873-5.982-4.94-7.771-2.361-3.96-1.005-9.926.974-14.092 3.418-7.195 19.111-15.434 41.829-13.26 0-9.61 13.279-10.801 17.366-8.99 4.087 1.812 6.12 3.683 9.318 6.816.486-6.184 8.663-8.751 14.784-9.595 6.12-.845 24.534 7.09 27.491 9.595 7.048 5.972 8.568 10.5 14.698 16.838 7.753 0 20.179 7.215 23.98 17.02z" id="r"/><filter x="-2.8%" y="-2.1%" width="105.6%" height="104.3%" filterUnits="objectBoundingBox" id="s"><feGaussianBlur stdDeviation=".717" in="SourceGraphic"/></filter><linearGradient x1="69.164%" y1="25.186%" x2="82.838%" y2="84.056%" id="u"><stop stop-color="#0054DE" stop-opacity="0" offset="0%"/><stop stop-color="#5964B4" offset="100%"/></linearGradient><path d="M535.502 473.797c-17.61 10.876-37.516 20.757-60.146 29.495A814.62 814.62 0 0 1 443 515c3.602-14.916 15.26-32.859 20.157-42.382 2.29-4.452 4.756-8.807 7.185-13.182 2.043-3.68 2.838-5.121 2.384-4.323 1.663-3.064 3.115-5.888 4.178-8.379 3.608-8.455 6.246-17.32 10.22-25.609 3.975-8.288 9.515-16.165 17.416-20.82 9.017-5.31 20.701-5.741 30.082-1.109 4.638 2.291 8.75 5.794 11.356 10.277 2.546 4.378 3.572 9.496 3.899 14.556 1.035 16.02-4.563 31.81-12.212 45.905a173.853 173.853 0 0 1-2.163 3.863z" id="t"/><linearGradient x1="37.777%" y1="86.074%" x2="50%" y2="0%" id="v"><stop stop-color="#E2B0FD" stop-opacity=".471" offset="0%"/><stop stop-color="#F978CF" offset="100%"/></linearGradient><linearGradient x1="-39.204%" y1="38.265%" x2="137.893%" y2="0%" id="x"><stop stop-color="#9ED035" offset="0%"/><stop stop-color="#52B93B" stop-opacity="0" offset="100%"/></linearGradient><path d="M114.096 257.981l1.582 1.68c.557.96 1.353 1.685 2.387 2.174 1.55.733 2.592.65 3.745.723 9.215.582 14.994.874 17.338.874 2.852 0 2.852 2.241 2.852 3.07 0 .848-.908 2.044-2.724 3.587-2.672 2.27-11.066 7.337-25.184 15.201-.24 13.135-11.035 23.71-24.316 23.71H24.32C10.89 309 0 298.184 0 284.841V220.16C0 206.816 10.889 196 24.32 196h65.456c13.431 0 24.32 10.816 24.32 24.159v37.822z" id="w"/></defs><g fill="none" fill-rule="evenodd"><use fill="#C9ECFF" xlink:href="#a"/><use fill-opacity=".51" fill="url(#b)" xlink:href="#a"/><use fill="url(#c)" xlink:href="#a"/><g opacity=".807"><use fill-opacity=".4" fill="url(#d)" xlink:href="#e"/><use fill-opacity=".85" fill="url(#f)" xlink:href="#e"/><use fill="url(#g)" xlink:href="#e"/></g><path d="M612.78 145L192 123.446v-11.41C192 100.972 200.963 92 212.02 92c.388 0 .777.011 1.165.034l380.962 22.245c10.747.628 19.074 9.65 18.849 20.422L612.78 145zm-402.294-30.492c3.076 0 5.569-2.503 5.569-5.592 0-3.088-2.493-5.592-5.569-5.592-3.075 0-5.568 2.504-5.568 5.592 0 3.089 2.493 5.592 5.568 5.592zm17.373.895c3.075 0 5.568-2.504 5.568-5.592 0-3.089-2.493-5.592-5.568-5.592-3.075 0-5.568 2.503-5.568 5.592 0 3.088 2.493 5.592 5.568 5.592z" fill="#0C2479" opacity=".282"/><use fill="url(#h)" xlink:href="#i"/><use fill-opacity=".37" fill="url(#j)" xlink:href="#i"/><path d="M268.857 409.336l29.286-.386a7.755 7.755 0 0 1 7.857 7.753c0 4.357-3.5 7.904-7.857 7.961l-29.286.386a7.755 7.755 0 0 1-7.857-7.753c0-4.357 3.5-7.904 7.857-7.961z" fill="#362699"/><path d="M310.586 240.198c0-1.31.845-2.468 2.087-2.864 12.602-4.011 21.347-15.875 21.347-29.454 0-17.054-13.668-30.871-30.52-30.871s-30.52 13.817-30.52 30.871c0 13.711 8.915 25.662 21.689 29.56a3.003 3.003 0 0 1 2.12 2.875v58.605l6.899 5.295 6.898-5.295v-23.43l-5.304-4.673a3.014 3.014 0 0 1-.161-4.366l3.605-3.685-6.707-3.859c-1.835-1.056-2.029-3.64-.372-4.961l8.94-7.121v-6.627zM267 207.88c0-20.364 16.338-36.88 36.5-36.88s36.5 16.516 36.5 36.88c0 15.453-9.491 29.052-23.434 34.447v5.95a3.01 3.01 0 0 1-1.132 2.354l-6.611 5.267 6.239 3.59c1.7.978 2.02 3.308.646 4.713l-4.104 4.195 3.943 3.474a3.01 3.01 0 0 1 1.019 2.26v26.276a3.01 3.01 0 0 1-1.175 2.387l-9.888 7.59a2.978 2.978 0 0 1-3.63 0l-9.888-7.59a3.01 3.01 0 0 1-1.175-2.387V242.47c-14.137-5.29-23.81-18.988-23.81-34.59zm36.72-9.03c-5.43 0-9.824-4.443-9.824-9.913 0-5.471 4.395-9.914 9.824-9.914 5.43 0 9.825 4.443 9.825 9.914 0 5.47-4.395 9.913-9.825 9.913zm0-6.009c2.12 0 3.845-1.744 3.845-3.904s-1.725-3.905-3.845-3.905c-2.119 0-3.844 1.744-3.844 3.905 0 2.16 1.725 3.904 3.844 3.904z" fill="#44D46D" fill-rule="nonzero" opacity=".699"/><path d="M279.322 249.41c0-1.308.852-2.465 2.104-2.855C297.12 241.659 308 227.188 308 210.635c0-20.791-17.009-37.652-37.999-37.652-20.99 0-38 16.86-38 37.651 0 16.71 11.087 31.286 26.989 36.048a2.993 2.993 0 0 1 2.137 2.865v70.866l9.098 6.847 9.098-6.847v-12.909l-6.847-7.586A2.985 2.985 0 0 1 272.4 296l5.988-7.158-10.437-12.07a2.985 2.985 0 0 1 .1-4.017l11.27-11.793V249.41zM226 210.634C226 186.532 245.703 167 270 167s44 19.532 44 43.634c0 18.443-11.64 34.647-28.677 40.916v10.61c0 .768-.297 1.507-.828 2.063l-10.223 10.697 10.323 11.938a2.985 2.985 0 0 1 .031 3.869l-5.952 7.115 5.879 6.513c.495.55.77 1.262.77 2.001v15.547c0 .938-.442 1.822-1.193 2.387l-12.098 9.106a3.008 3.008 0 0 1-3.616 0l-12.098-9.106a2.988 2.988 0 0 1-1.193-2.387v-70.191C237.86 245.57 226 229.25 226 210.634zm44.224-11.888c-6.603 0-11.962-5.313-11.962-11.876 0-6.562 5.36-11.875 11.962-11.875 6.603 0 11.962 5.313 11.962 11.875 0 6.563-5.36 11.876-11.962 11.876zm0-5.983c3.296 0 5.961-2.642 5.961-5.893 0-3.25-2.665-5.892-5.961-5.892-3.296 0-5.961 2.642-5.961 5.892 0 3.25 2.665 5.893 5.961 5.893z" fill="#7ED86C" fill-rule="nonzero"/><path d="M443 515c3.612-14.923 15.301-32.873 20.21-42.4 2.296-4.455 4.769-8.812 7.204-13.19 2.049-3.68 2.846-5.122 2.39-4.324 1.668-3.065 3.124-5.89 4.19-8.382 3.617-8.46 6.262-17.329 10.247-25.62a69 69 0 0 1 3.704-6.76c.451-1.373.906-2.746 1.364-4.117 6.047-18.098 10.435-26.493 24.723-40.229 3.762-3.617 10.932-10.524 14.953-11.575 2.622-.686 5.293-1.368 7.987-1.904-.395-7.226-.736-15.762-5.1-20.794-5.102-5.886-6.768-4.793-12.544-4.793-5.776 0-7.58.5-12.995 0-3.148-.29-5.835-8.963-7.04-12.208-1.229-3.31-3.415-9.504-3.415-13.203 0-3.256 1.069-2.442 0-5.245-1.07-2.804-4.179-8.284-5.12-9.676-1.71-2.53-1.783-4.938 0-7.416 1.349-1.875 3.904-2.229 5.12-4.194.722-1.168.191-7.139.256-8.511.223-4.672.88-8.304 2.031-11.726-.555.25-1.112.496-1.67.738-2.24.973-3.637 3.022-5.952 3.801-4.006 1.35-8.342 2.413-12.422 1.31-4.081-1.101-5.975-3.792-5.27-7.968 2.346-2.264 5.008.625 8.663 1.049-3.573-3.646-5.959-4.712-8.664-9.043-2.133-3.418-3.48-7.95-2.888-11.937.592-3.987 4.512-5.789 8.159-7.778.698 1.086 1.047 3.678 1.047 7.778 4.452-2.268 5.775-4.86 3.97-7.778-2.708-4.376-3.877-5.976-4.945-7.763-2.364-3.955-1.006-9.915.975-14.076 3.422-7.188 19.132-15.418 41.875-13.247 0-9.6 13.294-10.79 17.386-8.98 4.092 1.81 6.127 3.679 9.328 6.81.486-6.18 8.673-8.743 14.8-9.587 6.128-.843 24.561 7.083 27.522 9.586 7.056 5.966 8.577 10.49 14.714 16.82 7.762 0 20.201 7.207 24.007 17.001 3.217 8.28-.228 17.778-7.995 22.066 2.218 3.073 3.957 4.458 4.43 9.079.475 4.62-2.953 7.657-4.43 13.71-1.477 6.051-1.477 10.127 0 15.935-1.477-.452-3.947-.452-5.182-2.567-3.61 6.02-9.206 28.048-15.519 26.026 0 10.341-21.843 8.895-25.638 15.13a7.38 7.38 0 0 1-.376-.833c-.158.9-.24 1.783-.23 2.64a88.495 88.495 0 0 0 2.939 21.523c.112.422.227.848.34 1.277 1.023-.269 1.73-.428 2.03-.428 1.944 0 19.473 23.922 22.114 29.184 4.062 8.09 6.577 16.804 8.727 25.588-30.2 40.205-72.744 74.51-137.568 99.488A817.948 817.948 0 0 1 443 515z" fill="#FF9939"/><path d="M579.724 347.747c.935 3.507 2.081 7.27.806 10.668-1.047 2.788-3.547 4.763-6.112 6.284-6.877 4.078-15.072 5.902-23.034 5.126-3.94-.384-8.248-1.702-10.167-5.158-.851-1.531-1.124-3.312-1.263-5.057-.624-7.774-.224-18.454-5.348-24.341-5.124-5.888-6.798-4.795-12.598-4.795-5.8 0-7.613.5-13.051 0-3.161-.29-5.86-8.966-7.07-12.212-1.233-3.312-3.43-9.507-3.43-13.208 0-3.257 1.074-2.442 0-5.247-1.073-2.804-4.196-8.287-5.141-9.68-1.718-2.529-1.79-4.938 0-7.417 1.354-1.876 3.921-2.23 5.141-4.196.725-1.169.193-7.141.258-8.514.48-10.035 2.967-15.277 8.086-23.928.426 1.338 12.653-12.936 18.58-16.798 7.649-4.982 17.58-8.58 25.753-4.513 6.633 3.3 10.065 10.613 15.156 15.988 4.441 4.689 10.174 7.904 15.433 11.657 5.258 3.753 10.302 8.399 12.286 14.54 1.198 3.707 1.185 7.713.619 11.568-.865 5.88-3.03 11.558-6.245 16.557-2.563 3.988-4.649 11.195-6.66 15.282-2.717 5.52-5.03 9.857-4.95 15.862a88.203 88.203 0 0 0 2.95 21.532z" fill="#EDA561"/><use fill="#54B78B" xlink:href="#k"/><use fill-opacity=".59" fill="url(#l)" xlink:href="#k"/><use fill-opacity=".68" fill="url(#m)" xlink:href="#k"/><g filter="url(#n)"><use fill-opacity=".16" fill="url(#o)" xlink:href="#p"/><use fill-opacity=".59" fill="url(#q)" xlink:href="#p"/></g><use fill="#293442" xlink:href="#r"/><use fill-opacity=".21" fill="#000" xlink:href="#r"/><path d="M564.557 267.534c9.027-18.86 21.95-37.279 38.252-42.452 9.794-3.108 21.299.987 30.177 5.882.26 6.613-3.174 13.087-9.21 16.421 2.225 3.086 3.97 4.476 4.445 9.115.475 4.639-2.963 7.687-4.445 13.763-1.48 6.075-1.48 10.167 0 15.998-1.48-.454-3.959-.454-5.198-2.577-3.62 6.044-9.233 28.157-15.566 26.127 0 10.382-21.911 8.93-25.717 15.189-1.356-2.521-2.39-9.5.31-10.435-4.815-.247-6.565-5.517-6.066-10.326-3.757 1.6-8.397 2.032-11.696-.377-1.632-1.19-6.081-3.822-2.46-7.817 3.621-3.994 5.018-1.168 6.699-1.634 8.51-2.36 15.204-14.726 13.213-22.333-1.223-4.668-7.915-6.44-12.738-4.544z" fill="#0E1431" opacity=".379" filter="url(#s)"/><use fill="#54B78B" xlink:href="#t"/><use fill-opacity=".44" fill="url(#u)" xlink:href="#t"/><path d="M528 478.428c-15.69 9.06-33.112 17.375-52.53 24.854A818.87 818.87 0 0 1 443 515c3.615-14.93 15.314-32.888 20.228-42.42 2.297-4.455 4.772-8.815 7.21-13.194 1.306-2.347 2.104-3.784 2.393-4.31a82.567 82.567 0 0 1 10.62.234c11.837 1.056 23.374 5.376 33.018 12.327a63.624 63.624 0 0 1 9.599 8.496c.676.734 1.34 1.49 1.932 2.295z" fill="#EDA561"/><path d="M572.852 273.35a2.401 2.401 0 0 0-.337-1.256 2.987 2.987 0 0 0-.876-.918 3.82 3.82 0 0 0-2.35-.666 5.26 5.26 0 0 0-2.316.825c-.704.454-1.325 1.05-1.871 1.72-1.093 1.35-1.906 2.953-2.649 4.589-.737 1.655.354-.763-.367.908.59-.23 1.146-.332 1.668-.304.39.035.756.124 1.112.304.352.18.66.434.91.728.988 1.191 1.102 2.909.484 4.185-.612 1.27-1.697 2.091-2.826 2.535l-.065-.131c.956-.735 1.768-1.68 2.087-2.76a3.047 3.047 0 0 0 .073-1.584c-.108-.512-.354-.984-.677-1.306a1.633 1.633 0 0 0-.532-.362c-.188-.082-.416-.108-.617-.12-.414 0-.84.177-1.259.456-.834.59-1.574 1.526-2.215 2.512-.626.35-1.006.484-1.14.404-.119-.071-.119-.432 0-1.084l2.451-4.876c.834-1.63 1.752-3.26 2.988-4.649.618-.688 1.324-1.311 2.132-1.757a5.738 5.738 0 0 1 2.617-.743c.921.009 1.817.33 2.547.897.362.285.678.648.892 1.073.216.424.314.914.276 1.388l-.14-.008z" stroke="#000" fill="#000" opacity=".35"/><path d="M512.273 260l.039.017c3.402 1.477 3.687 2.598 3.687 6.978 0 1.048.08 5.62-1.236 7.213-.804.972-2.92 2.427-3.763 1.49 0-2.571.36-8.617 0-13.211l1.273-2.487z" stroke="#000" fill="#000" stroke-linejoin="round"/><path d="M505.032 308.485c1.03-.308 1.92-.488 2.785-.703a74.49 74.49 0 0 0 2.496-.627c.404-.102.824-.228 1.212-.34.389-.117.77-.247 1.148-.391.752-.31 1.465-.615 2.186-1.424l.141.035c-.103.498-.32.972-.617 1.378a4.93 4.93 0 0 1-1.074 1.022c-.803.567-1.713.93-2.636 1.189-.928.245-1.884.37-2.84.375a10.252 10.252 0 0 1-2.833-.366l.032-.148z" stroke="#000" fill="#000"/><path d="M558.237 285.903c-.297-9.465 15.934-23.847 15.762-7.426-.061 5.792-12.124 14.388-15.999 8.606l.237-1.18z" fill="url(#v)" opacity=".521" style="mix-blend-mode:multiply"/><g><use fill="#56B849" xlink:href="#w"/><use fill="url(#x)" xlink:href="#w"/></g><path d="M85.48 224.5a3.605 3.605 0 0 1 5.014-.833 3.57 3.57 0 0 1 .836 4.993L54.141 280.5a3.605 3.605 0 0 1-5.214.68l-15.62-12.837a3.569 3.569 0 0 1-.484-5.039 3.606 3.606 0 0 1 5.06-.482l12.648 10.394L85.48 224.5z" fill="#FFF" fill-rule="nonzero"/></g></svg>