<?xml version="1.0" encoding="UTF-8"?>
<svg width="1387px" height="507px" viewBox="0 0 1387 507" version="1.1" xmlns="http://www.w3.org/2000/svg" xmlns:xlink="http://www.w3.org/1999/xlink">
    <!-- Generator: Sketch 52.6 (67491) - http://www.bohemiancoding.com/sketch -->
    <title>Artboard Copy 3</title>
    <desc>Created with Sketch.</desc>
    <g id="Artboard-Copy-3" stroke="none" stroke-width="1" fill="none" fill-rule="evenodd" fill-opacity="0.343627">
        <path d="M804.932922,1.3335228e-15 L806.308549,9.79910976 C806.531342,11.3861515 805.428168,12.85333 803.844541,13.0761448 L790.941191,14.8916334 C789.357564,15.1144482 787.893171,14.0085238 787.670377,12.4214821 L785.926614,0 L804.932922,0 Z M846.226358,351.011001 L844.969323,343.873977 L837.832984,345.133722 L839.090019,352.270746 L846.226358,351.011001 Z M833.883762,356.133352 L831.621099,343.286709 C831.343403,341.710041 832.396304,340.206296 833.972821,339.928001 L846.81823,337.660459 C848.394747,337.382164 849.897884,338.434703 850.17558,340.011371 L852.438243,352.858014 C852.71594,354.434682 851.663038,355.938426 850.086522,356.216722 L837.241112,358.484263 C835.664596,358.762559 834.161459,357.71002 833.883762,356.133352 Z M913.887177,290.158877 L918.947186,284.532842 L911.885533,283.260952 L913.887177,290.158877 Z M908.31118,276.724703 L925.09449,279.747581 C927.330542,280.150321 928.25742,282.854587 926.738317,284.54362 L914.712279,297.914921 C913.193176,299.603955 910.409863,298.963789 909.776049,296.779582 L905.018776,280.385403 C904.419186,278.319137 906.195869,276.34371 908.31118,276.724703 Z M813.965389,275.11538 L821.509034,275.643476 L818.162582,269.289501 L813.965389,275.11538 Z M821.106835,262.445586 L829.06029,277.546969 C830.119934,279.558937 828.561983,281.955061 826.297249,281.796517 L808.368397,280.541399 C806.103664,280.382855 804.893975,277.792981 806.223004,275.948233 L816.1984,262.101968 C817.455665,260.356832 820.104408,260.542259 821.106835,262.445586 Z M730.984004,463.678153 L730.358403,461.340747 L726.379815,462.408006 C725.088611,462.754373 723.761791,461.988666 723.416281,460.697753 C723.070771,459.40684 723.837407,458.079562 725.128612,457.733196 L729.107199,456.665936 L728.467997,454.277718 C728.129998,453.014868 728.88436,451.715266 730.152912,451.374976 C731.421464,451.034686 732.723831,451.782569 733.06183,453.045419 L740.981648,482.63585 C745.914248,482.571486 750.472825,485.904248 751.828067,490.967775 C753.426053,496.938249 749.96529,503.054125 744.098238,504.627967 C738.231185,506.201808 732.179577,502.637633 730.581591,496.667159 C729.170755,491.395919 731.703137,486.011341 736.353329,483.739297 L732.235208,468.352963 L729.938292,468.969113 C728.66974,469.309403 727.361284,468.53877 727.015773,467.247857 C726.670263,465.956944 727.418536,464.634592 728.687088,464.294302 L730.984004,463.678153 Z M739.551453,487.640039 C736.198852,488.539376 734.221273,492.034163 735.134408,495.445862 C736.047542,498.857562 739.505604,500.894233 742.858206,499.994895 C746.210807,499.095557 748.188386,495.600771 747.275251,492.189072 C746.362117,488.777372 742.904055,486.740701 739.551453,487.640039 Z M825.975645,461.721924 L826.983116,468.89852 L834.159023,467.888877 L833.151552,460.712281 L825.975645,461.721924 Z M838.489289,457.033928 L840.302736,469.9518 C840.525301,471.53721 839.420619,473.003252 837.835362,473.226296 L824.91873,475.043653 C823.333473,475.266697 821.867943,474.162282 821.645379,472.576872 L819.831932,459.659 C819.609367,458.07359 820.714048,456.607549 822.299306,456.384505 L835.215938,454.567147 C836.801195,454.344103 838.266724,455.448519 838.489289,457.033928 Z M768.903906,414.101227 L763.373361,419.264348 L770.297415,421.147554 L768.903906,414.101227 Z M773.289135,427.970807 L756.832855,423.495023 C754.640374,422.898712 753.95245,420.123863 755.612816,418.573804 L768.757167,406.302703 C770.417533,404.752644 773.134523,405.633228 773.575774,407.864427 L776.887703,424.611311 C777.305127,426.722031 775.363228,428.534919 773.289135,427.970807 Z M1022.18244,410.614371 L1017.6268,416.246445 L1023.25833,420.811902 L1027.81397,415.179829 L1022.18244,410.614371 Z M1034.14145,416.579366 L1025.9413,426.717098 C1024.9349,427.961301 1023.11052,428.152317 1021.86644,427.143744 L1011.72968,418.92592 C1010.48559,417.917347 1010.29292,416.091111 1011.29932,414.846908 L1019.49946,404.709176 C1020.50587,403.464973 1022.33025,403.273957 1023.57433,404.28253 L1033.71109,412.500354 C1034.95517,413.508927 1035.14785,415.335163 1034.14145,416.579366 Z M931.918895,399.415217 L924.357981,399.283092 L928.032014,405.453022 L931.918895,399.415217 Z M925.449576,412.441822 L916.717564,397.777854 C915.554192,395.824164 916.984746,393.349695 919.254664,393.389361 L937.224559,393.70338 C939.494477,393.743046 940.837899,396.26599 939.60713,398.177843 L930.369247,412.527792 C929.204936,414.33641 926.550129,414.290018 925.449576,412.441822 Z M986.132778,484.781444 L981.581814,478.735313 L978.987269,485.432338 L986.132778,484.781444 Z M971.896303,487.697793 L978.062713,471.78109 C978.884268,469.660497 981.712721,469.265622 983.079,471.080776 L993.8952,485.450513 C995.261479,487.265667 994.1027,489.878768 991.840096,490.084872 L974.857486,491.631839 C972.717056,491.826813 971.11911,489.70388 971.896303,487.697793 Z M1261.10707,165.475137 L1262.3641,172.612161 L1269.50044,171.352416 L1268.24341,164.215392 L1261.10707,165.475137 Z M1273.44966,160.352786 L1275.71233,173.199429 C1275.99002,174.776097 1274.93712,176.279841 1273.36061,176.558137 L1260.5152,178.825678 C1258.93868,179.103973 1257.43554,178.051435 1257.15785,176.474767 L1254.89518,163.628124 C1254.61749,162.051456 1255.67039,160.547711 1257.2469,160.269416 L1270.09231,158.001874 C1271.66883,157.723579 1273.17197,158.776118 1273.44966,160.352786 Z M1193.44625,226.327261 L1188.38624,231.953296 L1195.44789,233.225185 L1193.44625,226.327261 Z M1199.02225,239.761435 L1182.23894,236.738557 C1180.00288,236.335817 1179.07601,233.631551 1180.59511,231.942517 L1192.62115,218.571217 C1194.14025,216.882183 1196.92356,217.522348 1197.55738,219.706556 L1202.31465,236.100734 C1202.91424,238.167001 1201.13756,240.142428 1199.02225,239.761435 Z M1293.36804,241.370758 L1285.82439,240.842661 L1289.17084,247.196636 L1293.36804,241.370758 Z M1286.22659,254.040552 L1278.27314,238.939168 C1277.21349,236.927201 1278.77144,234.531077 1281.03618,234.68962 L1298.96503,235.944739 C1301.22976,236.103283 1302.43945,238.693157 1301.11042,240.537904 L1291.13503,254.384169 C1289.87776,256.129305 1287.22902,255.943879 1286.22659,254.040552 Z M1376.34942,52.8079851 L1376.97502,55.1453904 L1380.95361,54.0781313 C1382.24482,53.7317647 1383.57163,54.4974711 1383.91715,55.7883845 C1384.26266,57.0792978 1383.49602,58.4065754 1382.20481,58.7529421 L1378.22623,59.8202011 L1378.86543,62.2084196 C1379.20343,63.4712696 1378.44907,64.7708714 1377.18051,65.1111614 C1375.91196,65.4514514 1374.6096,64.7035688 1374.2716,63.4407188 L1366.35178,33.8502877 C1361.41918,33.9146516 1356.8606,30.5818899 1355.50536,25.5183624 C1353.90737,19.5478882 1357.36814,13.4320122 1363.23519,11.8581709 C1369.10224,10.2843296 1375.15385,13.8485048 1376.75183,19.8189789 C1378.16267,25.0902183 1375.63029,30.4747962 1370.9801,32.7468407 L1375.09822,48.1331743 L1377.39513,47.5170248 C1378.66369,47.1767348 1379.97214,47.9473672 1380.31765,49.2382806 C1380.66316,50.5291939 1379.91489,51.8515455 1378.64634,52.1918355 L1376.34942,52.8079851 Z M1367.78197,28.8460991 C1371.13457,27.9467612 1373.11215,24.4519749 1372.19902,21.0402754 C1371.28588,17.6285759 1367.82782,15.5919043 1364.47522,16.4912422 C1361.12262,17.3905801 1359.14504,20.8853664 1360.05817,24.2970659 C1360.97131,27.7087654 1364.42937,29.745437 1367.78197,28.8460991 Z M1281.35778,54.7642136 L1280.35031,47.587618 L1273.1744,48.597261 L1274.18187,55.7738566 L1281.35778,54.7642136 Z M1268.84414,59.4522092 L1267.03069,46.5343371 C1266.80813,44.9489274 1267.91281,43.4828859 1269.49806,43.2598417 L1282.4147,41.4424844 C1283.99995,41.2194402 1285.46548,42.3238557 1285.68805,43.9092654 L1287.50149,56.8271375 C1287.72406,58.4125472 1286.61938,59.8785887 1285.03412,60.1016329 L1272.11749,61.9189902 C1270.53223,62.1420344 1269.0667,61.0376189 1268.84414,59.4522092 Z M1338.42952,102.384911 L1343.96006,97.22179 L1337.03601,95.3385841 L1338.42952,102.384911 Z M1334.04429,88.5153309 L1350.50057,92.9911143 C1352.69305,93.587426 1353.38098,96.3622745 1351.72061,97.9123335 L1338.57626,110.183434 C1336.91589,111.733493 1334.1989,110.852909 1333.75765,108.621711 L1330.44572,91.8748263 C1330.0283,89.7641065 1331.9702,87.9512185 1334.04429,88.5153309 Z M1085.15099,105.871766 L1089.70663,100.239693 L1084.07509,95.6742353 L1079.51946,101.306309 L1085.15099,105.871766 Z M1073.19198,99.9067717 L1081.39212,89.7690399 C1082.39852,88.5248366 1084.22291,88.3338206 1085.46699,89.3423937 L1095.60375,97.5602175 C1096.84783,98.5687906 1097.04051,100.395027 1096.03411,101.63923 L1087.83396,111.776962 C1086.82756,113.021165 1085.00318,113.212181 1083.75909,112.203608 L1073.62234,103.985784 C1072.37825,102.977211 1072.18557,101.150975 1073.19198,99.9067717 Z M1175.41453,117.070921 L1182.97545,117.203046 L1179.30141,111.033116 L1175.41453,117.070921 Z M1181.88385,104.044315 L1190.61586,118.708283 C1191.77923,120.661973 1190.34868,123.136442 1188.07876,123.096776 L1170.10887,122.782757 C1167.83895,122.743091 1166.49553,120.220148 1167.7263,118.308295 L1176.96418,103.958346 C1178.12849,102.149727 1180.7833,102.196119 1181.88385,104.044315 Z M1121.20065,31.7046934 L1125.75161,37.7508246 L1128.34616,31.0538001 L1121.20065,31.7046934 Z M1135.43712,28.7883441 L1129.27071,44.7050479 C1128.44916,46.825641 1125.62071,47.2205156 1124.25443,45.4053615 L1113.43823,31.0356248 C1112.07195,29.2204707 1113.23073,26.6073694 1115.49333,26.401266 L1132.47594,24.854299 C1134.61637,24.6593246 1136.21432,26.7822574 1135.43712,28.7883441 Z M606.605039,20.7647787 L607.132542,13.2126437 L600.78571,16.5628621 L606.605039,20.7647787 Z M593.949488,13.6152954 L609.033895,5.65288877 C611.0436,4.59205196 613.437031,6.15175682 613.278665,8.41903952 L612.024957,26.3680696 C611.866592,28.6353523 609.279629,29.8464022 607.436956,28.5158776 L593.606257,18.5292542 C591.863083,17.2705744 592.048301,14.6188498 593.949488,13.6152954 Z M794.955825,103.839558 L792.621048,104.465864 L793.687107,108.448929 C794.033084,109.741586 793.268239,111.069899 791.978776,111.415798 C790.689314,111.761698 789.363529,110.994198 789.017552,109.70154 L787.951492,105.718475 L785.565959,106.358397 C784.304529,106.696776 783.006388,105.941565 782.66648,104.671586 C782.326573,103.401606 783.073615,102.097773 784.335045,101.759394 L813.89221,93.8306614 C813.827918,88.8925101 817.156933,84.3288029 822.214768,82.9720349 C828.17853,81.3722511 834.287531,84.8369089 835.859603,90.7105645 C837.431675,96.5842202 833.871507,102.64264 827.907744,104.242424 C822.642431,105.654848 817.263907,103.119615 814.994417,98.4641902 L799.62538,102.586946 L800.240837,104.886447 C800.580745,106.156427 799.810979,107.466356 798.521517,107.812255 C797.232055,108.158154 795.91119,107.409039 795.571282,106.139059 L794.955825,103.839558 Z M818.890773,95.2624662 C819.7891,98.6188408 823.279957,100.598645 826.687821,99.6844831 C830.095685,98.770321 832.130067,95.3083669 831.23174,91.9519923 C830.333413,88.5956176 826.842556,86.6158132 823.434692,87.5299753 C820.026828,88.4441374 817.992446,91.9060915 818.890773,95.2624662 Z M793.001796,8.74100509 L800.170323,7.73240036 L799.161816,0.548417396 L791.993288,1.55702213 L793.001796,8.74100509 Z M745.434635,65.876978 L750.591951,71.4137471 L752.47304,64.4819006 L745.434635,65.876978 Z M759.288622,61.486813 L754.817871,77.9616142 C754.222229,80.1565631 751.4505,80.8452611 749.902184,79.1830264 L737.644879,66.0238818 C736.096562,64.3616471 736.976156,61.641599 739.204847,61.1998519 L755.932904,57.8841953 C758.041251,57.4663013 759.852101,59.4103856 759.288622,61.486813 Z M925.57612,57.7458947 L919.783242,52.879622 L918.760005,59.9893046 L925.57612,57.7458947 Z M912.359824,63.7936126 L914.791735,46.8961513 C915.11574,44.6448911 917.782972,43.6231576 919.522095,45.0840976 L933.28993,56.6496849 C935.029053,58.1106249 934.487133,60.9177143 932.32883,61.6280835 L916.129084,66.9599575 C914.087324,67.6319686 912.053314,65.9233107 912.359824,63.7936126 Z M65.0895267,117.852747 L62.7547491,118.479053 L63.8208083,122.462118 C64.1667855,123.754776 63.4019399,125.083089 62.1124779,125.428988 C60.8230158,125.774887 59.4972303,125.007388 59.1512531,123.71473 L58.0851939,119.731665 L55.6996602,120.371586 C54.43823,120.709966 53.1400893,119.954755 52.8001818,118.684775 C52.4602744,117.414796 53.2073162,116.110963 54.4687465,115.772583 L84.0259114,107.843851 C83.9616198,102.9057 87.2906348,98.3419927 92.3484698,96.9852246 C98.3122318,95.3854409 104.421232,98.8500987 105.993304,104.723754 C107.565376,110.59741 104.005208,116.65583 98.0414459,118.255613 C92.7761326,119.668038 87.397608,117.132805 85.1281179,112.47738 L69.7590819,116.600136 L70.3745387,118.899637 C70.7144462,120.169617 69.9446801,121.479545 68.655218,121.825445 C67.365756,122.171344 66.044891,121.422229 65.7049835,120.152249 L65.0895267,117.852747 Z M89.0244742,109.275656 C89.922801,112.632031 93.4136584,114.611835 96.8215224,113.697673 C100.229386,112.783511 102.263768,109.321557 101.365441,105.965182 C100.467115,102.608807 96.9762572,100.629003 93.5683932,101.543165 C90.1605292,102.457327 88.1261474,105.919281 89.0244742,109.275656 Z M63.1354973,22.7541949 L70.3040248,21.7455901 L69.2955169,14.5616072 L62.1269894,15.5702119 L63.1354973,22.7541949 Z M58.4527721,10.2264674 L71.3561216,8.41097891 C72.939749,8.1881641 74.4041424,9.29408851 74.6269358,10.8811302 L76.44225,23.8122995 C76.6650434,25.3993412 75.5618695,26.8665198 73.9782422,27.0893346 L61.0748927,28.9048231 C59.4912653,29.1276379 58.0268719,28.0217135 57.8040785,26.4346718 L55.9887643,13.5035025 C55.7659709,11.9164608 56.8691448,10.4492822 58.4527721,10.2264674 Z M8.56961846,79.8901677 L13.7269347,85.4269369 L15.6080235,78.4950904 L8.56961846,79.8901677 Z M22.4236058,75.5000028 L17.9528542,91.974804 C17.3572129,94.1697529 14.5854839,94.8584509 13.0371676,93.1962162 L0.779862112,80.0370716 C-0.768454227,78.3748368 0.111139812,75.6547888 2.33983014,75.2130417 L19.0678872,71.8973851 C21.1762342,71.4794911 22.987084,73.4235754 22.4236058,75.5000028 Z M466.656085,122.673494 L468.69438,123.899604 C469.820099,124.576765 470.175306,126.054375 469.487756,127.199938 C468.800206,128.345501 467.330261,128.725215 466.204542,128.048054 L464.166247,126.821944 L455.971375,140.475852 C459.81587,143.94309 460.76763,149.817884 457.96013,154.495607 C454.780212,159.793835 447.981717,161.550013 442.775266,158.418141 C437.568815,155.286269 435.925985,148.452322 439.105903,143.154094 C441.802774,138.660695 447.10236,136.714967 451.826158,138.137977 L467.586235,111.879284 C468.258838,110.758624 469.716666,110.399099 470.842385,111.07626 C471.968104,111.753422 472.335428,113.210843 471.662825,114.331503 L470.390842,116.45082 L473.92146,118.574616 C475.067281,119.26387 475.438784,120.751283 474.751234,121.896846 C474.063684,123.042408 472.577443,123.41232 471.431622,122.723066 L467.901004,120.599269 L466.656085,122.673494 Z M451.823159,143.342971 C448.848044,141.553329 444.96319,142.55686 443.146094,145.584419 C441.328999,148.611977 442.267759,152.51709 445.242873,154.306731 C448.217988,156.096372 452.102842,155.092842 453.919938,152.065283 C455.737034,149.037724 454.798274,145.132612 451.823159,143.342971 Z M375.882863,94.5803332 L369.262921,91.629628 L366.318564,98.2502053 L372.938506,101.20091 L375.882863,94.5803332 Z M365.144711,86.620833 C365.79516,85.1582554 367.507993,84.5010323 368.97043,85.1528841 L380.886325,90.4641534 C382.348763,91.1160052 383.007009,92.8300889 382.356559,94.2926664 L377.056717,106.209706 C376.406267,107.672283 374.693434,108.329506 373.230997,107.677654 L361.315102,102.366385 C359.852665,101.714533 359.194419,100.00045 359.844868,98.5378721 L365.144711,86.620833 Z M443.855027,64.5531896 L440.575452,70.9420181 L447.749778,71.0424402 L443.855027,64.5531896 Z M435.820997,76.675392 C433.671935,76.6453106 432.3044,74.3667886 433.286793,72.4530217 L441.081301,57.2688021 C442.119769,55.2457983 444.973956,55.1490735 446.143229,57.0972597 L455.399818,72.5201508 C456.569091,74.4683371 455.143824,76.9458618 452.872095,76.9140634 L435.820997,76.675392 Z M215.581026,72.5515931 L222.270522,75.149058 L221.62036,67.9955065 L215.581026,72.5515931 Z M228.463053,79.2834889 C228.657809,81.4263278 226.537262,83.0260724 224.533431,82.2480045 L208.634621,76.0746542 C206.516412,75.2521746 206.121981,72.4205384 207.935095,71.0527217 L222.288677,60.2243484 C224.10179,58.8565317 226.711954,60.0166142 226.917825,62.2817653 L228.463053,79.2834889 Z M72.3564309,297.507911 L67.8007953,303.139984 L73.4323278,307.705442 L77.9879634,302.073369 L72.3564309,297.507911 Z M84.3154437,303.472906 L76.1152995,313.610637 C75.1088963,314.854841 73.2845161,315.045857 72.0404322,314.037284 L61.9036737,305.81946 C60.6595899,304.810887 60.4669117,302.984651 61.473315,301.740447 L69.6734592,291.602716 C70.6798624,290.358512 72.5042426,290.167496 73.7483264,291.176069 L83.885085,299.393893 C85.1291688,300.402466 85.3218469,302.228702 84.3154437,303.472906 Z M36.3067732,371.674984 L31.7558086,365.628853 L29.1612639,372.325877 L36.3067732,371.674984 Z M22.0702982,374.591333 L28.2367082,358.674629 C29.0582632,356.554036 31.886716,356.159162 33.252995,357.974316 L44.0691948,372.344052 C45.4354738,374.159207 44.2766955,376.772308 42.0140909,376.978411 L25.031481,378.525378 C22.8910511,378.720353 21.293105,376.59742 22.0702982,374.591333 Z" id="Shape" fill="#FFFFFF" fill-rule="nonzero"></path>
    </g>
</svg>