<?xml version="1.0" encoding="UTF-8"?>
<svg width="20px" height="16px" viewBox="0 0 20 16" version="1.1" xmlns="http://www.w3.org/2000/svg" xmlns:xlink="http://www.w3.org/1999/xlink">
    <!-- Generator: Sketch 52.6 (67491) - http://www.bohemiancoding.com/sketch -->
    <title>Artboard Copy 2</title>
    <desc>Created with Sketch.</desc>
    <g id="Artboard-Copy-2" stroke="none" stroke-width="1" fill="none" fill-rule="evenodd">
        <path d="M19.8437559,3.29047972 C19.9698415,3.18881711 20.0254931,3.02615694 19.9889717,2.87027428 C19.9524504,2.71439161 19.8289734,2.59324367 19.6707143,2.55427301 C19.6707143,2.55427301 19.3489786,2.47633167 18.9837651,2.38737689 C18.8550709,2.35603092 18.7489851,2.27046489 18.6933335,2.1535529 C18.6385515,2.0366409 18.6411601,1.90193794 18.7002899,1.78672032 L19.0846336,1.03695859 C19.1620241,0.88615906 19.1402852,0.705707932 19.0298516,0.576935296 C18.9202876,0.44816266 18.7428982,0.392248226 18.5759434,0.440537965 L16.8733531,0.914116277 C16.7429197,0.949698189 16.6020517,0.925129726 16.4933572,0.845494017 C15.7420609,0.298210315 14.8412011,0 13.913385,0 C11.5160195,0 9.56560572,1.90024357 9.56560572,4.23594197 L9.56560572,4.54347135 C9.56560572,4.65021709 9.48299792,4.74086625 9.37343388,4.75357408 C6.93085149,5.036535 4.59000714,3.82420841 2.06829517,0.992904797 C1.95786158,0.870909669 1.7822113,0.820078365 1.62569125,0.862437785 C1.46395386,0.904797204 1.34308559,1.03356984 1.31178158,1.19284126 C0.991785031,2.85926083 1.12569663,4.2554273 1.71090772,5.3652441 C1.74829862,5.43725511 1.74221173,5.52282114 1.6935166,5.58720746 C1.64482147,5.65244096 1.56308322,5.68463412 1.48221453,5.67192629 L0.506572866,5.51265488 C0.36744393,5.49062798 0.223097658,5.53468177 0.123098735,5.63549719 C0.0239693684,5.73461824 -0.0195084242,5.87525151 0.00831736307,6.01164884 C0.22483677,7.09011967 0.676136257,8.45409298 2.06742562,9.21063221 C2.14046831,9.25045007 2.18307655,9.32754421 2.17872877,9.40972149 C2.17264188,9.49105157 2.11959897,9.5622154 2.0422085,9.59186699 L1.57786567,9.77316531 C1.46482341,9.8172191 1.37612872,9.9053267 1.33265092,10.0154612 C1.29004269,10.1264429 1.29612958,10.2501324 1.35004204,10.3560309 C2.01351316,11.647146 2.94480747,12.191041 4.12914254,12.4579053 C4.22131546,12.479085 4.28914082,12.5544848 4.29696682,12.6459812 C4.30479282,12.7374775 4.25174992,12.8238907 4.16479433,12.8594726 C3.04132817,13.3220375 1.79351553,13.5550143 0.435269286,13.5550143 C0.229184549,13.5550143 0.0517951556,13.6948004 0.00918691892,13.8913481 C-0.0325517619,14.0862014 0.0709253843,14.2852907 0.258749448,14.3657736 C3.00219816,15.5543789 5.35347718,16 7.33954274,16 C9.99168809,16 11.9916665,15.2036429 13.3959992,14.3149423 C16.3968365,12.4146987 18.2611642,9.03950016 18.2611642,5.50672456 L18.2611642,4.7739066 C18.2611642,4.6493699 18.3185549,4.52991634 18.4168147,4.44943344 L19.8437559,3.29047972 Z" id="Fill-1" fill="#059ff5"></path>
    </g>
</svg>